SplineFontDB: 3.0
FontName: AbhayaLibre-Regular
FullName: AbhayaLibre
FamilyName: AbhayaLibre
OS2FamilyName: "AbhayaLibre"
OS2StyleName: "regular"
Weight: Regular
Copyright: Copyright (c) 1997-2015 Pushpananda Ekanayake (http://isiwara.lk), Copyright (c) 2015 mooniak (http://mooniak.com)\n
UComments: "2015-2-15: Created with FontForge (http://fontforge.org) The  Free Font Editor"
Version: 1.0
ItalicAngle: 0
UnderlinePosition: -102
UnderlineWidth: 51
Ascent: 819
Descent: 205
InvalidEm: 0
UFOAscent: 819
UFODescent: -205
LayerCount: 2
Layer: 0 0 "Back" 1
Layer: 1 0 "Fore" 0
FSType: 0
OS2Version: 0
OS2_WeightWidthSlopeOnly: 0
OS2_UseTypoMetrics: 0
CreationTime: 1440051439
ModificationTime: 1440479854
PfmFamily: 16
TTFWeight: 400
TTFWidth: 5
LineGap: 94
VLineGap: 0
OS2TypoAscent: 819
OS2TypoAOffset: 0
OS2TypoDescent: -205
OS2TypoDOffset: 0
OS2TypoLinegap: 94
OS2WinAscent: 918
OS2WinAOffset: 0
OS2WinDescent: 205
OS2WinDOffset: 0
HheadAscent: 918
HheadAOffset: 0
HheadDescent: -205
HheadDOffset: 0
OS2CapHeight: 0
OS2XHeight: 0
OS2Vendor: 'PfEd'
OS2UnicodeRanges: 00000002.00000000.00000000.00000000
Lookup: 1 0 0 "Abhaya Libre Latin-Regular-'sups' Superscript lookup 0" { "Abhaya Libre Latin-Regular-'sups' Superscript lookup 0 subtable"  } ['sups' ('DFLT' <'dflt' > ) ]
Lookup: 4 0 0 "Abhaya Libre Latin-Regular-'frac' Diagonal Fractions lookup 1" { "Abhaya Libre Latin-Regular-'frac' Diagonal Fractions lookup 1 subtable"  } ['frac' ('DFLT' <'dflt' > ) ]
Lookup: 6 0 0 "Abhaya Libre Latin-Regular-'ordn' Ordinals lookup 2" { "Abhaya Libre Latin-Regular-'ordn' Ordinals lookup 2 contextual 0"  "Abhaya Libre Latin-Regular-'ordn' Ordinals lookup 2 contextual 1"  } ['ordn' ('DFLT' <'dflt' > ) ]
Lookup: 1 0 0 "Abhaya Libre Latin-Regular-Single Substitution lookup 3" { "Abhaya Libre Latin-Regular-Single Substitution lookup 3 subtable"  } []
Lookup: 1 0 0 "Abhaya Libre Latin-Regular-Single Substitution lookup 4" { "Abhaya Libre Latin-Regular-Single Substitution lookup 4 subtable"  } []

StartChar: si_NdAa.halant
Encoding: 293 -1 0
GlifName: N_ameM_e.544
Width: 657
VWidth: 0
Flags: HW
LayerCount: 2
Back
Fore
SplineSet
115.25 169 m 256
 115.25 274 188.25 317 307.25 317 c 258
 427.25 317 l 257
 417.526 363.186 388.25 396 344.25 396 c 256
 325.25 396 309.299 383.911 300.75 366 c 256
 290.25 344 274.052 336 259.25 336 c 256
 234.25 336 221.25 351 221.25 372 c 256
 221.25 408.283 261.25 433 316.25 433 c 256
 401.989 433 445.154 389.003 463.25 294 c 257
 326.25 294 l 258
 238.25 294 192.25 257 192.25 173 c 256
 192.25 89 257.172 26.001 342.25 26 c 256
 392.217 26 433.75 46 473.75 92 c 257
 496.75 75 l 257
 476.75 58.333 460.367 41.1865 445 32.75 c 257
 448.333 33.417 446.5 33.5 450.5 33.5 c 256
 498.771 33.5 531.25 -17.8018 531.25 -87 c 256
 531.25 -175 491.367 -212.5 432.25 -212.5 c 256
 383.095 -212.5 366.75 -187.083 366.75 -166 c 257
 393.75 -166 l 257
 393.773 -176.229 403.601 -186.75 422.5 -186.75 c 256
 464.283 -186.75 474.75 -148.479 474.75 -87 c 256
 474.75 -42.0967 460.369 0 429.25 0 c 256
 400.12 0 388.568 -29.2295 388.5 -45 c 257
 361.5 -45 l 257
 361.547 -29.335 370.555 -6.04102 383.25 4 c 257
 355.25 -0.666992 338.917 -1 318.25 -1 c 256
 187.25 -1 115.25 69 115.25 169 c 256
503.5 -53 m 257
 503.5 680 l 257
 557.5 638 653.5 633 653.5 541 c 256
 653.5 497 618.691 467 575.5 467 c 256
 560.833 467 545.833 470.333 530.5 477 c 257
 530.5 -101 l 257
 503.5 -53 l 257
530.5 502 m 261
 539.167 497.333 550.167 495 563.5 495 c 256
 601.5 495 616.5 520 616.5 544 c 256
 616.5 586 577.5 606 530.5 637 c 257
 530.5 502 l 261
27 221 m 256
 27 337.213 97.5107 436.25 265.5 436.25 c 256
 291.563 436.25 320.717 435.999 354 429.5 c 257
 333 418.5 265.037 412.552 256 407.25 c 257
 171.788 407.25 56 372.053 56 218 c 256
 56 133.941 86 72.8789 135 29.75 c 257
 135 0 l 257
 68.5828 33.2086 27 120.07 27 221 c 256
EndSplineSet
EndChar

StartChar: si_JnyAe
Encoding: 184 -1 1
GlifName: N_ameM_e.559
Width: 839
VWidth: 0
Flags: HW
LayerCount: 2
Back
Fore
SplineSet
420.75 169 m 260
 420.75 274 493.75 317 612.75 317 c 258
 732.75 317 l 257
 723.026 363.186 693.75 396 649.75 396 c 256
 630.75 396 614.799 383.911 606.25 366 c 256
 595.75 344 579.552 336 564.75 336 c 256
 539.75 336 526.75 351 526.75 372 c 256
 526.75 408.283 566.75 433 621.75 433 c 256
 707.489 433 750.654 389.003 768.75 294 c 257
 631.75 294 l 258
 543.75 294 497.75 257 497.75 173 c 256
 497.75 89 564.349 26 649 26 c 256
 699.453 26 733.75 46 773.75 92 c 257
 796.75 75 l 257
 769.492 45.0156 759.75 6.1582 759.75 -59 c 256
 759.75 -126.798 786.861 -204.25 821.75 -204.25 c 257
 821.75 -228.5 l 257
 819.078 -229.383 814.697 -229.75 810.75 -229.75 c 256
 754.401 -229.75 711.75 -177.438 711.75 -104 c 256
 711.75 -49.1621 735.694 5.75586 745.75 31 c 257
 680.653 -8.52344 634.75 -51.416 634.75 -116 c 256
 634.75 -175.112 669.503 -200.126 704.75 -206 c 257
 704.75 -228.25 l 257
 700.958 -229.427 690.635 -230.25 685.75 -230.25 c 256
 623.523 -230.25 575.75 -197.724 575.75 -132 c 256
 575.75 -78.6523 614.708 -41.1084 661.75 1 c 257
 648.574 -0.908203 634.7 -1 629 -1 c 256
 491.433 -1 420.75 69 420.75 169 c 260
674 426 m 257
 553 409.25 l 257
 547.395 409.405 543.217 409.5 537.5 409.5 c 256
 430.521 409.5 369.281 339.916 347 236 c 257
 355 240 363.333 241 370 241 c 256
 418 241 452 202 452 136 c 256
 452 56 395 -2 308 -2 c 256
 197 -2 134 96 134 207 c 256
 134 330 209 431.5 320 431.5 c 256
 323.953 431.5 328.954 431.25 333 431 c 257
 333 408 l 257
 329.645 408.284 325.311 408.45 322 408.45 c 256
 236 408.45 169 332 169 230 c 256
 169 147 217.31 71 306 71 c 256
 365 71 418 98.6416 418 158 c 256
 418 196 398.453 217 367 217 c 256
 359.667 217 349 214 344 210 c 257
 343 204 342 195.333 342 192 c 257
 315 192 l 257
 328.678 352.298 406.221 438 560 438 c 256
 591 438 640.988 436.425 674 426 c 257
324 431.5 m 257
 320 431.5 231 406 231 406 c 257
 97 406 56 312.399 56 218 c 256
 56 137.333 83 75.333 135 30 c 257
 135 0 l 257
 68.5828 33.2086 27 120.07 27 221 c 256
 27 352.7 99.7562 433 239 433 c 256
 248 433 301 433 324 431.5 c 257
EndSplineSet
EndChar

StartChar: si_JnyAee
Encoding: 185 -1 2
GlifName: N_ameM_e.560
Width: 839
VWidth: 0
Flags: HW
LayerCount: 2
Back
Fore
SplineSet
421.25 169 m 256
 421.25 274 494.25 317 613.25 317 c 258
 733.25 317 l 257
 723.526 363.186 694.25 396 650.25 396 c 256
 631.25 396 615.299 383.911 606.75 366 c 256
 596.25 344 580.052 336 565.25 336 c 256
 540.25 336 527.25 351 527.25 372 c 256
 527.25 408.283 567.25 433 622.25 433 c 256
 707.989 433 751.154 389.003 769.25 294 c 257
 632.25 294 l 258
 544.25 294 498.25 257 498.25 173 c 256
 498.25 89 564.849 26 649.5 26 c 256
 699.953 26 734.25 46 774.25 92 c 257
 793.25 76 l 257
 792.98 68.5654 743.75 28 743.75 28 c 257
 816.25 28 l 257
 816.25 4.75 l 257
 752.5 -36 l 257
 814.25 -36 l 257
 814.25 -58 l 257
 792.377 -65.6641 768.25 -92.0703 768.25 -136 c 256
 768.25 -176.404 787.361 -204.25 822.25 -204.25 c 257
 822.25 -228.5 l 257
 819.578 -229.383 815.197 -229.75 811.25 -229.75 c 256
 754.901 -229.75 713.5 -187.072 713.5 -142 c 256
 713.5 -102.948 739.344 -73.2598 770.25 -59.5 c 257
 769.993 -59.8086 702.25 -60 702.25 -60 c 257
 702.25 -40 l 257
 725.691 -25.7754 749.429 -9.8457 773.5 3.75 c 257
 771.397 3.75 704.5 3.75 704.5 3.75 c 257
 685.158 -12.3477 635.25 -51.416 635.25 -116 c 256
 635.25 -175.112 670.003 -200.126 705.25 -206 c 257
 705.25 -228.25 l 257
 701.458 -229.427 691.135 -230.25 686.25 -230.25 c 256
 624.023 -230.25 576.25 -197.724 576.25 -132 c 256
 576.25 -78.6523 615.208 -41.1084 662.25 1 c 257
 649.074 -0.908203 635.2 -1 629.5 -1 c 256
 491.933 -1 421.25 69 421.25 169 c 256
674 426 m 257
 553 409.25 l 257
 547.395 409.405 543.217 409.5 537.5 409.5 c 256
 430.521 409.5 369.281 339.916 347 236 c 257
 355 240 363.333 241 370 241 c 256
 418 241 452 202 452 136 c 256
 452 56 395 -2 308 -2 c 256
 197 -2 134 96 134 207 c 256
 134 330 209 431.5 320 431.5 c 256
 323.953 431.5 328.954 431.25 333 431 c 257
 333 408 l 257
 329.645 408.284 325.311 408.45 322 408.45 c 256
 236 408.45 169 332 169 230 c 256
 169 147 217.31 71 306 71 c 256
 365 71 418 98.6416 418 158 c 256
 418 196 398.453 217 367 217 c 256
 359.667 217 349 214 344 210 c 257
 343 204 342 195.333 342 192 c 257
 315 192 l 257
 328.678 352.298 406.221 438 560 438 c 256
 591 438 640.988 436.425 674 426 c 257
324 431.5 m 257
 320 431.5 231 406 231 406 c 257
 97 406 56 312.399 56 218 c 256
 56 137.333 83 75.333 135 30 c 257
 135 0 l 257
 68.5828 33.2086 27 120.07 27 221 c 256
 27 352.7 99.7562 433 239 433 c 256
 248 433 301 433 324 431.5 c 257
EndSplineSet
EndChar

StartChar: si_NyAa.halant
Encoding: 174 -1 3
GlifName: N_ameM_e.562
Width: 1151
VWidth: 0
Flags: HW
LayerCount: 2
Back
Fore
SplineSet
603 169 m 256
 603 274 676 317 795 317 c 258
 915 317 l 257
 905.276 363.186 853.25 396 809.25 396 c 256
 790.25 396 774.299 383.911 765.75 366 c 256
 755.25 344 739.052 336 724.25 336 c 256
 699.25 336 686.25 351 686.25 372 c 256
 686.25 408.283 726.25 433 781.25 433 c 256
 866.989 433 932.904 389.003 951 294 c 257
 814 294 l 258
 726 294 680 257 680 173 c 256
 680 89 744.922 26.001 830 26 c 256
 879.967 26 921.5 46 961.5 92 c 257
 984.5 75 l 257
 964.5 58.333 948.117 41.1865 932.75 32.75 c 257
 936.083 33.417 934.25 33.5 938.25 33.5 c 256
 986.521 33.5 1019 -17.8018 1019 -87 c 256
 1019 -175 979.117 -212.5 920 -212.5 c 256
 870.845 -212.5 854.5 -187.083 854.5 -166 c 257
 881.5 -166 l 257
 881.523 -176.229 891.351 -186.75 910.25 -186.75 c 256
 952.033 -186.75 962.5 -148.479 962.5 -87 c 256
 962.5 -42.0967 948.119 0 917 0 c 256
 887.87 0 876.318 -29.2295 876.25 -45 c 257
 849.25 -45 l 257
 849.297 -29.335 858.305 -6.04102 871 4 c 257
 843 -0.666992 826.667 -1 806 -1 c 256
 675 -1 603 69 603 169 c 256
991.25 -53 m 257
 991.25 680 l 257
 1045.25 638 1141.25 633 1141.25 541 c 256
 1141.25 497 1106.44 467 1063.25 467 c 256
 1048.58 467 1033.58 470.333 1018.25 477 c 257
 1018.25 -101 l 257
 991.25 -53 l 257
1018.25 502 m 261
 1026.92 497.333 1037.92 495 1051.25 495 c 256
 1089.25 495 1104.25 520 1104.25 544 c 256
 1104.25 586 1065.25 606 1018.25 637 c 257
 1018.25 502 l 261
146 22 m 257
 153.696 91.2695 199.452 184.165 234 232 c 256
 260 268 275 282 293 301 c 257
 305 314 318 330 318 352 c 256
 318 374 308.408 392 283 392 c 256
 269 392 247.479 384.287 241 363 c 256
 234 340 237.653 340.109 231 323 c 256
 224 305 209 297 194 297 c 256
 160 297 154 328 154 340 c 256
 154 394.099 204.363 433 261 433 c 256
 310.712 433 345.079 402 345.079 356 c 256
 345.079 351.468 344.724 345.795 344 341 c 257
 372.357 362.046 409.339 388.188 480 412 c 256
 550.91 435.896 608.2 442 689.25 442 c 256
 715.792 442 783.74 439.389 827.5 427.25 c 257
 725.25 413.5 l 257
 714.28 414.815 693.462 415 683.25 415 c 256
 633.816 415 596.183 410.734 564 405 c 256
 480.979 390.21 419.011 364.724 344 308 c 257
 368 314 399.667 316 427 316 c 256
 547 316 640 251 640 126 c 256
 640 67.8477 607 -1 522 -1 c 256
 476 -1 442.333 20.333 421 63 c 257
 403.667 21.667 371.021 -1 329 -1 c 256
 242 -1 245 73 212 73 c 256
 189.675 73 175 51 172 11 c 257
 146 22 l 257
307 273 m 257
 289.667 258.333 270 234.667 254 212 c 256
 225.333 171.333 205.667 131.667 195 95 c 257
 201 98.333 207.333 100 214 100 c 256
 243 100 267 71 324 71 c 256
 375.183 71 406 101.864 406 162 c 256
 406 164.209 406.041 161.305 406 163 c 257
 432 163 l 257
 431.964 161.664 432 163.33 432 162 c 256
 432 96.9268 459 71 517 71 c 256
 579.089 71 599 123 599 159 c 256
 599 242 525.879 291 423 291 c 256
 366.333 291 328 282 307 273 c 257
27 221 m 256
 27 352.7 99.7559 434.25 239 434.25 c 256
 248 434.25 271 434.25 293 428.25 c 257
 272 417.25 194 406.5 177 400.5 c 257
 102 382.5 56 319.268 56 218 c 256
 56 137.333 83 75.333 135 30 c 257
 135 0 l 257
 68.5828 33.2086 27 120.07 27 221 c 256
EndSplineSet
EndChar

StartChar: si_NyAe
Encoding: 172 -1 4
GlifName: N_ameM_e.563
Width: 1018
VWidth: 0
Flags: HW
LayerCount: 2
Back
Fore
SplineSet
603 169 m 260
 603 274 676 317 795 317 c 258
 915 317 l 257
 905.276 363.186 853.5 396 809.5 396 c 256
 790.5 396 774.549 383.911 766 366 c 256
 755.5 344 739.302 336 724.5 336 c 256
 699.5 336 686.5 351 686.5 372 c 256
 686.5 408.283 726.5 433 781.5 433 c 256
 867.239 433 932.904 389.003 951 294 c 257
 814 294 l 258
 726 294 680 257 680 173 c 256
 680 89 746.599 26 831.25 26 c 256
 881.703 26 916 46 956 92 c 257
 979 75 l 257
 951.742 45.0156 942 6.1582 942 -59 c 256
 942 -126.798 969.111 -204.25 1004 -204.25 c 257
 1004 -228.5 l 257
 1001.33 -229.383 996.947 -229.75 993 -229.75 c 256
 936.651 -229.75 894 -177.438 894 -104 c 256
 894 -49.1621 917.944 5.75586 928 31 c 257
 862.903 -8.52344 817 -51.416 817 -116 c 256
 817 -175.112 851.753 -200.126 887 -206 c 257
 887 -228.25 l 257
 883.208 -229.427 872.885 -230.25 868 -230.25 c 256
 805.773 -230.25 758 -197.724 758 -132 c 256
 758 -78.6523 796.958 -41.1084 844 1 c 257
 830.824 -0.908203 816.95 -1 811.25 -1 c 256
 673.683 -1 603 69 603 169 c 260
307 273 m 257
 289.667 258.333 270 234.667 254 212 c 256
 225.333 171.333 205.667 131.667 195 95 c 257
 201 98.333 207.333 100 214 100 c 256
 243 100 267 71 324 71 c 256
 375.183 71 406 101.864 406 162 c 256
 406 164.209 406.041 161.305 406 163 c 257
 432 163 l 257
 431.964 161.664 432 163.33 432 162 c 256
 432 96.9268 459 71 517 71 c 256
 579.089 71 599 123 599 159 c 256
 599 242 525.879 291 423 291 c 256
 366.333 291 328 282 307 273 c 257
146 22 m 257
 153.696 91.2695 199.452 184.165 234 232 c 256
 260 268 275 282 293 301 c 257
 305 314 318 330 318 352 c 256
 318 374 308.408 392 283 392 c 256
 269 392 247.479 384.287 241 363 c 256
 234 340 237.653 340.109 231 323 c 256
 224 305 209 297 194 297 c 256
 160 297 154 328 154 340 c 256
 154 394.099 204.363 433 261 433 c 256
 310.712 433 345.079 402 345.079 356 c 256
 345.079 351.468 344.724 345.795 344 341 c 257
 372.357 362.046 409.339 388.188 480 412 c 256
 550.91 435.896 608.2 442 689.25 442 c 256
 715.792 442 783.74 439.389 827.5 427.25 c 257
 725.25 413.5 l 257
 714.28 414.815 693.462 415 683.25 415 c 256
 633.816 415 596.183 410.734 564 405 c 256
 480.979 390.21 419.011 364.724 344 308 c 257
 368 314 399.667 316 427 316 c 256
 547 316 640 251 640 126 c 256
 640 67.8477 607 -1 522 -1 c 256
 476 -1 442.333 20.333 421 63 c 257
 403.667 21.667 371.021 -1 329 -1 c 256
 242 -1 245 73 212 73 c 256
 189.675 73 175 51 172 11 c 257
 146 22 l 257
27 221 m 256
 27 352.7 99.7559 434.25 239 434.25 c 256
 248 434.25 271 434.25 293 428.25 c 257
 272 417.25 194 406.5 177 400.5 c 257
 102 382.5 56 319.268 56 218 c 256
 56 137.333 83 75.333 135 30 c 257
 135 0 l 257
 68.5828 33.2086 27 120.07 27 221 c 256
EndSplineSet
EndChar

StartChar: si_NyAee
Encoding: 173 -1 5
GlifName: N_ameM_e.564
Width: 1018
VWidth: 0
Flags: HW
LayerCount: 2
Back
Fore
SplineSet
603 169 m 260
 603 274 676 317 795 317 c 258
 915 317 l 257
 905.276 363.186 853.5 396 809.5 396 c 256
 790.5 396 774.549 383.911 766 366 c 256
 755.5 344 739.302 336 724.5 336 c 256
 699.5 336 686.5 351 686.5 372 c 256
 686.5 408.283 726.5 433 781.5 433 c 256
 867.239 433 932.904 389.003 951 294 c 257
 814 294 l 258
 726 294 680 257 680 173 c 256
 680 89 746.599 26 831.25 26 c 256
 881.703 26 916 46 956 92 c 257
 975 76 l 257
 974.73 68.5654 925.5 28 925.5 28 c 257
 998 28 l 257
 998 4.75 l 257
 934.25 -36 l 257
 996 -36 l 257
 996 -58 l 257
 974.127 -65.6641 950 -92.0703 950 -136 c 256
 950 -176.404 969.111 -204.25 1004 -204.25 c 257
 1004 -228.5 l 257
 1001.33 -229.383 996.947 -229.75 993 -229.75 c 256
 936.651 -229.75 895.25 -187.072 895.25 -142 c 256
 895.25 -102.948 921.094 -73.2598 952 -59.5 c 257
 951.743 -59.8086 884 -60 884 -60 c 257
 884 -40 l 257
 907.441 -25.7754 931.179 -9.8457 955.25 3.75 c 257
 953.147 3.75 886.25 3.75 886.25 3.75 c 257
 866.908 -12.3477 817 -51.416 817 -116 c 256
 817 -175.112 851.753 -200.126 887 -206 c 257
 887 -228.25 l 257
 883.208 -229.427 872.885 -230.25 868 -230.25 c 256
 805.773 -230.25 758 -197.724 758 -132 c 256
 758 -78.6523 796.958 -41.1084 844 1 c 257
 830.824 -0.908203 816.95 -1 811.25 -1 c 256
 673.683 -1 603 69 603 169 c 260
307 273 m 257
 289.667 258.333 270 234.667 254 212 c 256
 225.333 171.333 205.667 131.667 195 95 c 257
 201 98.333 207.333 100 214 100 c 256
 243 100 267 71 324 71 c 256
 375.183 71 406 101.864 406 162 c 256
 406 164.209 406.041 161.305 406 163 c 257
 432 163 l 257
 431.964 161.664 432 163.33 432 162 c 256
 432 96.9268 459 71 517 71 c 256
 579.089 71 599 123 599 159 c 256
 599 242 525.879 291 423 291 c 256
 366.333 291 328 282 307 273 c 257
146 22 m 257
 153.696 91.2695 199.452 184.165 234 232 c 256
 260 268 275 282 293 301 c 257
 305 314 318 330 318 352 c 256
 318 374 308.408 392 283 392 c 256
 269 392 247.479 384.287 241 363 c 256
 234 340 237.653 340.109 231 323 c 256
 224 305 209 297 194 297 c 256
 160 297 154 328 154 340 c 256
 154 394.099 204.363 433 261 433 c 256
 310.712 433 345.079 402 345.079 356 c 256
 345.079 351.468 344.724 345.795 344 341 c 257
 372.357 362.046 409.339 388.188 480 412 c 256
 550.91 435.896 608.2 442 689.25 442 c 256
 715.792 442 783.74 439.389 827.5 427.25 c 257
 725.25 413.5 l 257
 714.28 414.815 693.462 415 683.25 415 c 256
 633.816 415 596.183 410.734 564 405 c 256
 480.979 390.21 419.011 364.724 344 308 c 257
 368 314 399.667 316 427 316 c 256
 547 316 640 251 640 126 c 256
 640 67.8477 607 -1 522 -1 c 256
 476 -1 442.333 20.333 421 63 c 257
 403.667 21.667 371.021 -1 329 -1 c 256
 242 -1 245 73 212 73 c 256
 189.675 73 175 51 172 11 c 257
 146 22 l 257
27 221 m 256
 27 352.7 99.7559 434.25 239 434.25 c 256
 248 434.25 271 434.25 293 428.25 c 257
 272 417.25 194 406.5 177 400.5 c 257
 102 382.5 56 319.268 56 218 c 256
 56 137.333 83 75.333 135 30 c 257
 135 0 l 257
 68.5828 33.2086 27 120.07 27 221 c 256
EndSplineSet
EndChar

StartChar: zwj
Encoding: 83 8205 6
GlifName: zwj
Width: 0
VWidth: 0
Flags: W
LayerCount: 2
Back
Fore
SplineSet
26.7271 655.044 m 257
 151.271 532 l 257
 124.043 505.099 l 257
 19.5 609.642 l 257
 19.5 9.5 l 257
 -19.5 9.5 l 257
 -19.5 609.642 l 257
 -124.043 505.099 l 257
 -151.271 532 l 257
 -26.7271 655.044 l 257
 -151.227 776.544 l 257
 -124.043 803.401 l 257
 -0 679.358 l 257
 124.043 803.401 l 257
 151.227 776.544 l 257
 26.7271 655.044 l 257
EndSplineSet
EndChar

StartChar: zwnj
Encoding: 82 8204 7
GlifName: zwnj
Width: 0
VWidth: 0
Flags: W
LayerCount: 2
Back
Fore
SplineSet
-19.5 9.25 m 257
 -19.5 760.75 l 257
 19.5 760.75 l 257
 19.5 9.25 l 257
 -19.5 9.25 l 257
EndSplineSet
EndChar

StartChar: si_B.halant
Encoding: 314 -1 8
GlifName: si_B_.halant
Width: 619
VWidth: 0
Flags: W
LayerCount: 2
Back
Fore
SplineSet
101 76 m 256
 101 50 124 27 150 27 c 256
 176 27 199 50 199 76 c 256
 199 102 176 125 150 125 c 256
 124 125 101 102 101 76 c 256
137 543 m 256
 137 531 161 526 161 515 c 256
 161 513 160 510 158 508 c 257
 191 514 231 519 277 519 c 256
 385 519 477 485 525 422 c 257
 492 537 398 590 282 590 c 256
 210 590 137 567 137 543 c 256
33 187 m 256
 33 314 120 396 247 396 c 256
 339 396 423 345 423 257 c 256
 423 126 304 167 304 101 c 256
 304 76 320 64 351 64 c 256
 465 64 533 189 533 289 c 256
 533 428.208 424.361 494 269 494 c 256
 232.895 494 197.693 490.84 162 483.449 c 256
 122.56 475.282 82.5199 461.948 40 442 c 257
 40 473 l 257
 72 485 124 499 124 508 c 256
 124 520 96 524 96 546 c 256
 96 583 161 629 276 629 c 256
 484 629 555 490 567 356 c 256
 570 343 575 300 575 267 c 256
 574 138 517 -2 381 -2 c 256
 321 -2 273 35 273 94 c 256
 273 186 388 156 388 237 c 256
 388 296 309 320 237 320 c 256
 146 320 64 267 64 162 c 256
 64 136 69 106 77 91 c 257
 81 126 109 153 150 153 c 256
 193 153 229 119 229 77 c 256
 229 29 190 -1 150 -1 c 256
 68 -1 33 91 33 187 c 256
EndSplineSet
EndChar

StartChar: si_BI
Encoding: 315 -1 9
GlifName: si_B_I_
Width: 619
VWidth: 0
Flags: W
LayerCount: 2
Back
Fore
SplineSet
66.75 562 m 256
 66.75 652 197.75 670 297.75 670 c 256
 433.75 670 543.75 639 543.75 554 c 256
 543.75 502 489.75 480 455.75 474 c 257
 405.75 490 l 257
 441.75 491 496.75 506 496.75 544 c 256
 496.75 600.273 405.75 611 297.75 611 c 256
 222.094 611 108.75 605.886 108.75 554 c 256
 108.75 508 173.75 508 275.75 504 c 256
 340.619 501.456 434.75 499 489.75 459 c 256
 538.896 423.257 574.75 356 574.75 274 c 257
 535.75 297 l 257
 535.75 338.152 524.563 383.562 496.75 414 c 256
 443.75 472 377.769 472.325 276.75 478 c 256
 187.75 483 66.75 476 66.75 562 c 256
101.49 76 m 256
 101.49 49.54 123.54 27.4902 150 27.4902 c 256
 176.46 27.4902 198.51 49.54 198.51 76 c 256
 198.51 102.46 176.46 124.51 150 124.51 c 256
 123.54 124.51 101.49 102.46 101.49 76 c 256
33 187 m 256
 33 313.688 120.107 396 247 396 c 256
 338.787 396 423 344.764 423 257 c 256
 423 126 304 167 304 101 c 256
 304 76.3333 319.667 64 351 64 c 256
 461.835 64 535.75 189.949 535.75 301 c 257
 553.945 292.76 559.767 282.412 574.75 278 c 257
 574.75 140.209 518.06 -2 381 -2 c 256
 321.202 -2 273 34.5566 273 94 c 256
 273 186 388 156 388 237 c 256
 388 296 308.91 320 237 320 c 256
 146 320 64 267 64 162 c 256
 64 136 69 106 77 91 c 257
 81 126 109.438 153 150 153 c 256
 193 153 229 119 229 77 c 256
 229 29 190 -1 150 -1 c 256
 68 -1 33 91.123 33 187 c 256
EndSplineSet
EndChar

StartChar: si_BIi
Encoding: 316 -1 10
GlifName: si_B_I_i
Width: 619
VWidth: 0
Flags: W
LayerCount: 2
Back
Fore
SplineSet
391.447 555 m 256
 391.447 524.818 418.617 500.543 451.75 500.543 c 256
 484.883 500.543 512.053 524.818 512.053 555 c 256
 512.053 585.182 484.883 609.457 451.75 609.457 c 256
 418.617 609.457 391.447 585.182 391.447 555 c 256
66.75 562 m 256
 66.75 652 197.75 670 297.75 670 c 256
 433.75 670 543.75 639 543.75 558 c 256
 543.75 505 495.75 474 451.75 474 c 256
 407.75 474 359.75 505 359.75 558 c 256
 359.75 583 372.75 600 378.75 608 c 257
 371.75 609 339.962 611 297.75 611 c 256
 222.094 611 108.75 605.886 108.75 554 c 256
 108.75 508 173.75 508 275.75 504 c 256
 340.619 501.456 434.75 499 489.75 459 c 256
 538.896 423.257 574.75 358.553 574.75 274 c 257
 574.75 274 544 281 535.75 296.25 c 257
 535.737 338.574 524.563 383.562 496.75 414 c 256
 443.75 472 377.769 472.325 276.75 478 c 256
 187.75 483 66.75 476 66.75 562 c 256
101.49 76 m 256
 101.49 49.54 123.54 27.4902 150 27.4902 c 256
 176.46 27.4902 198.51 49.54 198.51 76 c 256
 198.51 102.46 176.46 124.51 150 124.51 c 256
 123.54 124.51 101.49 102.46 101.49 76 c 256
33 187 m 256
 33 313.688 120.107 396 247 396 c 256
 338.787 396 423 344.764 423 257 c 256
 423 126 304 167 304 101 c 256
 304 76.3333 319.667 64 351 64 c 256
 461.835 64 535.75 189.949 535.75 301 c 257
 553.945 292.76 559.767 282.412 574.75 278 c 257
 574.75 140.209 518.06 -2 381 -2 c 256
 321.202 -2 273 34.5566 273 94 c 256
 273 186 388 156 388 237 c 256
 388 296 308.91 320 237 320 c 256
 146 320 64 267 64 162 c 256
 64 136 69 106 77 91 c 257
 81 126 109.438 153 150 153 c 256
 193 153 229 119 229 77 c 256
 229 29 190 -1 150 -1 c 256
 68 -1 33 91.123 33 187 c 256
EndSplineSet
EndChar

StartChar: si_BRI
Encoding: 321 -1 11
GlifName: si_B_R_I_
Width: 619
VWidth: 0
Flags: W
LayerCount: 2
Back
Fore
SplineSet
58.1396 -44 m 257
 86.8301 -44 l 257
 121.103 -119.333 185.857 -157 288.03 -157 c 256
 426.74 -157 537.95 -87.1421 537.95 50 c 256
 537.95 71 533.1 93 526.31 102 c 257
 542.17 133 l 257
 559.63 106.333 568.36 74.667 568.36 38 c 256
 568.36 -123.729 443.23 -219 303.55 -219 c 256
 174.54 -219 94.3525 -153.333 58.1396 -44 c 257
EndSplineSet
Refer: 9 -1 N 1 0 0 1 0 0 2
EndChar

StartChar: si_BRIi
Encoding: 322 -1 12
GlifName: si_B_R_I_i
Width: 619
VWidth: 0
Flags: W
LayerCount: 2
Back
Fore
SplineSet
58.1396 -44 m 257
 86.8301 -44 l 257
 121.103 -119.333 185.857 -157 288.03 -157 c 256
 426.74 -157 537.95 -87.1421 537.95 50 c 256
 537.95 71 533.1 93 526.31 102 c 257
 542.17 133 l 257
 559.63 106.333 568.36 74.667 568.36 38 c 256
 568.36 -123.729 443.23 -219 303.55 -219 c 256
 174.54 -219 94.3525 -153.333 58.1396 -44 c 257
EndSplineSet
Refer: 10 -1 N 1 0 0 1 0 0 2
EndChar

StartChar: si_BRa
Encoding: 320 -1 13
GlifName: si_B_R_a
Width: 619
VWidth: 0
Flags: W
LayerCount: 2
Back
Fore
SplineSet
58.1396 -44 m 257
 86.8301 -44 l 257
 121.103 -119.333 185.857 -157 288.03 -157 c 256
 426.74 -157 537.95 -87.1421 537.95 50 c 256
 537.95 71 533.1 93 526.31 102 c 257
 542.17 133 l 257
 559.63 106.333 568.36 74.667 568.36 38 c 256
 568.36 -123.729 443.23 -219 303.55 -219 c 256
 174.54 -219 94.3525 -153.333 58.1396 -44 c 257
EndSplineSet
Refer: 466 3510 N 1 0 0 1 0 0 2
EndChar

StartChar: si_BU
Encoding: 317 -1 14
GlifName: si_B_U_
Width: 619
VWidth: 0
Flags: W
LayerCount: 2
Back
Fore
SplineSet
49.25 -142.5 m 256
 49.25 -90.4912 95.543 -50.5 150.75 -50.5 c 256
 192.656 -50.5 230 -74.1416 244.75 -110 c 257
 214.75 -121.5 l 257
 207.732 -101.896 183.75 -80 150.75 -80 c 256
 114.046 -80 82.75 -106.714 82.75 -142.5 c 256
 82.75 -171.663 106.134 -199 171.75 -199 c 258
 532.5 -199 l 257
 532.5 128 l 257
 565.5 219 l 257
 565.5 -235 l 257
 154.75 -235 l 258
 85.5898 -235 49.25 -186.092 49.25 -142.5 c 256
EndSplineSet
Refer: 466 3510 N 1 0 0 1 0 0 2
EndChar

StartChar: si_BUu
Encoding: 318 -1 15
GlifName: si_B_U_u
Width: 619
VWidth: 0
Flags: W
LayerCount: 2
Back
Fore
SplineSet
49.25 -138 m 256
 49.25 -80 98.25 -40 151.25 -40 c 256
 193.25 -40 225.583 -55 248.25 -91 c 257
 218.25 -102 l 257
 206.25 -83 185.25 -68 156.25 -68 c 256
 117.25 -68 85.25 -92 85.25 -129 c 256
 85.25 -166.366 116.25 -191 159.25 -191 c 256
 243.25 -191 318.25 -117 413.25 -117 c 256
 456.25 -117 505.25 -136 532.25 -168 c 257
 532.25 152 l 257
 565.25 212 l 257
 565.25 -231 l 257
 542.25 -231 l 257
 527.25 -195 484.25 -144 416.25 -144 c 256
 325.25 -144 258.25 -237 160.25 -237 c 256
 105.25 -237 49.25 -206 49.25 -138 c 256
EndSplineSet
Refer: 466 3510 N 1 0 0 1 0 0 2
EndChar

StartChar: si_Bh.halant
Encoding: 323 -1 17
GlifName: si_B_h.halant
Width: 670
VWidth: 0
Flags: W
LayerCount: 2
Back
Fore
SplineSet
468 387 m 257
 468 681 l 257
 522 639 618 634 618 542 c 256
 618 498 583.191 468 540 468 c 256
 525.333 468 510.333 471.333 495 478 c 257
 495 370 l 257
 468 387 l 257
495 503 m 257
 503.667 498.333 514.667 496 528 496 c 256
 566 496 581 521 581 545 c 256
 581 587 542 607 495 638 c 257
 495 503 l 257
EndSplineSet
Refer: 467 3511 N 1 0 0 1 0 0 2
EndChar

StartChar: si_BhI
Encoding: 324 -1 18
GlifName: si_B_hI_
Width: 670
VWidth: 0
Flags: W
LayerCount: 2
Back
Fore
SplineSet
178.25 537 m 256
 178.25 628 277.234 667 379.25 667 c 256
 484.595 667 587.25 618 587.25 523 c 256
 587.25 461 548.25 415 467.25 409 c 257
 449.25 431 l 257
 451.943 430.867 454.61 430.806 457.25 430.806 c 256
 515.25 430.806 558.25 462.296 558.25 512 c 256
 558.25 576.843 458.924 598 379.25 598 c 256
 297.777 598 219.25 568 219.25 516 c 256
 219.25 455.697 353.25 431.5 439.25 431.492 c 256
 440.256 431.492 440.256 431.494 441.25 431.5 c 257
 425.25 410.25 l 257
 265.25 413.583 178.25 462 178.25 537 c 256
EndSplineSet
Refer: 467 3511 N 1 0 0 1 0 0 2
EndChar

StartChar: si_BhIi
Encoding: 325 -1 19
GlifName: si_B_hI_i
Width: 670
VWidth: 0
Flags: W
LayerCount: 2
Back
Fore
SplineSet
419.213 520 m 256
 419.213 485.756 449.963 457.802 488.4 457.802 c 256
 526.838 457.802 557.588 485.756 557.588 520 c 256
 557.588 554.244 526.838 582.198 488.4 582.198 c 256
 449.963 582.198 419.213 554.244 419.213 520 c 256
178.4 537 m 256
 178.4 628 277.385 667 379.4 667 c 256
 484.745 667 587.4 618 587.4 525 c 256
 587.4 456 529.4 431 486.4 431 c 256
 442.4 431 389.4 464 389.4 519 c 256
 389.4 564.604 423.4 591 439.4 593.824 c 257
 417.4 597 403.04 598 379.4 598 c 256
 297.928 598 219.4 568 219.4 516 c 256
 219.4 455.697 353.4 431.5 439.4 431.492 c 256
 440.406 431.492 440.406 431.494 441.4 431.5 c 257
 425.4 408.75 l 257
 265.4 412.083 178.4 462 178.4 537 c 256
EndSplineSet
Refer: 467 3511 N 1 0 0 1 0 0 2
EndChar

StartChar: si_BhRI
Encoding: 330 -1 20
GlifName: si_B_hR_I_
Width: 670
VWidth: 0
Flags: W
LayerCount: 2
Back
Fore
SplineSet
75.75 -44 m 257
 102.75 -44 l 257
 138.083 -119.333 207.417 -157 312.75 -157 c 256
 455.75 -157 573.75 -90 573.75 50 c 256
 573.75 71 568.75 93 561.75 102 c 257
 574.75 133 l 257
 592.75 106.333 601.75 74.667 601.75 38 c 256
 601.75 -123.729 472.75 -219 328.75 -219 c 256
 195.75 -219 113.083 -153.333 75.75 -44 c 257
EndSplineSet
Refer: 18 -1 N 1 0 0 1 0 0 2
EndChar

StartChar: si_BhRIi
Encoding: 331 -1 21
GlifName: si_B_hR_I_i
Width: 670
VWidth: 0
Flags: W
LayerCount: 2
Back
Fore
SplineSet
417.801 520 m 256
 417.801 485.057 449.179 456.532 488.4 456.532 c 256
 527.622 456.532 559 485.057 559 520 c 256
 559 554.943 527.622 583.468 488.4 583.468 c 256
 449.179 583.468 417.801 554.943 417.801 520 c 256
178.4 537 m 256
 178.4 628 277.385 667 379.4 667 c 256
 484.745 667 587.4 618 587.4 525 c 256
 587.4 456 529.4 431 486.4 431 c 256
 442.4 431 389.4 464 389.4 519 c 256
 389.4 564.604 423.4 591 439.4 593.824 c 257
 417.4 597 403.04 598 379.4 598 c 256
 297.928 598 219.4 568 219.4 516 c 256
 219.4 455.697 353.4 431.5 439.4 431.492 c 256
 440.406 431.492 440.406 431.494 441.4 431.5 c 257
 425.4 407.5 l 257
 265.4 410.833 178.4 462 178.4 537 c 256
75.75 -44 m 257
 102.75 -44 l 257
 138.083 -119.333 207.417 -157 312.75 -157 c 256
 455.75 -157 573.75 -90 573.75 50 c 256
 573.75 71 568.75 93 561.75 102 c 257
 574.75 133 l 257
 592.75 106.333 601.75 74.667 601.75 38 c 256
 601.75 -123.729 472.75 -219 328.75 -219 c 256
 195.75 -219 113.083 -153.333 75.75 -44 c 257
EndSplineSet
Refer: 467 3511 N 1 0 0 1 0 0 2
EndChar

StartChar: si_BhRa
Encoding: 329 -1 22
GlifName: si_B_hR_a
Width: 670
VWidth: 0
Flags: W
LayerCount: 2
Back
Fore
SplineSet
75.75 -44 m 257
 102.75 -44 l 257
 138.083 -119.333 207.417 -157 312.75 -157 c 256
 455.75 -157 573.75 -90 573.75 50 c 256
 573.75 71 568.75 93 561.75 102 c 257
 574.75 133 l 257
 592.75 106.333 601.75 74.667 601.75 38 c 256
 601.75 -123.729 472.75 -219 328.75 -219 c 256
 195.75 -219 113.083 -153.333 75.75 -44 c 257
EndSplineSet
Refer: 467 3511 N 1 0 0 1 0 0 2
EndChar

StartChar: si_BhU
Encoding: 326 -1 23
GlifName: si_B_hU_
Width: 670
VWidth: 0
Flags: W
LayerCount: 2
Back
Fore
SplineSet
6 271 m 257
 6 303 l 257
 212 303 l 257
 171 278 l 257
 140 278 l 258
 69 277 22 273.667 6 271 c 257
49.0234 364 m 256
 49.0234 394.208 77.7021 432.033 134.455 432.033 c 256
 213.35 432.033 253.805 360.444 255 278 c 257
 243 280 233 280.021 229 280.021 c 256
 163 280.021 85.75 245.325 85.75 175.359 c 256
 85.75 105.729 149.657 72 224 72 c 256
 290.437 72 346.111 100.488 346.111 164.323 c 256
 346.111 194.87 331 212.412 311 212.412 c 256
 297.518 212.412 283.754 203.011 277 182 c 257
 255 192 l 257
 264 317 345.087 432.01 446.302 432.01 c 256
 558.174 432.01 621.019 328.65 621.019 210.962 c 256
 621.019 96.8028 540.75 0 460.75 0 c 256
 450.75 0 428.75 -2 414.75 -8 c 257
 404.75 18 l 257
 423.75 26 441.75 27 449.75 27 c 256
 512.75 27 573.147 98.605 573.147 192.821 c 256
 573.147 288.169 520.794 362 430 362 c 256
 356.667 362 309 317.667 287 229 c 257
 296.835 234.532 306.634 237.17 316 237.17 c 256
 354 237.17 382.163 199.14 382.163 145.35 c 256
 382.163 52.9932 311.501 -0.762695 217.033 -0.762695 c 256
 119.482 -0.762695 48.9551 61.0615 48.9551 155.113 c 256
 48.9551 253 148 303.353 218 303.353 c 256
 221.958 303.353 217.959 303.224 222 303 c 257
 222 345.316 198 383.056 160.457 383.056 c 256
 139.505 383.056 127.798 370.856 122 355.692 c 256
 116 340 102.673 327.24 81.8027 327.24 c 256
 62 327.24 49.0234 341 49.0234 364 c 256
340.75 -80 m 256
 340.75 -30 370.75 9 413.75 21 c 257
 419.75 -6 l 257
 397.75 -14 378.75 -34 378.75 -63 c 256
 378.75 -109.283 428.798 -132 480.25 -132 c 256
 541.25 -132 588.442 -93.7344 588.442 -45 c 256
 588.442 -42.0391 588.169 -39.0381 587.75 -36 c 257
 617.75 -36 l 257
 620.104 -45.416 620.185 -60.29 620.185 -69.5 c 256
 620.185 -122.146 576.451 -191.5 475.75 -191.5 c 256
 409.111 -191.5 340.75 -149.233 340.75 -80 c 256
EndSplineSet
EndChar

StartChar: si_BhUu
Encoding: 327 -1 24
GlifName: si_B_hU_u
Width: 670
VWidth: 0
Flags: W
LayerCount: 2
Back
Fore
SplineSet
373.021 -129 m 256
 373.021 -93.3486 404.584 -72 437.021 -67 c 257
 382.021 -39 l 257
 469.021 -14 l 257
 375.521 1 l 257
 424.021 13 l 257
 543.521 -7 l 257
 438.521 -44 l 257
 498.021 -76 l 257
 470.021 -83 413.021 -85.5 413.021 -115 c 256
 413.021 -146 454.945 -155 497.021 -155 c 256
 551.021 -155 596.75 -131 596.75 -82 c 256
 596.75 -77 596.215 -69.3867 591.021 -59 c 257
 624.021 -59 l 257
 627.612 -71.1182 628.325 -82.833 628.325 -94 c 256
 628.325 -161 577.021 -205 495.021 -205 c 256
 437.021 -205 373.021 -187.466 373.021 -129 c 256
EndSplineSet
Refer: 467 3511 N 1 0 0 1 0 0 2
EndChar

StartChar: si_Bha.reph
Encoding: 328 -1 25
GlifName: si_B_ha.reph
Width: 670
VWidth: 0
Flags: W
LayerCount: 2
Back
Fore
SplineSet
296.086 511 m 256
 296.086 490.446 314.684 473.807 337 473.807 c 256
 359.316 473.807 377.914 490.446 377.914 511 c 256
 377.914 531.554 359.316 548.193 337 548.193 c 256
 314.684 548.193 296.086 531.554 296.086 511 c 256
194 530 m 256
 194 594 252.12 631 334 631 c 256
 411 631 475 588 475 517 c 256
 475 493 466.667 471.333 450 452 c 257
 416.25 452 l 257
 429.42 464.387 444.75 488.734 444.75 516 c 256
 444.75 573.241 394 603.75 333 603.75 c 256
 280.222 603.75 225.25 582.556 225.25 530 c 256
 225.25 490.925 266.304 472.216 289.5 470.25 c 257
 281.5 476.25 269 491 269 512 c 256
 269 547 300.354 572 336 572 c 256
 377 572 405 545 405 510 c 256
 405 471 370 445 312 445 c 256
 253 445 194 474 194 530 c 256
EndSplineSet
Refer: 467 3511 N 1 0 0 1 0 0 2
EndChar

StartChar: si_C.halant
Encoding: 136 -1 26
GlifName: si_C_.halant
Width: 621
VWidth: 0
Flags: W
LayerCount: 2
Back
Fore
SplineSet
139 543 m 256
 139 531 163 526 163 515 c 256
 163 513 162 510 160 508 c 257
 193 514 232.675 519 279 519 c 256
 387 519 479 485 527 422 c 257
 494 537 400 590 284 590 c 256
 212 590 139 567 139 543 c 256
42 442 m 257
 42 473 l 257
 74 485 126 499 126 508 c 256
 126 520 98 524 98 546 c 256
 98 583 163 629 278 629 c 256
 486 629 557 490 569 356 c 257
 572 343 577 301 577 267 c 257
 539 279 l 257
 539 287 538.826 294 538.826 298 c 256
 538.826 413 446 493.75 271 493.75 c 256
 195 493.75 123 480 42 442 c 257
64 165 m 256
 64 195.721 73.7754 227.831 97 248 c 256
 113.127 262.005 132 273 158 278 c 257
 191.761 290.199 232.875 302 270 302 c 258
 287 302 l 257
 287.082 304.041 287.086 306.041 287.086 308 c 256
 287.086 362 254.125 395 215 395 c 256
 168.945 395 162.453 371 157.5 355 c 256
 151.542 335.755 141.371 323 119.5 323 c 256
 103.5 323 83 333.868 83 359.5 c 256
 83 404.312 133 431.5 188 431.5 c 256
 276 431.5 319.146 376 319.146 290 c 256
 319.146 286.722 319.101 280.388 319 277 c 257
 250 277 l 258
 205.56 277 166.117 264.814 141 249 c 256
 114 232 101 206.051 101 180 c 256
 101 94 208 71 298 71 c 256
 451 71 539 156 539 304 c 257
 577 274 l 257
 577 114 478 0 295 0 c 256
 174 0 64 46 64 165 c 256
14 270 m 257
 14 302 l 257
 285 302 l 257
 315 277 l 257
 148 277 l 258
 77 276 30 272.667 14 270 c 257
EndSplineSet
EndChar

StartChar: si_CI
Encoding: 137 -1 27
GlifName: si_C_I_
Width: 621
VWidth: 0
Flags: W
LayerCount: 2
Back
Fore
SplineSet
69 562 m 256
 69 652 200 670 300 670 c 256
 436 670 546 639 546 554 c 256
 546 502 492 480 458 474 c 257
 408 490 l 257
 444 491 499 506 499 544 c 256
 499 600.273 408 611 300 611 c 256
 224.344 611 111 605.886 111 554 c 256
 111 508 176 508 278 504 c 256
 342.869 501.456 437 499 492 459 c 256
 541.146 423.257 577 356 577 274 c 257
 538 297 l 257
 538 338.153 526.813 383.562 499 414 c 256
 446 472 380.019 472.325 279 478 c 256
 190 483 69 476 69 562 c 256
64 165 m 256
 64 195.721 73.7754 227.831 97 248 c 256
 113.127 262.005 132 273 158 278 c 257
 191.761 290.199 232.875 302 270 302 c 258
 287 302 l 257
 287.082 304.041 287.086 306.041 287.086 308 c 256
 287.086 362 254.125 395 215 395 c 256
 168.945 395 162.453 371 157.5 355 c 256
 151.542 335.755 141.371 323 119.5 323 c 256
 103.5 323 83 333.868 83 359.5 c 256
 83 404.312 133 431.5 188 431.5 c 256
 276 431.5 319.146 376 319.146 290 c 256
 319.146 286.722 319.101 280.388 319 277 c 257
 250 277 l 258
 205.56 277 166.117 264.814 141 249 c 256
 114 232 101 206.051 101 180 c 256
 101 94 208 71 298 71 c 256
 451 71 538 156 538 304 c 257
 577 274 l 257
 577 114 478 0 295 0 c 256
 174 0 64 46 64 165 c 256
14 270 m 257
 14 302 l 257
 285 302 l 257
 315 277 l 257
 148 277 l 258
 77 276 30 272.667 14 270 c 257
EndSplineSet
EndChar

StartChar: si_CIi
Encoding: 138 -1 28
GlifName: si_C_I_i
Width: 621
VWidth: 0
Flags: W
LayerCount: 2
Back
Fore
SplineSet
393.697 555 m 256
 393.697 524.818 420.867 500.543 454 500.543 c 256
 487.133 500.543 514.303 524.818 514.303 555 c 256
 514.303 585.182 487.133 609.457 454 609.457 c 256
 420.867 609.457 393.697 585.182 393.697 555 c 256
69 562 m 256
 69 652 200 670 300 670 c 256
 436 670 546 639 546 558 c 256
 546 505 498 474 454 474 c 256
 410 474 362 505 362 558 c 256
 362 583 375 600 381 608 c 257
 374 609 342.212 611 300 611 c 256
 224.344 611 111 605.886 111 554 c 256
 111 508 176 508 278 504 c 256
 342.869 501.456 437 499 492 459 c 256
 541.146 423.257 577 358.552 577 274 c 257
 538 286 l 257
 538 332.617 526.813 383.562 499 414 c 256
 446 472 380.019 472.325 279 478 c 256
 190 483 69 476 69 562 c 256
64 165 m 256
 64 195.721 73.7754 227.831 97 248 c 256
 113.127 262.005 132 273 158 278 c 257
 191.761 290.199 232.875 302 270 302 c 258
 287 302 l 257
 287.082 304.041 287.086 306.041 287.086 308 c 256
 287.086 362 254.125 395 215 395 c 256
 168.945 395 162.453 371 157.5 355 c 256
 151.542 335.755 141.371 323 119.5 323 c 256
 103.5 323 83 333.868 83 359.5 c 256
 83 404.312 133 431.5 188 431.5 c 256
 276 431.5 319.146 376 319.146 290 c 256
 319.146 286.722 319.101 280.388 319 277 c 257
 250 277 l 258
 205.56 277 166.117 264.814 141 249 c 256
 114 232 101 206.051 101 180 c 256
 101 94 208 71 298 71 c 256
 451 71 538 156 538 304 c 257
 577 274 l 257
 577 114 478 0 295 0 c 256
 174 0 64 46 64 165 c 256
14 270 m 257
 14 302 l 257
 285 302 l 257
 315 277 l 257
 148 277 l 258
 77 276 30 272.667 14 270 c 257
EndSplineSet
EndChar

StartChar: si_CRI
Encoding: 143 -1 29
GlifName: si_C_R_I_
Width: 621
VWidth: 0
Flags: W
LayerCount: 2
Back
Fore
SplineSet
56.5 -44 m 257
 83.5 -44 l 257
 118.833 -119.333 186.167 -157 291.5 -157 c 256
 434.5 -157 548.5 -90 548.5 50 c 256
 548.5 71 542.309 98.9001 529 112 c 257
 545 140 l 257
 567.976 107.27 576.5 74.667 576.5 38 c 256
 576.5 -123.729 451.5 -219 307.5 -219 c 256
 174.5 -219 93.833 -153.333 56.5 -44 c 257
EndSplineSet
Refer: 27 -1 N 1 0 0 1 0 0 2
EndChar

StartChar: si_CRIi
Encoding: 144 -1 30
GlifName: si_C_R_I_i
Width: 621
VWidth: 0
Flags: W
LayerCount: 2
Back
Fore
SplineSet
56.5 -44 m 257
 83.5 -44 l 257
 118.833 -119.333 186.167 -157 291.5 -157 c 256
 434.5 -157 548.5 -90 548.5 50 c 256
 548.5 71 542.309 98.9001 529 112 c 257
 545 140 l 257
 567.976 107.27 576.5 74.667 576.5 38 c 256
 576.5 -123.729 451.5 -219 307.5 -219 c 256
 174.5 -219 93.833 -153.333 56.5 -44 c 257
EndSplineSet
Refer: 28 -1 N 1 0 0 1 0 0 2
EndChar

StartChar: si_CRa
Encoding: 142 -1 31
GlifName: si_C_R_a
Width: 597
VWidth: 0
Flags: W
LayerCount: 2
Back
Fore
SplineSet
56.5 -44 m 257
 83.5 -44 l 257
 118.833 -119.333 186.167 -157 291.5 -157 c 256
 434.5 -157 548.5 -90 548.5 50 c 256
 548.5 71 542.309 98.9001 529 112 c 257
 545 140 l 257
 567.976 107.27 576.5 74.667 576.5 38 c 256
 576.5 -123.729 451.5 -219 307.5 -219 c 256
 174.5 -219 93.833 -153.333 56.5 -44 c 257
EndSplineSet
Refer: 445 3488 N 1 0 0 1 0 0 2
EndChar

StartChar: si_CU
Encoding: 139 -1 32
GlifName: si_C_U_
Width: 597
VWidth: 0
Flags: W
LayerCount: 2
Back
Fore
SplineSet
70.5 -142.5 m 256
 70.5 -90.4912 116.793 -50.5 172 -50.5 c 256
 213.906 -50.5 251.25 -74.1416 266 -110 c 257
 236 -121.5 l 257
 228.982 -101.896 205 -80 172 -80 c 256
 135.296 -80 104 -106.714 104 -142.5 c 256
 104 -171.663 127.384 -199 193 -199 c 258
 533 -199 l 257
 533 128 l 257
 566 219 l 257
 566 -235 l 257
 176 -235 l 258
 106.84 -235 70.5 -186.092 70.5 -142.5 c 256
EndSplineSet
Refer: 445 3488 N 1 0 0 1 0 0 2
EndChar

StartChar: si_CUu
Encoding: 140 -1 33
GlifName: si_C_U_u
Width: 597
VWidth: 0
Flags: W
LayerCount: 2
Back
Fore
SplineSet
70.5 -138 m 256
 70.5 -80 119.5 -40 172.5 -40 c 256
 214.5 -40 246.833 -55 269.5 -91 c 257
 239.5 -102 l 257
 227.5 -83 206.5 -68 177.5 -68 c 256
 138.5 -68 106.5 -92 106.5 -129 c 256
 106.5 -166.366 137.5 -191 180.5 -191 c 256
 264.5 -191 328 -117 423 -117 c 256
 470.594 -117 506 -136 533 -168 c 257
 533 152 l 257
 566 212 l 257
 566 -231 l 257
 543 -231 l 257
 528 -195 490.875 -144 426 -144 c 256
 335 -144 279.5 -237 181.5 -237 c 256
 126.5 -237 70.5 -206 70.5 -138 c 256
EndSplineSet
Refer: 445 3488 N 1 0 0 1 0 0 2
EndChar

StartChar: si_Ca.reph
Encoding: 141 -1 34
GlifName: si_C_a.reph
Width: 597
VWidth: 0
Flags: W
LayerCount: 2
Back
Fore
SplineSet
273.586 627.5 m 256
 273.586 606.946 292.184 590.307 314.5 590.307 c 256
 336.816 590.307 355.414 606.946 355.414 627.5 c 256
 355.414 648.054 336.816 664.693 314.5 664.693 c 256
 292.184 664.693 273.586 648.054 273.586 627.5 c 256
171.5 646.5 m 256
 171.5 710.5 229.62 747.5 311.5 747.5 c 256
 388.5 747.5 452.5 704.5 452.5 633.5 c 256
 452.5 609.5 444.167 587.833 427.5 568.5 c 257
 393.75 568.5 l 257
 406.92 580.887 422.25 605.234 422.25 632.5 c 256
 422.25 689.741 371.5 720.25 310.5 720.25 c 256
 257.722 720.25 202.75 699.056 202.75 646.5 c 256
 202.75 607.425 243.804 588.716 267 586.75 c 257
 259 592.75 246.5 607.5 246.5 628.5 c 256
 246.5 663.5 277.854 688.5 313.5 688.5 c 256
 354.5 688.5 382.5 661.5 382.5 626.5 c 256
 382.5 587.5 347.5 561.5 289.5 561.5 c 256
 230.5 561.5 171.5 590.5 171.5 646.5 c 256
EndSplineSet
Refer: 445 3488 N 1 0 0 1 0 0 2
EndChar

StartChar: si_Ch.halant
Encoding: 145 -1 35
GlifName: si_C_h.halant
Width: 598
VWidth: 0
Flags: W
LayerCount: 2
Back
Fore
SplineSet
289 356 m 257
 289 756.5 l 257
 346.218 709.157 436 704.481 436 626.5 c 256
 436 580.716 401.638 549.5 359 549.5 c 256
 344.659 549.5 329.992 551.833 315 556.5 c 257
 315 400 l 257
 289 356 l 257
315.105 580.773 m 257
 324.913 576.866 337.362 574.913 352.448 574.913 c 256
 385.157 574.913 399 598.905 399 621.938 c 256
 399 671.65 351.718 687.036 315.105 712.087 c 257
 315.105 580.773 l 257
EndSplineSet
Refer: 446 3489 N 1 0 0 1 0 0 2
EndChar

StartChar: si_ChI
Encoding: 146 -1 36
GlifName: si_C_hI_
Width: 598
VWidth: 0
Flags: W
LayerCount: 2
Back
Fore
SplineSet
233 489.5 m 256
 233 576.568 303.321 657 382 657 c 256
 428.882 657 460.703 626.416 460.705 583 c 256
 460.705 579.106 460.496 576.102 460 572 c 257
 459.982 571.995 430 544.016 430 544 c 257
 433.999 550.487 436.181 564.622 436.181 575.5 c 256
 436.181 604.328 424.158 622 393 622 c 256
 335.62 622 276.5 550.291 276.5 486 c 256
 276.5 454.192 290.994 429.027 332 429.026 c 256
 345.842 429.026 357.154 431.185 374 436 c 257
 373.999 435.978 370.001 425.001 370 425 c 257
 357.178 416.842 329.23 407.635 327 407 c 257
 325.947 406.999 324.051 406.952 323 406.952 c 256
 260.125 406.952 233 439.49 233 489.5 c 256
EndSplineSet
Refer: 446 3489 N 1 0 0 1 0 0 2
EndChar

StartChar: si_ChIi
Encoding: 147 -1 37
GlifName: si_C_hI_i
Width: 598
VWidth: 0
Flags: W
LayerCount: 2
Back
Fore
SplineSet
337.721 579 m 256
 337.721 551.832 359.332 530.221 386.5 530.221 c 256
 413.668 530.221 435.279 551.832 435.279 579 c 256
 435.279 606.168 413.668 627.779 386.5 627.779 c 256
 359.332 627.779 337.721 606.168 337.721 579 c 256
233 489.5 m 256
 233 576.568 303.261 656.5 386.75 656.5 c 256
 431.64 656.5 463.955 619.452 463.955 579 c 256
 463.955 540.549 433.976 501.5 386.75 501.5 c 256
 339.065 501.5 311.635 539.847 311.635 574.25 c 256
 311.635 574.75 311.712 576 311.75 576.75 c 257
 293.181 551.954 276.5 519.777 276.5 486 c 256
 276.5 454.192 290.994 429.027 332 429.026 c 256
 345.842 429.026 357.154 431.185 374 436 c 257
 373.999 435.978 370.001 425.001 370 425 c 257
 357.178 416.842 329.23 407.635 327 407 c 257
 325.947 406.999 324.051 406.952 323 406.952 c 256
 260.125 406.952 233 439.49 233 489.5 c 256
EndSplineSet
Refer: 446 3489 N 1 0 0 1 0 0 2
EndChar

StartChar: si_ChU
Encoding: 148 -1 38
GlifName: si_C_hU_
Width: 598
VWidth: 0
Flags: W
LayerCount: 2
Back
Fore
SplineSet
38.75 -142.5 m 256
 38.75 -90.4912 85.043 -50.5 140.25 -50.5 c 256
 182.156 -50.5 219.5 -74.1416 234.25 -110 c 257
 204.25 -121.5 l 257
 197.232 -101.896 173.25 -80 140.25 -80 c 256
 103.546 -80 72.25 -106.714 72.25 -142.5 c 256
 72.25 -171.663 95.6338 -199 161.25 -199 c 258
 507.5 -199 l 257
 507.5 128 l 257
 540.5 198 l 257
 540.5 -235 l 257
 144.25 -235 l 258
 75.0898 -235 38.75 -186.092 38.75 -142.5 c 256
EndSplineSet
Refer: 446 3489 N 1 0 0 1 0 0 2
EndChar

StartChar: si_ChUu
Encoding: 149 -1 39
GlifName: si_C_hU_u
Width: 598
VWidth: 0
Flags: W
LayerCount: 2
Back
Fore
SplineSet
39 -138 m 256
 39 -80 88 -40 141 -40 c 256
 183 -40 215.333 -55 238 -91 c 257
 208 -102 l 257
 196 -83 175 -68 146 -68 c 256
 107 -68 75 -92 75 -129 c 256
 75 -166.366 106 -191 149 -191 c 256
 233 -191 299.75 -117 394.75 -117 c 256
 442.344 -117 483.079 -137.891 507.75 -167.5 c 257
 507.75 140.75 l 257
 540.75 200.75 l 257
 540.75 -231 l 257
 517.75 -231 l 257
 502.75 -195 462.625 -144 397.75 -144 c 256
 306.75 -144 248 -237 150 -237 c 256
 95 -237 39 -206 39 -138 c 256
EndSplineSet
Refer: 446 3489 N 1 0 0 1 0 0 2
EndChar

StartChar: si_D.halant
Encoding: 254 -1 40
GlifName: si_D_.halant
Width: 456
VWidth: 0
Flags: W
LayerCount: 2
Back
Fore
SplineSet
264.5 412.75 m 257
 264.5 680 l 257
 318.5 638 414.5 633 414.5 541 c 256
 414.5 497 379.691 467 336.5 467 c 256
 321.833 467 306.833 470.333 291.5 477 c 257
 291.5 395.75 l 257
 264.5 412.75 l 257
291.5 502 m 257
 300.167 497.333 311.167 495 324.5 495 c 256
 362.5 495 377.5 520 377.5 544 c 256
 377.5 586 338.5 606 291.5 637 c 257
 291.5 502 l 257
EndSplineSet
Refer: 460 3503 N 1 0 0 1 0 0 2
EndChar

StartChar: si_DAa
Encoding: 255 -1 41
GlifName: si_D_A_a
Width: 456
VWidth: 0
Flags: W
LayerCount: 2
Back
Fore
SplineSet
31 169 m 256
 31 274 104 317 223 317 c 258
 343 317 l 257
 333.277 363.186 304 396 260 396 c 256
 241 396 225.048 383.911 216.5 366 c 256
 206 344 189.802 336 175 336 c 256
 150 336 137 351 137 372 c 256
 137 408.283 177 433 232 433 c 256
 317.739 433 360.904 389.003 379 294 c 257
 242 294 l 258
 154 294 108 257 108 173 c 256
 108 89 172.922 26.001 258 26 c 256
 307.967 26 349.5 46 389.5 92 c 257
 412.5 75 l 257
 392.5 58.333 376.117 41.1863 360.75 32.75 c 257
 364.083 33.417 362.25 33.5 366.25 33.5 c 256
 414.521 33.5 447 -17.8019 447 -87 c 256
 447 -175 407.117 -212.5 348 -212.5 c 256
 298.845 -212.5 282.5 -187.083 282.5 -166 c 257
 309.5 -166 l 257
 309.524 -176.228 319.351 -186.75 338.25 -186.75 c 256
 380.033 -186.75 390.5 -148.479 390.5 -87 c 256
 390.5 -42.0971 376.119 0 345 0 c 256
 315.87 0 304.318 -29.2295 304.25 -45 c 257
 277.25 -45 l 257
 277.297 -29.335 286.304 -6.04117 299 4 c 257
 271 -0.666992 254.667 -1 234 -1 c 256
 103 -1 31 69 31 169 c 256
EndSplineSet
EndChar

StartChar: si_DAa.halant
Encoding: 264 -1 42
GlifName: si_D_A_a.halant
Width: 609
VWidth: 0
Flags: W
LayerCount: 2
Back
Fore
SplineSet
31 169 m 256
 31 274 104 317 223 317 c 258
 343 317 l 257
 333.277 363.186 304 396 260 396 c 256
 241 396 225.048 383.911 216.5 366 c 256
 206 344 189.802 336 175 336 c 256
 150 336 137 351 137 372 c 256
 137 408.283 177 433 232 433 c 256
 317.739 433 360.904 389.003 379 294 c 257
 242 294 l 258
 154 294 108 257 108 173 c 256
 108 89 172.922 26.001 258 26 c 256
 307.967 26 349.5 46 389.5 92 c 257
 412.5 75 l 257
 392.5 58.333 376.117 41.1863 360.75 32.75 c 257
 364.083 33.417 362.25 33.5 366.25 33.5 c 256
 414.521 33.5 447 -17.8019 447 -87 c 256
 447 -175 407.117 -212.5 348 -212.5 c 256
 298.845 -212.5 282.5 -187.083 282.5 -166 c 257
 309.5 -166 l 257
 309.524 -176.228 319.351 -186.75 338.25 -186.75 c 256
 380.033 -186.75 390.5 -148.479 390.5 -87 c 256
 390.5 -42.0971 376.119 0 345 0 c 256
 315.87 0 304.318 -29.2295 304.25 -45 c 257
 277.25 -45 l 257
 277.297 -29.335 286.304 -6.04117 299 4 c 257
 271 -0.666992 254.667 -1 234 -1 c 256
 103 -1 31 69 31 169 c 256
419.25 -53 m 257
 419.25 680 l 257
 473.25 638 569.25 633 569.25 541 c 256
 569.25 497 534.441 467 491.25 467 c 256
 476.583 467 461.583 470.333 446.25 477 c 257
 446.25 -101 l 257
 419.25 -53 l 257
446.25 502 m 257
 454.917 497.333 465.917 495 479.25 495 c 256
 517.25 495 532.25 520 532.25 544 c 256
 532.25 586 493.25 606 446.25 637 c 257
 446.25 502 l 257
EndSplineSet
EndChar

StartChar: si_DAae
Encoding: 257 -1 43
GlifName: si_D_A_ae
Width: 461
VWidth: 0
Flags: W
LayerCount: 2
Back
Fore
SplineSet
31 169 m 256
 31 274 104 317 223 317 c 258
 343 317 l 257
 333.277 363.186 304 396 260 396 c 256
 241 396 225.048 383.911 216.5 366 c 256
 206 344 189.802 336 175 336 c 256
 150 336 137 351 137 372 c 256
 137 408.283 177 433 232 433 c 256
 317.739 433 360.904 389.003 379 294 c 257
 242 294 l 258
 154 294 108 257 108 173 c 256
 108 89 174.598 26 259.25 26 c 256
 309.703 26 344 46 384 92 c 257
 403 76 l 257
 402.731 68.5657 353.5 28 353.5 28 c 257
 426 28 l 257
 426 4.75 l 257
 362.25 -36 l 257
 424 -36 l 257
 424 -58 l 257
 402.127 -65.6641 378 -92.0702 378 -136 c 256
 378 -176.404 397.111 -204.25 432 -204.25 c 257
 432 -228.5 l 257
 429.328 -229.383 424.947 -229.75 421 -229.75 c 256
 364.651 -229.75 323.25 -187.072 323.25 -142 c 256
 323.25 -102.948 349.094 -73.2602 380 -59.5 c 257
 379.743 -59.8086 312 -60 312 -60 c 257
 312 -40 l 257
 335.442 -25.7749 359.179 -9.8457 383.25 3.75 c 257
 381.147 3.75 314.25 3.75 314.25 3.75 c 257
 294.908 -12.3477 245 -51.416 245 -116 c 256
 245 -175.113 279.753 -200.126 315 -206 c 257
 315 -228.25 l 257
 311.208 -229.427 300.885 -230.25 296 -230.25 c 256
 233.773 -230.25 186 -197.723 186 -132 c 256
 186 -78.6526 224.958 -41.1085 272 1 c 257
 258.825 -0.908017 244.95 -1 239.25 -1 c 256
 101.683 -1 31 69 31 169 c 256
EndSplineSet
EndChar

StartChar: si_DAe
Encoding: 256 -1 44
GlifName: si_D_A_e
Width: 456
VWidth: 0
Flags: W
LayerCount: 2
Back
Fore
SplineSet
31 169 m 256
 31 274 104 317 223 317 c 258
 343 317 l 257
 333.277 363.186 304 396 260 396 c 256
 241 396 225.048 383.911 216.5 366 c 256
 206 344 189.802 336 175 336 c 256
 150 336 137 351 137 372 c 256
 137 408.283 177 433 232 433 c 256
 317.739 433 360.904 389.003 379 294 c 257
 242 294 l 258
 154 294 108 257 108 173 c 256
 108 89 174.598 26 259.25 26 c 256
 309.703 26 344 46 384 92 c 257
 407 75 l 257
 379.742 45.016 370 6.1579 370 -59 c 256
 370 -126.798 397.111 -204.25 432 -204.25 c 257
 432 -228.5 l 257
 429.328 -229.383 424.947 -229.75 421 -229.75 c 256
 364.651 -229.75 322 -177.437 322 -104 c 256
 322 -49.1621 345.945 5.75547 356 31 c 257
 290.903 -8.52324 245 -51.416 245 -116 c 256
 245 -175.113 279.753 -200.126 315 -206 c 257
 315 -228.25 l 257
 311.208 -229.427 300.885 -230.25 296 -230.25 c 256
 233.773 -230.25 186 -197.723 186 -132 c 256
 186 -78.6526 224.958 -41.1085 272 1 c 257
 258.825 -0.908017 244.95 -1 239.25 -1 c 256
 101.683 -1 31 69 31 169 c 256
EndSplineSet
EndChar

StartChar: si_DDdh.halant
Encoding: 487 -1 45
GlifName: si_D_D_dh.halant
Width: 729
VWidth: 0
Flags: W
LayerCount: 2
Back
Fore
SplineSet
231 543 m 256
 231 531 255 526 255 515 c 256
 255 513 254 510 252 508 c 257
 285 514 324.675 519 371 519 c 256
 479 519 564 490 622 422 c 257
 589 537 492 590 376 590 c 256
 304 590 231 567 231 543 c 256
125 195 m 256
 125 288 178.248 363.669 244 387 c 256
 264.667 394.333 287.667 398 313 398 c 257
 313 373 l 258
 309.651 373.289 306.316 373.437 303 373.437 c 256
 224 373.437 159 301 159 212 c 256
 159 135.558 206.568 71 280 71 c 256
 330.911 71 382 92 382 156 c 258
 382 196 l 257
 410 196 l 257
 410 156 l 258
 410 92 459.83 71 509 71 c 256
 609.206 71 645.576 187.906 645.576 265.5 c 256
 645.576 412.094 535 493.75 374 493.75 c 256
 298 493.75 215 477.923 134 453 c 257
 134 484 l 257
 166 492.229 218 501.829 218 508 c 256
 218 520 190 524 190 546 c 256
 190 583 255 629 370 629 c 256
 578 629 652 490 664 356 c 257
 673.166 331.008 681.5 287.347 681.5 245 c 256
 681.5 134.355 639.534 2.84217e-14 514 0 c 256
 464.667 0 425 19.6667 395 59 c 257
 364.333 20.3333 326.672 0 282 0 c 256
 180 0 125 96 125 195 c 256
27 211.5 m 256
 27 343.2 101.731 433 220.25 433 c 256
 246.319 433 288.876 427.134 313.25 398 c 257
 300.255 396.265 278.707 394.113 274.75 394 c 257
 267.182 402.054 243.838 406.75 225.5 406.75 c 256
 91.6787 406.75 56 295.411 56 208.5 c 256
 56 131.217 83 75.333 135 30 c 257
 135 0 l 257
 68.5828 33.2086 27 110.57 27 211.5 c 256
EndSplineSet
EndChar

StartChar: si_DDhI
Encoding: 488 -1 46
GlifName: si_D_D_hI_
Width: 729
VWidth: 0
Flags: W
LayerCount: 2
Back
Fore
SplineSet
27 211.5 m 256
 27 343.2 101.731 433 220.25 433 c 256
 246.319 433 288.876 427.134 313.25 398 c 257
 300.255 396.265 278.707 394.113 274.75 394 c 257
 267.182 402.054 243.838 406.75 225.5 406.75 c 256
 91.6787 406.75 56 295.411 56 208.5 c 256
 56 131.217 83 75.333 135 30 c 257
 135 0 l 257
 68.5828 33.2086 27 110.57 27 211.5 c 256
EndSplineSet
Refer: 85 -1 N 1 0 0 1 92 0 2
EndChar

StartChar: si_DDhIi
Encoding: 489 -1 47
GlifName: si_D_D_hI_i
Width: 729
VWidth: 0
Flags: W
LayerCount: 2
Back
Fore
SplineSet
27 211.5 m 256
 27 343.2 101.731 433 220.25 433 c 256
 246.319 433 288.876 427.134 313.25 398 c 257
 300.255 396.265 278.707 394.113 274.75 394 c 257
 267.182 402.054 243.838 406.75 225.5 406.75 c 256
 91.6787 406.75 56 295.411 56 208.5 c 256
 56 131.217 83 75.333 135 30 c 257
 135 0 l 257
 68.5828 33.2086 27 110.57 27 211.5 c 256
EndSplineSet
Refer: 86 -1 N 1 0 0 1 92 0 2
EndChar

StartChar: si_DDhU
Encoding: 490 -1 48
GlifName: si_D_D_hU_
Width: 729
VWidth: 0
Flags: W
LayerCount: 2
Back
Fore
SplineSet
143.75 -142.5 m 256
 143.75 -90.4912 190.043 -50.5 245.25 -50.5 c 256
 287.156 -50.5 324.5 -74.1416 339.25 -110 c 257
 309.25 -121.5 l 257
 302.232 -101.896 278.25 -80 245.25 -80 c 256
 208.546 -80 177.25 -106.714 177.25 -142.5 c 256
 177.25 -171.663 200.634 -199 266.25 -199 c 258
 634.25 -199 l 257
 634.25 128 l 257
 667.25 219 l 257
 667.25 -235 l 257
 249.25 -235 l 258
 180.09 -235 143.75 -186.092 143.75 -142.5 c 256
EndSplineSet
Refer: 50 -1 N 1 0 0 1 0 0 2
EndChar

StartChar: si_DDhUu
Encoding: 491 -1 49
GlifName: si_D_D_hU_u
Width: 729
VWidth: 0
Flags: W
LayerCount: 2
Back
Fore
SplineSet
143.25 -138 m 256
 143.25 -80 192.25 -40 245.25 -40 c 256
 287.25 -40 319.583 -55 342.25 -91 c 257
 312.25 -102 l 257
 300.25 -83 279.25 -68 250.25 -68 c 256
 211.25 -68 179.25 -92 179.25 -129 c 256
 179.25 -166.366 210.25 -191 253.25 -191 c 256
 337.25 -191 420.25 -117 515.25 -117 c 256
 558.25 -117 607.25 -136 634.25 -168 c 257
 634.25 152 l 257
 667.25 212 l 257
 667.25 -231 l 257
 644.25 -231 l 257
 629.25 -195 586.25 -144 518.25 -144 c 256
 427.25 -144 352.25 -237 254.25 -237 c 256
 199.25 -237 143.25 -206 143.25 -138 c 256
EndSplineSet
Refer: 50 -1 N 1 0 0 1 0 0 2
EndChar

StartChar: si_DDha
Encoding: 438 -1 50
GlifName: si_D_D_ha
Width: 729
VWidth: 0
Flags: W
LayerCount: 2
Back
Fore
SplineSet
27 211.5 m 256
 27 343.2 101.731 433 220.25 433 c 256
 246.319 433 288.876 427.134 313.25 398 c 257
 274.75 394 l 257
 267.182 402.054 243.838 406.75 225.5 406.75 c 256
 91.6787 406.75 56 295.411 56 208.5 c 256
 56 131.217 83 75.333 135 30 c 257
 135 0 l 257
 68.5828 33.2086 27 110.57 27 211.5 c 256
EndSplineSet
Refer: 461 3504 N 1 0 0 1 92 0 2
EndChar

StartChar: si_DI
Encoding: 258 -1 51
GlifName: si_D_I_
Width: 456
VWidth: 0
Flags: W
LayerCount: 2
Back
Fore
SplineSet
35.0801 518 m 256
 35.0801 618.565 126.303 671 223 671 c 256
 319.697 671 410.92 617.064 410.92 518 c 256
 410.92 443.457 347.584 406.19 295.09 405 c 257
 283.09 426 l 257
 337.176 426.005 380.63 461.523 380.63 509 c 256
 380.63 570.685 295.016 598 223 598 c 256
 150.984 598 66.1201 573.424 66.1201 509 c 256
 66.1201 460.729 108.769 425 194 425 c 257
 150.91 405 l 257
 84.9511 414.727 35.0801 450.955 35.0801 518 c 256
EndSplineSet
Refer: 460 3503 N 1 0 0 1 0 0 2
EndChar

StartChar: si_DIi
Encoding: 259 -1 52
GlifName: si_D_I_i
Width: 456
VWidth: 0
Flags: W
LayerCount: 2
Back
Fore
SplineSet
246.75 514 m 256
 246.75 483 276.75 458 312.75 458 c 256
 348.75 458 378.75 483 378.75 514 c 256
 378.75 545 348.75 570 312.75 570 c 256
 276.75 570 246.75 545 246.75 514 c 256
35.0801 518 m 256
 35.0801 618.565 126.303 671 223 671 c 256
 319.697 671 410.92 614.322 410.92 522.75 c 256
 410.92 463.267 363.464 429 312.25 429 c 256
 252.575 429 214.75 470 214.75 515 c 256
 214.75 560 251.217 587.258 278 592 c 257
 267 595 236.609 598 223 598 c 256
 150.984 598 66.1201 573.424 66.1201 509 c 256
 66.1201 460.729 108.769 425 194 425 c 257
 150.91 405 l 257
 84.9511 414.727 35.0801 450.955 35.0801 518 c 256
EndSplineSet
Refer: 460 3503 N 1 0 0 1 0 0 2
EndChar

StartChar: si_DRI
Encoding: 267 -1 53
GlifName: si_D_R_I_
Width: 456
VWidth: 0
Flags: W
LayerCount: 2
Back
Fore
SplineSet
35.0801 518 m 256
 35.0801 618.565 126.303 671 223 671 c 256
 319.697 671 410.92 617.064 410.92 518 c 256
 410.92 443.457 347.584 406.19 295.09 405 c 257
 283.09 426 l 257
 337.176 426.005 380.63 461.523 380.63 509 c 256
 380.63 570.685 295.016 598 223 598 c 256
 150.984 598 66.1201 573.424 66.1201 509 c 256
 66.1201 460.729 108.769 425 194 425 c 257
 150.91 405 l 257
 84.9511 414.727 35.0801 450.955 35.0801 518 c 256
33.6611 -43 m 257
 58.5938 -43 l 257
 80.334 -111.712 126.548 -142.25 203.336 -142.25 c 256
 307.583 -142.25 382.154 -72.0848 382.154 51 c 256
 382.154 72 381.689 66.0068 380.75 74 c 257
 407 78.75 l 257
 407.004 58.4798 407.25 75.667 407.25 39 c 256
 407.25 -108.6 319.976 -204.25 215 -204.25 c 256
 109.809 -204.25 53.2828 -144.604 33.6611 -43 c 257
31 169 m 256
 31 274 104 317 223 317 c 258
 343 317 l 257
 333.277 363.186 304 396 260 396 c 256
 241 396 225.048 383.911 216.5 366 c 256
 206 344 189.802 336 175 336 c 256
 150 336 137 351 137 372 c 256
 137 408.283 177 433 232 433 c 256
 317.739 433 360.904 389.003 379 294 c 257
 242 294 l 258
 154 294 108 257 108 173 c 256
 108 89 178 27 261 27 c 256
 307.077 27 351.052 50.0427 384 92 c 257
 407 78.75 l 257
 367.4 33.3636 328.458 -1 234 -1 c 256
 103 -1 31 69 31 169 c 256
EndSplineSet
EndChar

StartChar: si_DRIi
Encoding: 268 -1 54
GlifName: si_D_R_I_i
Width: 456
VWidth: 0
Flags: W
LayerCount: 2
Back
Fore
SplineSet
246.75 514 m 256
 246.75 483 276.75 458 312.75 458 c 256
 348.75 458 378.75 483 378.75 514 c 256
 378.75 545 348.75 570 312.75 570 c 256
 276.75 570 246.75 545 246.75 514 c 256
35.0801 518 m 256
 35.0801 618.565 126.303 671 223 671 c 256
 319.697 671 410.92 614.322 410.92 522.75 c 256
 410.92 463.267 363.464 429 312.25 429 c 256
 252.575 429 214.75 470 214.75 515 c 256
 214.75 560 251.217 587.258 278 592 c 257
 267 595 236.609 598 223 598 c 256
 150.984 598 66.1201 573.424 66.1201 509 c 256
 66.1201 460.729 108.769 425 194 425 c 257
 150.91 405 l 257
 84.9511 414.727 35.0801 450.955 35.0801 518 c 256
33.6611 -43 m 257
 58.5938 -43 l 257
 80.334 -111.712 126.548 -142.25 203.336 -142.25 c 256
 307.583 -142.25 382.154 -72.0848 382.154 51 c 256
 382.154 72 381.689 66.0068 380.75 74 c 257
 407 78.75 l 257
 407.004 58.4798 407.25 75.667 407.25 39 c 256
 407.25 -108.6 319.976 -204.25 215 -204.25 c 256
 109.809 -204.25 53.2828 -144.604 33.6611 -43 c 257
31 169 m 256
 31 274 104 317 223 317 c 258
 343 317 l 257
 333.277 363.186 304 396 260 396 c 256
 241 396 225.048 383.911 216.5 366 c 256
 206 344 189.802 336 175 336 c 256
 150 336 137 351 137 372 c 256
 137 408.283 177 433 232 433 c 256
 317.739 433 360.904 389.003 379 294 c 257
 242 294 l 258
 154 294 108 257 108 173 c 256
 108 89 178 27 261 27 c 256
 307.077 27 351.052 50.0427 384 92 c 257
 407 78.75 l 257
 367.4 33.3636 328.458 -1 234 -1 c 256
 103 -1 31 69 31 169 c 256
EndSplineSet
EndChar

StartChar: si_DRa
Encoding: 266 -1 55
GlifName: si_D_R_a
Width: 456
VWidth: 0
Flags: W
LayerCount: 2
Back
Fore
SplineSet
33.6611 -43 m 257
 58.5938 -43 l 257
 80.334 -111.712 126.548 -142.25 203.336 -142.25 c 256
 307.583 -142.25 382.154 -72.0848 382.154 51 c 256
 382.154 72 381.689 66.0068 380.75 74 c 257
 407 78.75 l 257
 407.004 58.4798 407.25 75.667 407.25 39 c 256
 407.25 -108.6 319.976 -204.25 215 -204.25 c 256
 109.809 -204.25 53.2828 -144.604 33.6611 -43 c 257
31 169 m 256
 31 274 104 317 223 317 c 258
 343 317 l 257
 333.277 363.186 304 396 260 396 c 256
 241 396 225.048 383.911 216.5 366 c 256
 206 344 189.802 336 175 336 c 256
 150 336 137 351 137 372 c 256
 137 408.283 177 433 232 433 c 256
 317.739 433 360.904 389.003 379 294 c 257
 242 294 l 258
 154 294 108 257 108 173 c 256
 108 89 178 27 261 27 c 256
 307.077 27 351.052 50.0427 384 92 c 257
 407 78.75 l 257
 367.4 33.3636 328.458 -1 234 -1 c 256
 103 -1 31 69 31 169 c 256
EndSplineSet
EndChar

StartChar: si_DU
Encoding: 260 -1 56
GlifName: si_D_U_
Width: 456
VWidth: 0
Flags: W
LayerCount: 2
Back
Fore
SplineSet
32.75 -142.5 m 256
 32.75 -90.4912 79.043 -50.5 134.25 -50.5 c 256
 176.156 -50.5 213.5 -74.1416 228.25 -110 c 257
 198.25 -121.5 l 257
 191.232 -101.896 167.25 -80 134.25 -80 c 256
 97.5459 -80 66.25 -106.714 66.25 -142.5 c 256
 66.25 -171.663 89.6338 -199 155.25 -199 c 258
 373.75 -199 l 257
 373.75 69 l 257
 406.75 78.75 l 257
 406.75 -235 l 257
 138.25 -235 l 258
 69.0898 -235 32.75 -186.092 32.75 -142.5 c 256
31 169 m 256
 31 274 104 317 223 317 c 258
 343 317 l 257
 333.277 363.186 304 396 260 396 c 256
 241 396 225.048 383.911 216.5 366 c 256
 206 344 189.802 336 175 336 c 256
 150 336 137 351 137 372 c 256
 137 408.283 177 433 232 433 c 256
 317.739 433 360.904 389.003 379 294 c 257
 242 294 l 258
 154 294 108 257 108 173 c 256
 108 89 178 27 261 27 c 256
 307.077 27 351.052 50.0427 384 92 c 257
 407 78.75 l 257
 367.4 33.3636 328.458 -1 234 -1 c 256
 103 -1 31 69 31 169 c 256
EndSplineSet
EndChar

StartChar: si_DUu
Encoding: 261 -1 57
GlifName: si_D_U_u
Width: 456
VWidth: 0
Flags: W
LayerCount: 2
Back
Fore
SplineSet
32.75 -138.75 m 256
 32.75 -80.75 81.75 -40.75 134.75 -40.75 c 256
 176.75 -40.75 209.083 -55.75 231.75 -91.75 c 257
 201.75 -102.75 l 257
 189.75 -83.75 168.75 -68.75 139.75 -68.75 c 256
 100.75 -68.75 68.75 -92.75 68.75 -129.75 c 256
 68.75 -167.116 96.75 -191.75 139.75 -191.75 c 256
 194.962 -191.75 222.425 -127.5 300 -127.5 c 256
 325.479 -127.5 354.534 -136.224 374 -159.75 c 257
 374 72 l 257
 407 78.75 l 257
 407 -231.75 l 257
 384 -231.75 l 257
 370.064 -193.978 350.303 -154.5 305.75 -154.5 c 256
 228.297 -154.5 208.529 -237.75 132.5 -237.75 c 256
 84.5342 -237.75 32.75 -206.75 32.75 -138.75 c 256
31 169 m 256
 31 274 104 317 223 317 c 258
 343 317 l 257
 333.277 363.186 304 396 260 396 c 256
 241 396 225.048 383.911 216.5 366 c 256
 206 344 189.802 336 175 336 c 256
 150 336 137 351 137 372 c 256
 137 408.283 177 433 232 433 c 256
 317.739 433 360.904 389.003 379 294 c 257
 242 294 l 258
 154 294 108 257 108 173 c 256
 108 89 178 27 261 27 c 256
 307.077 27 351.052 50.0427 384 92 c 257
 407 78.75 l 257
 367.4 33.3636 328.458 -1 234 -1 c 256
 103 -1 31 69 31 169 c 256
EndSplineSet
EndChar

StartChar: si_DV.halant
Encoding: 492 -1 58
GlifName: si_D_V_.halant
Width: 688
VWidth: 0
Flags: W
LayerCount: 2
Back
Fore
SplineSet
126 165 m 256
 126 250 191 304 292 304 c 258
 353 304 l 258
 353.082 306.041 353.086 306.041 353.086 308 c 256
 353.086 362 319 395 282 395 c 256
 237 395 229 371 223.5 355 c 256
 216.951 335.948 207.371 323 185.5 323 c 256
 169.5 323 148.75 333.618 148.75 359.25 c 256
 148.75 404.581 199 431.5 254 431.5 c 256
 342 431.5 385.146 376 385.146 290 c 256
 385.146 286.722 385.101 283.388 385 280 c 258
 295 280 l 258
 221 280 161 245.216 161 180 c 256
 161 94 273 71 363 71 c 256
 512.46 71 602.755 154.021 606.854 290.23 c 257
 606.826 408.44 512.592 493.75 357.5 493.75 c 256
 281.5 493.75 212.23 480.284 132.25 447 c 257
 132.25 478 l 257
 164.25 488.286 214.5 500.286 214.5 508 c 256
 214.5 520 186.5 524 186.5 546 c 256
 186.5 583 249.5 629 364.5 629 c 256
 559.102 629 621.25 490 633.25 356 c 256
 638.302 331.829 640.662 305.024 641 274 c 257
 641.001 112.779 542.362 0 360 0 c 256
 239 0 126 46 126 165 c 256
227.5 543 m 256
 227.5 531 251.5 526 251.5 515 c 256
 251.5 513 250.5 510 248.5 508 c 257
 281.5 514 319.175 519 365.5 519 c 256
 454.48 519 543.079 486.84 591.25 422 c 257
 558.25 537 476.414 590 370.5 590 c 256
 298.5 590 227.5 567 227.5 543 c 256
27 221 m 256
 27 352.7 99.7562 433 239 433 c 256
 248 433 271 433 293 427 c 257
 272 416 194 406 177 400 c 257
 102 382 56 319.268 56 218 c 256
 56 137.333 83 75.333 135 30 c 257
 135 0 l 257
 68.5828 33.2086 27 120.07 27 221 c 256
EndSplineSet
EndChar

StartChar: si_DVI
Encoding: 493 -1 59
GlifName: si_D_V_I_
Width: 688
VWidth: 0
Flags: W
LayerCount: 2
Back
Fore
SplineSet
138.25 562 m 256
 138.25 652 266.5 670 366.5 670 c 256
 502.5 670 609 639 609 554 c 256
 609 502 555 480 521 474 c 257
 471 490 l 257
 507 491 562 506 562 544 c 256
 562 600.273 474.5 611 366.5 611 c 256
 290.844 611 180.25 605.886 180.25 554 c 256
 180.25 508 242.5 508 344.5 504 c 256
 409.369 501.456 500 499 555 459 c 256
 604.146 423.257 640 355.972 640 272.25 c 257
 606 293.5 l 257
 606 334.652 589.813 383.562 562 414 c 256
 509 472 446.519 472.325 345.5 478 c 256
 256.5 483 138.25 476 138.25 562 c 256
125 165 m 256
 125 250 190 304 291 304 c 258
 352 304 l 257
 352.082 306.041 352.086 306.041 352.086 308 c 256
 352.086 362 318 395 281 395 c 256
 236 395 228 371 222.5 355 c 256
 215.951 335.948 206.371 323 184.5 323 c 256
 168.5 323 147.75 333.618 147.75 359.25 c 256
 147.75 404.581 198 431.5 253 431.5 c 256
 341 431.5 384.146 376 384.146 290 c 256
 384.146 286.722 384.101 283.388 384 280 c 257
 294 280 l 258
 220 280 160 245.216 160 180 c 256
 160 94 272 71 362 71 c 256
 515 71 606 158 606 300 c 257
 617.942 288.697 624.757 282.252 640 274 c 257
 640 114 542 0 359 0 c 256
 238 0 125 46 125 165 c 256
27 221 m 256
 27 352.7 99.7562 433 239 433 c 256
 248 433 271 433 293 427 c 257
 272 416 194 406 177 400 c 257
 102 382 56 319.268 56 218 c 256
 56 137.333 83 75.333 135 30 c 257
 135 0 l 257
 68.5828 33.2086 27 120.07 27 221 c 256
EndSplineSet
EndChar

StartChar: si_DVIi
Encoding: 494 -1 60
GlifName: si_D_V_I_i
Width: 688
VWidth: 0
Flags: W
LayerCount: 2
Back
Fore
SplineSet
456.697 555 m 256
 456.697 524.818 483.867 500.543 517 500.543 c 256
 550.133 500.543 577.303 524.818 577.303 555 c 256
 577.303 585.182 550.133 609.457 517 609.457 c 256
 483.867 609.457 456.697 585.182 456.697 555 c 256
139 562 m 256
 139 652 266 670 366 670 c 256
 502 670 609 639 609 558 c 256
 609 505 561 474 517 474 c 256
 473 474 425 505 425 558 c 256
 425 583 438 600 444 608 c 257
 437 609 408.212 611 366 611 c 256
 290.344 611 181 605.886 181 554 c 256
 181 508 242 508 344 504 c 256
 408.869 501.456 500 499 555 459 c 256
 604.146 423.257 640 358.553 640 274 c 257
 606 285.75 l 257
 606 336.985 589.813 383.562 562 414 c 256
 509 472 446.019 472.325 345 478 c 256
 256 483 139 476 139 562 c 256
125 165 m 256
 125 250 190 304 291 304 c 258
 352 304 l 257
 352.082 306.041 352.086 306.041 352.086 308 c 256
 352.086 362 318 395 281 395 c 256
 236 395 228 371 222.5 355 c 256
 215.951 335.948 206.371 323 184.5 323 c 256
 168.5 323 147.75 333.618 147.75 359.25 c 256
 147.75 404.581 198 431.5 253 431.5 c 256
 341 431.5 384.146 376 384.146 290 c 256
 384.146 286.722 384.101 283.388 384 280 c 257
 294 280 l 258
 220 280 160 245.216 160 180 c 256
 160 94 272 71 362 71 c 256
 515 71 606 158 606 300 c 257
 617.942 288.697 624.757 282.252 640 274 c 257
 640 114 542 0 359 0 c 256
 238 0 125 46 125 165 c 256
27 221 m 256
 27 352.7 99.7562 433 239 433 c 256
 248 433 271 433 293 427 c 257
 272 416 194 406 177 400 c 257
 102 382 56 319.268 56 218 c 256
 56 137.333 83 75.333 135 30 c 257
 135 0 l 257
 68.5828 33.2086 27 120.07 27 221 c 256
EndSplineSet
EndChar

StartChar: si_DVU
Encoding: 495 -1 61
GlifName: si_D_V_U_
Width: 688
VWidth: 0
Flags: W
LayerCount: 2
Back
Fore
SplineSet
136 -142.5 m 256
 136 -90.4912 182.293 -50.5 237.5 -50.5 c 256
 279.406 -50.5 316.75 -74.1416 331.5 -110 c 257
 301.5 -121.5 l 257
 294.482 -101.896 270.5 -80 237.5 -80 c 256
 200.796 -80 169.5 -106.714 169.5 -142.5 c 256
 169.5 -171.663 192.884 -199 258.5 -199 c 258
 597 -199 l 257
 597 128 l 257
 630 219 l 257
 630 -235 l 257
 241.5 -235 l 258
 172.34 -235 136 -186.092 136 -142.5 c 256
125 165 m 256
 125 250 190 304 291 304 c 258
 352 304 l 257
 352.082 306.041 352.086 306.041 352.086 308 c 256
 352.086 362 318 395 281 395 c 256
 236 395 228 371 222.5 355 c 256
 215.951 335.948 206.621 323 184.75 323 c 256
 168.75 323 147.75 333.034 147.75 359.75 c 256
 147.75 403.174 198 431.5 253 431.5 c 256
 341 431.5 384.146 376 384.146 290 c 256
 384.146 286.722 384.101 283.388 384 280 c 257
 294 280 l 258
 220 280 160 245.216 160 180 c 256
 160 94 272 71 362 71 c 256
 515 71 606 158 606 300 c 256
 606 442 502.498 553 368 553 c 256
 288.667 553 225.667 524.667 181 470 c 257
 149 470 l 257
 197.667 540 270 577 368 577 c 256
 528.151 577 640 443 640 274 c 256
 640 114 542 0 359 0 c 256
 238 0 125 46 125 165 c 256
27 221 m 256
 27 352.7 99.7562 433 239 433 c 256
 248 433 271 433 293 427 c 257
 272 416 194 406 177 400 c 257
 102 382 56 319.268 56 218 c 256
 56 137.333 83 75.333 135 30 c 257
 135 0 l 257
 68.5828 33.2086 27 120.07 27 221 c 256
EndSplineSet
EndChar

StartChar: si_DVUu
Encoding: 496 -1 62
GlifName: si_D_V_U_u
Width: 688
VWidth: 0
Flags: W
LayerCount: 2
Back
Fore
SplineSet
138 -138 m 256
 138 -80 187 -40 240 -40 c 256
 282 -40 314.333 -55 337 -91 c 257
 307 -102 l 257
 295 -83 274 -68 245 -68 c 256
 206 -68 174 -92 174 -129 c 256
 174 -166.366 205 -191 248 -191 c 256
 332 -191 398.75 -117 493.75 -117 c 256
 541.344 -117 572.794 -133.538 597 -159.75 c 257
 597 152 l 257
 630 212 l 257
 630 -231 l 257
 607 -231 l 257
 592 -195 561.625 -144 496.75 -144 c 256
 405.75 -144 347 -237 249 -237 c 256
 194 -237 138 -206 138 -138 c 256
125 165 m 256
 125 250 190 304 291 304 c 258
 352 304 l 257
 352.082 306.041 352.086 306.041 352.086 308 c 256
 352.086 362 318 395 281 395 c 256
 236 395 228 371 222.5 355 c 256
 215.951 335.948 206.621 323 184.75 323 c 256
 168.75 323 147.75 333.034 147.75 359.75 c 256
 147.75 403.174 198 431.5 253 431.5 c 256
 341 431.5 384.146 376 384.146 290 c 256
 384.146 286.722 384.101 283.388 384 280 c 257
 294 280 l 258
 220 280 160 245.216 160 180 c 256
 160 94 272 71 362 71 c 256
 515 71 606 158 606 300 c 256
 606 442 502.498 553 368 553 c 256
 288.667 553 225.667 524.667 181 470 c 257
 149 470 l 257
 197.667 540 270 577 368 577 c 256
 528.151 577 640 443 640 274 c 256
 640 114 542 0 359 0 c 256
 238 0 125 46 125 165 c 256
27 221 m 256
 27 352.7 99.7562 433 239 433 c 256
 248 433 271 433 293 427 c 257
 272 416 194 406 177 400 c 257
 102 382 56 319.268 56 218 c 256
 56 137.333 83 75.333 135 30 c 257
 135 0 l 257
 68.5828 33.2086 27 120.07 27 221 c 256
EndSplineSet
EndChar

StartChar: si_DVa
Encoding: 439 -1 63
GlifName: si_D_V_a
Width: 688
VWidth: 0
Flags: W
LayerCount: 2
Back
Fore
SplineSet
125 165 m 256
 125 250 190 304 291 304 c 258
 352 304 l 257
 352.082 306.041 352.086 306.041 352.086 308 c 256
 352.086 362 318 395 281 395 c 256
 236 395 228 371 222.5 355 c 256
 215.951 335.948 206.621 323 184.75 323 c 256
 168.75 323 147.75 333.034 147.75 359.75 c 256
 147.75 403.174 198 431.5 253 431.5 c 256
 341 431.5 384.146 376 384.146 290 c 256
 384.146 286.722 384.101 283.388 384 280 c 257
 294 280 l 258
 220 280 160 245.216 160 180 c 256
 160 94 272 71 362 71 c 256
 515 71 606 158 606 300 c 256
 606 442 502.498 553 368 553 c 256
 288.667 553 225.667 524.667 181 470 c 257
 149 470 l 257
 197.667 540 270 577 368 577 c 256
 528.151 577 640 443 640 274 c 256
 640 114 542 0 359 0 c 256
 238 0 125 46 125 165 c 256
27 221 m 256
 27 352.7 99.7559 433 239 433 c 256
 248 433 271 433 293 427 c 257
 272 416 194 406 177 400 c 257
 102 382 56 319.268 56 218 c 256
 56 137.333 83 75.333 135 30 c 257
 135 0 l 257
 68.583 33.209 27 120.07 27 221 c 256
EndSplineSet
EndChar

StartChar: si_DYAa.post
Encoding: 270 -1 64
GlifName: si_D_Y_A_a.post
Width: 787
VWidth: 0
Flags: W
LayerCount: 2
Back
Fore
SplineSet
592.25 -31 m 257
 619.25 -31 l 257
 619.253 -6.51971 630.87 19.25 660 19.25 c 256
 691.119 19.25 705.5 -28.0967 705.5 -73 c 256
 705.5 -134.479 695.033 -172.75 653.25 -172.75 c 256
 634.351 -172.75 624.523 -162.229 624.5 -152 c 257
 597.5 -152 l 257
 597.5 -173.083 613.845 -198.5 663 -198.5 c 256
 722.117 -198.5 762 -161 762 -73 c 256
 762 -3.80176 728.308 47.5 674.5 47.5 c 256
 615.604 47.5 592.362 6.57666 592.25 -31 c 257
340 46 m 257
 348.723 48.0625 353.999 50 364 50 c 256
 389.143 50 424.15 10.6006 424.15 -41.5996 c 256
 424.15 -77 416.349 -103.479 399.5 -134 c 257
 423.1 -148.801 454.353 -153.05 476.35 -153.05 c 256
 513.709 -153.05 558 -135.947 558 -94 c 256
 558 -57.3623 526.6 -42.75 490 -42.75 c 256
 470.8 -42.75 443.95 -35.2793 443.95 3.7998 c 256
 443.95 33.7998 471.656 53.7998 508.15 53.7998 c 256
 543.55 53.7998 571.15 34.6006 571.15 -0.799805 c 256
 571.15 -4.7998 570.75 -8.7998 569.95 -12.7998 c 257
 544.35 -12.7998 l 257
 545.149 -9.2002 545.55 -5.59961 545.55 -2 c 256
 545.55 18.687 533.8 32 508 32 c 256
 486.184 32 469.75 21.1475 469.75 4.25 c 256
 469.75 -17.9727 484.6 -22 508 -22 c 256
 543.401 -22 592.75 -45.915 592.75 -107 c 256
 592.75 -165.8 539.95 -205.399 487.75 -205.399 c 256
 441.178 -205.399 411.55 -192.8 382.75 -155.6 c 257
 364.142 -176.636 337.708 -196.467 311.95 -204.8 c 257
 297 -184 l 257
 352.2 -160.6 398 -120.2 398 -44 c 256
 398 -1.90039 373.705 30 350 30 c 256
 340.8 30 334.679 28.7441 328 28 c 257
 340 46 l 257
234 -1 m 256
 103 -1 31 69 31 169 c 256
 31 274 104 317 223 317 c 258
 343 317 l 257
 333.277 363.186 304 396 260 396 c 256
 241 396 225.048 383.911 216.5 366 c 256
 206 344 189.802 336 175 336 c 256
 150 336 137 351 137 372 c 256
 137 408.283 177 433 232 433 c 256
 317.739 433 360.904 389.003 379 294 c 257
 242 294 l 258
 154 294 108 257 108 173 c 256
 108 89 172.922 26.001 258 26 c 256
 307.967 26 349.5 46 389.5 92 c 257
 412.5 75 l 257
 372.596 41.7458 345.289 -1 234 -1 c 256
EndSplineSet
EndChar

StartChar: si_DYOo.post
Encoding: 273 -1 65
GlifName: si_D_Y_O_o.post
Width: 895
VWidth: 0
Flags: W
LayerCount: 2
Back
Fore
SplineSet
731 -53 m 257
 731 680 l 257
 785 638 881 633 881 541 c 256
 881 497 846.191 467 803 467 c 256
 788.333 467 773.333 470.333 758 477 c 257
 758 -101 l 257
 731 -53 l 257
758 637 m 257
 758 502 l 257
 766.667 497.333 777.667 495 791 495 c 256
 829 495 844 520 844 544 c 256
 844 586 805 606 758 637 c 257
592.25 -31 m 257
 592.362 6.57666 615.604 47.5 674.5 47.5 c 256
 728.308 47.5 762 -3.80176 762 -73 c 256
 762 -161 722.117 -198.5 663 -198.5 c 256
 613.845 -198.5 597.5 -173.083 597.5 -152 c 257
 624.5 -152 l 257
 624.523 -162.229 634.351 -172.75 653.25 -172.75 c 256
 695.033 -172.75 705.5 -134.479 705.5 -73 c 256
 705.5 -28.0967 691.119 19.25 660 19.25 c 256
 630.87 19.25 619.253 -6.51971 619.25 -31 c 257
 592.25 -31 l 257
340 46 m 257
 348.723 48.0625 353.999 50 364 50 c 256
 389.143 50 424.15 10.6006 424.15 -41.5996 c 256
 424.15 -77 416.349 -103.479 399.5 -134 c 257
 423.1 -148.801 454.353 -153.05 476.35 -153.05 c 256
 513.709 -153.05 558 -135.947 558 -94 c 256
 558 -57.3623 526.6 -42.75 490 -42.75 c 256
 470.8 -42.75 443.95 -35.2793 443.95 3.7998 c 256
 443.95 33.7998 471.656 53.7998 508.15 53.7998 c 256
 543.55 53.7998 571.15 34.6006 571.15 -0.799805 c 256
 571.15 -4.7998 570.75 -8.7998 569.95 -12.7998 c 257
 544.35 -12.7998 l 257
 545.149 -9.2002 545.55 -5.59961 545.55 -2 c 256
 545.55 18.687 533.8 32 508 32 c 256
 486.184 32 469.75 21.1475 469.75 4.25 c 256
 469.75 -17.9727 484.6 -22 508 -22 c 256
 543.401 -22 592.75 -45.915 592.75 -107 c 256
 592.75 -165.8 539.95 -205.399 487.75 -205.399 c 256
 441.178 -205.399 411.55 -192.8 382.75 -155.6 c 257
 364.142 -176.636 337.708 -196.467 311.95 -204.8 c 257
 297 -184 l 257
 352.2 -160.6 398 -120.2 398 -44 c 256
 398 -1.90039 373.705 30 350 30 c 256
 340.8 30 334.679 28.7441 328 28 c 257
 340 46 l 257
234 -1 m 256
 103 -1 31 69 31 169 c 256
 31 274 104 317 223 317 c 258
 343 317 l 257
 333.277 363.186 304 396 260 396 c 256
 241 396 225.048 383.911 216.5 366 c 256
 206 344 189.802 336 175 336 c 256
 150 336 137 351 137 372 c 256
 137 408.283 177 433 232 433 c 256
 317.739 433 360.904 389.003 379 294 c 257
 242 294 l 258
 154 294 108 257 108 173 c 256
 108 89 172.922 26.001 258 26 c 256
 307.967 26 349.5 46 389.5 92 c 257
 412.5 75 l 257
 372.596 41.7458 345.289 -1 234 -1 c 256
EndSplineSet
EndChar

StartChar: si_DYUu.post
Encoding: 272 -1 66
GlifName: si_D_Y_U_u.post
Width: 614
VWidth: 0
Flags: W
LayerCount: 2
Back
Fore
SplineSet
340 46 m 257
 348.723 48.0625 353.999 50 364 50 c 256
 389.143 50 424.15 10.6006 424.15 -41.5996 c 256
 424.15 -77 416.349 -103.479 399.5 -134 c 257
 423.1 -148.801 454.353 -153.05 476.35 -153.05 c 256
 513.709 -153.05 558 -135.947 558 -94 c 256
 558 -57.3623 526.6 -42.75 490 -42.75 c 256
 470.8 -42.75 443.95 -35.2793 443.95 3.7998 c 256
 443.95 33.7998 471.656 53.7998 508.15 53.7998 c 256
 543.55 53.7998 571.15 34.6006 571.15 -0.799805 c 256
 571.15 -4.7998 570.75 -8.7998 569.95 -12.7998 c 257
 544.35 -12.7998 l 257
 545.149 -9.2002 545.55 -5.59961 545.55 -2 c 256
 545.55 18.687 533.8 32 508 32 c 256
 486.184 32 469.75 21.1475 469.75 4.25 c 256
 469.75 -17.9727 484.6 -22 508 -22 c 256
 543.401 -22 592.75 -45.915 592.75 -107 c 256
 592.75 -165.8 539.95 -205.399 487.75 -205.399 c 256
 441.178 -205.399 411.55 -192.8 382.75 -155.6 c 257
 364.142 -176.636 337.708 -196.467 311.95 -204.8 c 257
 297 -183.75 l 257
 352.2 -160.35 397.5 -120.2 397.5 -44 c 256
 397.5 -1.90039 373.705 28.25 350 28.25 c 256
 340.8 28.25 334.679 26.9941 328 26.25 c 257
 340 46 l 257
234 -1 m 256
 103 -1 31 69 31 169 c 256
 31 274 104 317 223 317 c 258
 343 317 l 257
 333.277 363.186 304 396 260 396 c 256
 241 396 225.048 383.911 216.5 366 c 256
 206 344 189.802 336 175 336 c 256
 150 336 137 351 137 372 c 256
 137 408.283 177 433 232 433 c 256
 317.739 433 360.904 389.003 379 294 c 257
 242 294 l 258
 154 294 108 257 108 173 c 256
 108 89 172.922 26.001 258 26 c 256
 307.967 26 349.5 46 389.5 92 c 257
 412.5 75 l 257
 372.596 41.7458 345.289 -1 234 -1 c 256
586 -139 m 257
 586 -343.5 l 257
 586 -343.5 570.389 -343.448 562 -342.925 c 257
 553.669 -326.673 533.127 -314.25 500 -314.25 c 256
 452.717 -314.25 432.695 -348 377.25 -348 c 256
 337.963 -348 307 -322.852 307 -282 c 256
 307 -243.854 334.477 -220 373 -220 c 256
 404.446 -220 420.663 -235.522 430.75 -257.25 c 257
 409.25 -268 l 257
 402.494 -250.732 387.257 -241.75 371 -241.75 c 256
 349.735 -241.75 333.5 -255.939 333.5 -276.5 c 256
 333.5 -303.333 355.377 -314 381 -314 c 256
 431.268 -314 453.924 -291.5 504 -291.5 c 256
 541.721 -291.5 559.25 -308.5 559.25 -308.5 c 257
 559.25 -175.5 l 257
 586 -139 l 257
EndSplineSet
EndChar

StartChar: si_DYa.post
Encoding: 269 -1 67
GlifName: si_D_Y_a.post
Width: 614
VWidth: 0
Flags: W
LayerCount: 2
Back
Fore
SplineSet
340 46 m 257
 348.723 48.0625 353.999 50 364 50 c 256
 389.143 50 424.15 10.6006 424.15 -41.5996 c 256
 424.15 -77 416.349 -103.479 399.5 -134 c 257
 423.1 -148.801 454.353 -153.05 476.35 -153.05 c 256
 513.709 -153.05 558 -135.947 558 -94 c 256
 558 -57.3623 526.6 -42.75 490 -42.75 c 256
 470.8 -42.75 443.95 -35.2793 443.95 3.7998 c 256
 443.95 33.7998 471.656 53.7998 508.15 53.7998 c 256
 543.55 53.7998 571.15 34.6006 571.15 -0.799805 c 256
 571.15 -4.7998 570.75 -8.7998 569.95 -12.7998 c 257
 544.35 -12.7998 l 257
 545.149 -9.2002 545.55 -5.59961 545.55 -2 c 256
 545.55 18.687 533.8 32 508 32 c 256
 486.184 32 469.75 21.1475 469.75 4.25 c 256
 469.75 -17.9727 484.6 -22 508 -22 c 256
 543.401 -22 592.75 -45.915 592.75 -107 c 256
 592.75 -165.8 539.95 -205.399 487.75 -205.399 c 256
 441.178 -205.399 411.55 -192.8 382.75 -155.6 c 257
 364.142 -176.636 337.708 -196.467 311.95 -204.8 c 257
 297 -184 l 257
 352.2 -160.6 398 -120.2 398 -44 c 256
 398 -1.90039 373.705 30 350 30 c 256
 340.8 30 334.679 28.7441 328 28 c 257
 340 46 l 257
234 -1 m 256
 103 -1 31 69 31 169 c 256
 31 274 104 317 223 317 c 258
 343 317 l 257
 333.277 363.186 304 396 260 396 c 256
 241 396 225.048 383.911 216.5 366 c 256
 206 344 189.802 336 175 336 c 256
 150 336 137 351 137 372 c 256
 137 408.283 177 433 232 433 c 256
 317.739 433 360.904 389.003 379 294 c 257
 242 294 l 258
 154 294 108 257 108 173 c 256
 108 89 172.922 26.001 258 26 c 256
 307.967 26 349.5 46 389.5 92 c 257
 412.5 75 l 257
 372.596 41.7458 345.289 -1 234 -1 c 256
EndSplineSet
EndChar

StartChar: si_DYu.post
Encoding: 271 -1 68
GlifName: si_D_Y_u.post
Width: 614
VWidth: 0
Flags: W
LayerCount: 2
Back
Fore
SplineSet
340 46 m 257
 348.723 48.0625 353.999 50 364 50 c 256
 389.143 50 424.15 10.6006 424.15 -41.5996 c 256
 424.15 -77 416.349 -103.479 399.5 -134 c 257
 423.1 -148.801 454.353 -153.05 476.35 -153.05 c 256
 513.709 -153.05 558 -135.947 558 -94 c 256
 558 -57.3623 526.6 -42.75 490 -42.75 c 256
 470.8 -42.75 443.95 -35.2793 443.95 3.7998 c 256
 443.95 33.7998 471.656 53.7998 508.15 53.7998 c 256
 543.55 53.7998 571.15 34.6006 571.15 -0.799805 c 256
 571.15 -4.7998 570.75 -8.7998 569.95 -12.7998 c 257
 544.35 -12.7998 l 257
 545.149 -9.2002 545.55 -5.59961 545.55 -2 c 256
 545.55 18.687 533.8 32 508 32 c 256
 486.184 32 469.75 21.1475 469.75 4.25 c 256
 469.75 -17.9727 484.6 -22 508 -22 c 256
 543.401 -22 592.75 -45.915 592.75 -107 c 256
 592.75 -165.8 539.95 -205.399 487.75 -205.399 c 256
 441.178 -205.399 411.55 -192.8 382.75 -155.6 c 257
 364.142 -176.636 337.708 -196.467 311.95 -204.8 c 257
 297 -183.75 l 257
 352.2 -160.35 397.5 -120.2 397.5 -44 c 256
 397.5 -1.90039 373.705 28.25 350 28.25 c 256
 340.8 28.25 334.679 26.9941 328 26.25 c 257
 340 46 l 257
234 -1 m 256
 103 -1 31 69 31 169 c 256
 31 274 104 317 223 317 c 258
 343 317 l 257
 333.277 363.186 304 396 260 396 c 256
 241 396 225.048 383.911 216.5 366 c 256
 206 344 189.802 336 175 336 c 256
 150 336 137 351 137 372 c 256
 137 408.283 177 433 232 433 c 256
 317.739 433 360.904 389.003 379 294 c 257
 242 294 l 258
 154 294 108 257 108 173 c 256
 108 89 172.922 26.001 258 26 c 256
 307.967 26 349.5 46 389.5 92 c 257
 412.5 75 l 257
 372.596 41.7458 345.289 -1 234 -1 c 256
586 -139 m 257
 586 -348 l 257
 388.75 -348 l 258
 333.594 -348 307 -318.273 307 -280 c 256
 307 -245.332 334.477 -220 373 -220 c 256
 404.446 -220 420.663 -235.522 430.75 -257.25 c 257
 409.25 -268 l 257
 402.494 -250.732 387.257 -241.75 371 -241.75 c 256
 349.735 -241.75 333.5 -256.963 333.5 -274 c 256
 333.5 -293.439 342.201 -313 401.75 -313 c 258
 559.25 -313 l 257
 559.25 -175.5 l 257
 586 -139 l 257
EndSplineSet
EndChar

StartChar: si_Da.reph
Encoding: 265 -1 69
GlifName: si_D_a.reph
Width: 456
VWidth: 0
Flags: W
LayerCount: 2
Back
Fore
SplineSet
198.586 511 m 256
 198.586 490.446 217.184 473.807 239.5 473.807 c 256
 261.816 473.807 280.414 490.446 280.414 511 c 256
 280.414 531.554 261.816 548.193 239.5 548.193 c 256
 217.184 548.193 198.586 531.554 198.586 511 c 256
96.5 530 m 256
 96.5 594 154.62 631 236.5 631 c 256
 313.5 631 377.5 588 377.5 517 c 256
 377.5 493 369.167 471.333 352.5 452 c 257
 318.75 452 l 257
 331.92 464.387 347.25 488.734 347.25 516 c 256
 347.25 573.241 296.5 603.75 235.5 603.75 c 256
 182.722 603.75 127.75 582.556 127.75 530 c 256
 127.75 490.925 168.804 472.216 192 470.25 c 257
 184 476.25 171.5 491 171.5 512 c 256
 171.5 547 202.854 572 238.5 572 c 256
 279.5 572 307.5 545 307.5 510 c 256
 307.5 471 272.5 445 214.5 445 c 256
 155.5 445 96.5 474 96.5 530 c 256
EndSplineSet
Refer: 460 3503 N 1 0 0 1 0 0 2
EndChar

StartChar: si_Dd.halant
Encoding: 214 -1 70
GlifName: si_D_d.halant
Width: 647
VWidth: 0
Flags: W
LayerCount: 2
Back
Fore
SplineSet
147.25 543 m 256
 147.25 531 171.25 526 171.25 515 c 256
 171.25 513 170.25 510 168.25 508 c 257
 201.25 514 240.925 519 287.25 519 c 256
 395.25 519 480.25 490 538.25 422 c 257
 505.25 537 408.25 590 292.25 590 c 256
 220.25 590 147.25 567 147.25 543 c 256
50.25 442 m 257
 50.25 473 l 257
 82.25 485 134.25 499 134.25 508 c 256
 134.25 520 106.25 524 106.25 546 c 256
 106.25 583 171.25 629 286.25 629 c 256
 494.25 629 568.25 490 580.25 356 c 257
 591.25 329 598 296.135 598 253.75 c 257
 561.25 250 l 257
 561.738 253.399 561.826 267.386 561.826 272 c 256
 561.826 409.451 451.25 493 290.25 493 c 256
 214.25 493 131.25 480 50.25 442 c 257
15 288 m 257
 15 315 l 257
 261 315 l 257
 258.164 357.533 228 391.268 198 391.268 c 256
 180.364 391.268 165.118 387.386 151 363 c 256
 140 344 126.646 339.264 113 339.264 c 256
 93 339.264 76.2109 353 76.2109 374.122 c 256
 76.2109 414 123.101 432.167 165.279 432.167 c 256
 249.407 432.167 293.627 373.979 295 288 c 257
 220 288 l 258
 126.957 288 83.3915 230 83.3915 174 c 256
 83.3915 121.642 123.262 71 198 71 c 256
 247.046 71 299 95.1648 299 143 c 258
 299 178 l 257
 326 178 l 257
 326 143 l 258
 326 97.0863 373.775 71 424 71 c 256
 520.489 71 561.894 167.485 561.894 273.218 c 257
 577.316 269.889 591.314 262.436 597.987 258.222 c 257
 597.987 126.286 547.007 -0.0251312 427.656 -0.0251312 c 256
 363.028 -0.0251312 334.63 28.5207 313 59 c 257
 283.406 21.6861 250 0 199 0 c 256
 97.9838 0 45.8805 81.1903 45.8805 162 c 256
 45.8805 212 71.0487 264.198 125 288 c 257
 15 288 l 257
EndSplineSet
EndChar

StartChar: si_DdI
Encoding: 215 -1 71
GlifName: si_D_dI_
Width: 647
VWidth: 0
Flags: W
LayerCount: 2
Back
Fore
SplineSet
79.25 562 m 256
 79.25 652 215.25 670 315.25 670 c 256
 451.25 670 566 639 566 554 c 256
 566 502 512 480 478 474 c 257
 428 490 l 257
 464 491 519 506 519 544 c 256
 519 600.273 423.25 611 315.25 611 c 256
 239.594 611 121.25 605.886 121.25 554 c 256
 121.25 508 191.25 508 293.25 504 c 256
 358.119 501.456 457 499 512 459 c 256
 561.146 423.257 598 343.803 598 255 c 257
 562 268 l 257
 562 326.618 546.814 383.563 519 414 c 256
 466 472 395.269 472.325 294.25 478 c 256
 205.25 483 79.25 476 79.25 562 c 256
15 288 m 257
 15 315 l 257
 261 315 l 257
 258.164 357.533 228 391.268 198 391.268 c 256
 180.364 391.268 165.118 387.386 151 363 c 256
 140 344 126.646 339.264 113 339.264 c 256
 93 339.264 76.2109 353 76.2109 374.122 c 256
 76.2109 414 123.101 432.167 165.279 432.167 c 256
 249.407 432.167 293.627 373.979 295 288 c 257
 220 288 l 258
 126.957 288 83.3915 230 83.3915 174 c 256
 83.3915 121.642 123.262 71 198 71 c 256
 247.046 71 299 95.1648 299 143 c 258
 299 178 l 257
 326 178 l 257
 326 143 l 258
 326 97.0863 373.775 71 424 71 c 256
 520.489 71 561.894 167.485 561.894 273.218 c 257
 577.316 269.889 591.314 262.436 597.987 258.222 c 257
 597.987 126.286 547.007 -0.0251312 427.656 -0.0251312 c 256
 363.028 -0.0251312 334.63 28.5207 313 59 c 257
 283.406 21.6861 250 0 199 0 c 256
 97.9838 0 45.8805 81.1903 45.8805 162 c 256
 45.8805 212 71.0487 264.198 125 288 c 257
 15 288 l 257
EndSplineSet
EndChar

StartChar: si_DdIi
Encoding: 216 -1 72
GlifName: si_D_dI_i
Width: 647
VWidth: 0
Flags: W
LayerCount: 2
Back
Fore
SplineSet
414.447 555 m 256
 414.447 524.818 441.617 500.543 474.75 500.543 c 256
 507.883 500.543 535.053 524.818 535.053 555 c 256
 535.053 585.182 507.883 609.457 474.75 609.457 c 256
 441.617 609.457 414.447 585.182 414.447 555 c 256
79.5 562 m 256
 79.5 652 215 670 315 670 c 256
 451 670 566.75 642.978 566.75 558 c 256
 566.75 505 518.75 474 474.75 474 c 256
 430.75 474 382.75 505 382.75 558 c 256
 382.75 583 395.75 600 401.75 608 c 257
 394.75 609 357.212 611 315 611 c 256
 239.344 611 121.5 605.886 121.5 554 c 256
 121.5 508 191 508 293 504 c 256
 357.869 501.456 457.75 499 512.75 459 c 256
 561.896 423.257 598 348.429 598 254 c 257
 562 270 l 257
 562 332.979 547.564 383.563 519.75 414 c 256
 466.75 472 395.019 472.325 294 478 c 256
 205 483 79.5 476 79.5 562 c 256
15 288 m 257
 15 315 l 257
 261 315 l 257
 258.164 357.533 228 391.268 198 391.268 c 256
 180.364 391.268 165.118 387.386 151 363 c 256
 140 344 126.646 339.264 113 339.264 c 256
 93 339.264 76.2109 353 76.2109 374.122 c 256
 76.2109 414 123.101 432.167 165.279 432.167 c 256
 249.407 432.167 293.627 373.979 295 288 c 257
 220 288 l 258
 126.957 288 83.3915 230 83.3915 174 c 256
 83.3915 121.642 123.262 71 198 71 c 256
 247.046 71 299 95.1648 299 143 c 258
 299 178 l 257
 326 178 l 257
 326 143 l 258
 326 97.0863 373.775 71 424 71 c 256
 520.489 71 561.894 167.485 561.894 273.218 c 257
 577.316 269.889 591.314 262.436 597.987 258.222 c 257
 597.987 126.286 547.007 -0.0251312 427.656 -0.0251312 c 256
 363.028 -0.0251312 334.63 28.5207 313 59 c 257
 283.406 21.6861 250 0 199 0 c 256
 97.9838 0 45.8805 81.1903 45.8805 162 c 256
 45.8805 212 71.0487 264.198 125 288 c 257
 15 288 l 257
EndSplineSet
EndChar

StartChar: si_DdRI
Encoding: 221 -1 73
GlifName: si_D_dR_I_
Width: 647
VWidth: 0
Flags: W
LayerCount: 2
Back
Fore
SplineSet
56 -44 m 257
 83 -44 l 257
 118.333 -119.333 187.667 -157 293 -157 c 256
 436 -157 554 -90 554 50 c 256
 554 71 549 93 542 102 c 257
 555 133 l 257
 573 106.333 582 74.667 582 38 c 256
 582 -123.729 453 -219 309 -219 c 256
 176 -219 93.333 -153.333 56 -44 c 257
EndSplineSet
Refer: 71 -1 N 1 0 0 1 0 0 2
EndChar

StartChar: si_DdRIi
Encoding: 222 -1 74
GlifName: si_D_dR_I_i
Width: 647
VWidth: 0
Flags: W
LayerCount: 2
Back
Fore
SplineSet
56 -44 m 257
 83 -44 l 257
 118.333 -119.333 187.667 -157 293 -157 c 256
 436 -157 554 -90 554 50 c 256
 554 71 549 93 542 102 c 257
 555 133 l 257
 573 106.333 582 74.667 582 38 c 256
 582 -123.729 453 -219 309 -219 c 256
 176 -219 93.333 -153.333 56 -44 c 257
EndSplineSet
Refer: 72 -1 N 1 0 0 1 0 0 2
EndChar

StartChar: si_DdRa
Encoding: 220 -1 75
GlifName: si_D_dR_a
Width: 647
VWidth: 0
Flags: W
LayerCount: 2
Back
Fore
SplineSet
56 -44 m 257
 83 -44 l 257
 118.333 -119.333 187.667 -157 293 -157 c 256
 436 -157 554 -90 554 50 c 256
 554 71 549 93 542 102 c 257
 555 133 l 257
 573 106.333 582 74.667 582 38 c 256
 582 -123.729 453 -219 309 -219 c 256
 176 -219 93.333 -153.333 56 -44 c 257
EndSplineSet
Refer: 454 3497 N 1 0 0 1 0 0 2
EndChar

StartChar: si_DdU
Encoding: 217 -1 76
GlifName: si_D_dU_
Width: 647
VWidth: 0
Flags: W
LayerCount: 2
Back
Fore
SplineSet
51.5 -142.5 m 256
 51.5 -90.4912 97.793 -50.5 153 -50.5 c 256
 194.906 -50.5 232.25 -74.1416 247 -110 c 257
 217 -121.5 l 257
 209.982 -101.896 186 -80 153 -80 c 256
 116.296 -80 85 -106.714 85 -142.5 c 256
 85 -171.663 108.384 -199 174 -199 c 258
 552.25 -199 l 257
 552.25 128 l 257
 585.25 219 l 257
 585.25 -235 l 257
 157 -235 l 258
 87.8398 -235 51.5 -186.092 51.5 -142.5 c 256
EndSplineSet
Refer: 454 3497 N 1 0 0 1 0 0 2
EndChar

StartChar: si_DdUu
Encoding: 218 -1 77
GlifName: si_D_dU_u
Width: 647
VWidth: 0
Flags: W
LayerCount: 2
Back
Fore
SplineSet
51 -138 m 256
 51 -80 100 -40 153 -40 c 256
 195 -40 227.333 -55 250 -91 c 257
 220 -102 l 257
 208 -83 187 -68 158 -68 c 256
 119 -68 87 -92 87 -129 c 256
 87 -166.366 118 -191 161 -191 c 256
 245 -191 331.5 -117 426.5 -117 c 256
 476.541 -117 526 -136 553 -168 c 257
 553 152 l 257
 586 212 l 257
 586 -231 l 257
 563 -231 l 257
 543.468 -192.515 500.934 -145 429.5 -145 c 256
 338.5 -145 260 -237 162 -237 c 256
 107 -237 51 -206 51 -138 c 256
EndSplineSet
Refer: 454 3497 N 1 0 0 1 0 0 2
EndChar

StartChar: si_Dda.reph
Encoding: 219 -1 78
GlifName: si_D_da.reph
Width: 647
VWidth: 0
Flags: W
LayerCount: 2
Back
Fore
SplineSet
277.336 622 m 256
 277.336 601.446 295.934 584.807 318.25 584.807 c 256
 340.566 584.807 359.164 601.446 359.164 622 c 256
 359.164 642.554 340.566 659.193 318.25 659.193 c 256
 295.934 659.193 277.336 642.554 277.336 622 c 256
175.25 641 m 256
 175.25 705 233.37 742 315.25 742 c 256
 392.25 742 456.25 699 456.25 628 c 256
 456.25 604 447.917 582.333 431.25 563 c 257
 397.5 563 l 257
 410.67 575.387 426 599.734 426 627 c 256
 426 684.241 375.25 714.75 314.25 714.75 c 256
 261.472 714.75 206.5 693.556 206.5 641 c 256
 206.5 601.925 247.554 583.216 270.75 581.25 c 257
 262.75 587.25 250.25 602 250.25 623 c 256
 250.25 658 281.604 683 317.25 683 c 256
 358.25 683 386.25 656 386.25 621 c 256
 386.25 582 351.25 556 293.25 556 c 256
 234.25 556 175.25 585 175.25 641 c 256
EndSplineSet
Refer: 454 3497 N 1 0 0 1 0 0 2
EndChar

StartChar: si_Ddh.halant
Encoding: 223 -1 79
GlifName: si_D_dh.halant
Width: 647
VWidth: 0
Flags: W
LayerCount: 2
Back
Fore
SplineSet
477.25 519 m 257
 483.25 516 499.479 513 510.25 513 c 256
 540.25 513 563.25 526 563.25 562 c 256
 563.25 618 498.25 635 477.25 652 c 257
 477.25 519 l 257
449.25 483 m 257
 449.25 697 l 257
 505.25 650 604.25 654 604.25 561 c 256
 604.25 521 574.25 488 527.25 488 c 256
 503.544 488 486.25 493 477.25 496 c 257
 477.25 453 l 257
 449.25 483 l 257
330.5 479.75 m 256
 330.5 430.417 350.5 390.75 407.5 390.75 c 256
 431.5 390.75 461.551 400.833 477 435.75 c 257
 448.146 475.266 389.5 527.75 351.5 555.75 c 257
 341.516 540.385 330.5 514.417 330.5 479.75 c 256
15 288 m 257
 15 315 l 257
 258 315 l 257
 255.164 357.533 225 391.268 195 391.268 c 256
 177.364 391.268 162.118 387.386 148 363 c 256
 137 344 123.646 339.264 110 339.264 c 256
 90 339.264 73.2109 353 73.2109 374.122 c 256
 73.2109 414 120.101 432.167 162.279 432.167 c 256
 246.407 432.167 290.627 373.979 292 288 c 257
 220 288 l 258
 126.957 288 83.3915 230 83.3915 174 c 256
 83.3915 121.642 123.262 71 198 71 c 256
 247.046 71 299 95.1648 299 143 c 258
 299 178 l 257
 326 178 l 257
 326 143 l 258
 326 97.0863 373.775 71 424 71 c 256
 520.489 71 558.75 165.58 558.75 231.5 c 256
 558.75 317.306 517 375.75 496 407.75 c 257
 475.108 372.995 443.5 354.75 400.5 354.75 c 256
 337.345 354.75 300.5 409.75 300.5 475.75 c 256
 300.5 525.75 317.482 560.998 342.5 592.75 c 257
 403.5 559.75 476.026 486.652 518 428.25 c 256
 561.429 367.823 597.25 291.75 597.25 216.75 c 256
 597.25 127.292 553.345 0 426 0 c 256
 364 0 334.63 28.5207 313 59 c 257
 283.406 21.6861 250 0 199 0 c 256
 97.9838 0 45.8805 81.1903 45.8805 162 c 256
 45.8805 212 71.0487 264.198 125 288 c 257
 15 288 l 257
EndSplineSet
EndChar

StartChar: si_DdhI
Encoding: 224 -1 80
GlifName: si_D_dhI_
Width: 647
VWidth: 0
Flags: W
LayerCount: 2
Back
Fore
SplineSet
341.5 479.75 m 256
 341.5 430.417 361.5 390.75 418.5 390.75 c 256
 442.845 390.75 473.328 400.833 489 435.75 c 257
 459.917 475.266 400.803 527.75 362.5 555.75 c 257
 352.516 540.385 341.5 514.417 341.5 479.75 c 256
15 288 m 257
 15 315 l 257
 258 315 l 257
 255.164 357.533 225 391.268 195 391.268 c 256
 177.364 391.268 162.118 387.386 148 363 c 256
 137 344 123.646 339.264 110 339.264 c 256
 90 339.264 73.2109 353 73.2109 374.122 c 256
 73.2109 414 120.101 432.167 162.279 432.167 c 256
 246.407 432.167 290.627 373.979 292 288 c 257
 220 288 l 258
 126.957 288 83.3915 230 83.3915 174 c 256
 83.3915 121.642 123.262 71 198 71 c 256
 247.046 71 299 95.1648 299 143 c 258
 299 178 l 257
 326 178 l 257
 326 143 l 258
 326 97.0863 373.775 71 424 71 c 256
 520.489 71 558.75 165.58 558.75 231.5 c 256
 558.75 317.306 530.456 377.75 509 407.75 c 257
 487.671 372.995 455.401 354.75 411.5 354.75 c 256
 348.345 354.75 311.5 409.75 311.5 475.75 c 256
 311.5 525.75 328.482 560.998 353.5 592.75 c 257
 414.5 560.954 484.578 493.646 529 434.25 c 256
 577.312 369.652 597.25 294.878 597.25 216.75 c 256
 597.25 127.292 553.345 0 426 0 c 256
 364 0 334.63 28.5207 313 59 c 257
 283.406 21.6861 250 0 199 0 c 256
 97.9838 0 45.8805 81.1903 45.8805 162 c 256
 45.8805 212 71.0487 264.198 125 288 c 257
 15 288 l 257
112 574 m 256
 112 665.82 226.359 700.25 334.5 700.25 c 256
 436.667 700.25 556 664.09 556 573 c 256
 556 526.276 518.387 499 463.5 499 c 257
 457.918 503.613 450.825 513.196 447 520.75 c 257
 459.562 521.31 520 520.077 520 565 c 256
 520 621.681 411.473 635 337 635 c 256
 218.333 635 151 610.984 151 566 c 256
 151 527.13 194.14 514 228 514 c 256
 273.316 514 306.941 526.609 324 534.75 c 257
 322.579 528.495 323.715 520.861 320 505 c 257
 294.967 497.308 269.368 489 226 489 c 256
 165.8 489 112 515.943 112 574 c 256
EndSplineSet
EndChar

StartChar: si_DdhIi
Encoding: 225 -1 81
GlifName: si_D_dhI_i
Width: 647
VWidth: 0
Flags: W
LayerCount: 2
Back
Fore
SplineSet
341.5 479.75 m 256
 341.5 430.417 361.5 390.75 418.5 390.75 c 256
 442.845 390.75 473.328 400.833 489 435.75 c 257
 459.917 475.266 400.803 527.75 362.5 555.75 c 257
 352.516 540.385 341.5 514.417 341.5 479.75 c 256
15 288 m 257
 15 315 l 257
 258 315 l 257
 255.164 357.533 225 391.268 195 391.268 c 256
 177.364 391.268 162.118 387.386 148 363 c 256
 137 344 123.646 339.264 110 339.264 c 256
 90 339.264 73.2109 353 73.2109 374.122 c 256
 73.2109 414 120.101 432.167 162.279 432.167 c 256
 246.407 432.167 290.627 373.979 292 288 c 257
 220 288 l 258
 126.957 288 83.3915 230 83.3915 174 c 256
 83.3915 121.642 123.262 71 198 71 c 256
 247.046 71 299 95.1648 299 143 c 258
 299 178 l 257
 326 178 l 257
 326 143 l 258
 326 97.0863 373.775 71 424 71 c 256
 520.489 71 558.75 165.58 558.75 231.5 c 256
 558.75 317.306 530.456 377.75 509 407.75 c 257
 487.671 372.995 455.401 354.75 411.5 354.75 c 256
 348.345 354.75 311.5 409.75 311.5 475.75 c 256
 311.5 525.75 328.482 560.998 353.5 592.75 c 257
 414.5 560.954 484.578 493.646 529 434.25 c 256
 577.312 369.652 597.25 294.878 597.25 216.75 c 256
 597.25 127.292 553.345 0 426 0 c 256
 364 0 334.63 28.5207 313 59 c 257
 283.406 21.6861 250 0 199 0 c 256
 97.9838 0 45.8805 81.1903 45.8805 162 c 256
 45.8805 212 71.0487 264.198 125 288 c 257
 15 288 l 257
447.995 575.5 m 256
 447.995 546.937 470.437 524.495 499 524.495 c 256
 527.563 524.495 550.005 546.937 550.005 575.5 c 256
 550.005 604.063 527.563 626.505 499 626.505 c 256
 470.437 626.505 447.995 604.063 447.995 575.5 c 256
112 574 m 256
 112 665.82 226.358 699.75 335.25 699.75 c 256
 502.583 699.75 579.5 651.379 579.5 575.25 c 256
 579.5 535.27 548.615 495 498.75 495 c 256
 450.699 495 418.5 534.358 418.5 574.25 c 256
 418.5 588.11 423.917 612.333 441.25 629 c 257
 419.68 633.791 378.759 638.5 330 638.5 c 256
 215.566 638.5 151 610.984 151 566 c 256
 151 527.13 194.14 514 228 514 c 256
 273.316 514 306.941 526.609 324 534.75 c 257
 322.579 528.495 323.715 520.861 320 505 c 257
 294.967 497.308 269.368 489 226 489 c 256
 165.8 489 112 515.943 112 574 c 256
EndSplineSet
EndChar

StartChar: si_DdhU
Encoding: 226 -1 82
GlifName: si_D_dhU_
Width: 647
VWidth: 0
Flags: W
LayerCount: 2
Back
Fore
SplineSet
51.5 -142.5 m 256
 51.5 -90.4912 97.793 -50.5 153 -50.5 c 256
 194.906 -50.5 232.25 -74.1416 247 -110 c 257
 217 -121.5 l 257
 209.982 -101.896 186 -80 153 -80 c 256
 116.296 -80 85 -106.714 85 -142.5 c 256
 85 -171.663 108.384 -199 174 -199 c 258
 552.25 -199 l 257
 552.25 128 l 257
 585.25 219 l 257
 585.25 -235 l 257
 157 -235 l 258
 87.8398 -235 51.5 -186.092 51.5 -142.5 c 256
EndSplineSet
Refer: 455 3498 N 1 0 0 1 0 0 2
EndChar

StartChar: si_DdhUu
Encoding: 227 -1 83
GlifName: si_D_dhU_u
Width: 647
VWidth: 0
Flags: W
LayerCount: 2
Back
Fore
SplineSet
51 -138 m 256
 51 -80 100 -40 153 -40 c 256
 195 -40 227.333 -55 250 -91 c 257
 220 -102 l 257
 208 -83 187 -68 158 -68 c 256
 119 -68 87 -92 87 -129 c 256
 87 -166.366 118 -191 161 -191 c 256
 245 -191 331.5 -117 426.5 -117 c 256
 476.541 -117 526 -136 553 -168 c 257
 553 152 l 257
 586 212 l 257
 586 -231 l 257
 563 -231 l 257
 543.468 -192.515 500.934 -145 429.5 -145 c 256
 338.5 -145 260 -237 162 -237 c 256
 107 -237 51 -206 51 -138 c 256
EndSplineSet
Refer: 455 3498 N 1 0 0 1 0 0 2
EndChar

StartChar: si_Dh.halant
Encoding: 274 -1 84
GlifName: si_D_h.halant
Width: 638
VWidth: 0
Flags: W
LayerCount: 2
Back
Fore
SplineSet
139 543 m 256
 139 531 163 526 163 515 c 256
 163 513 162 510 160 508 c 257
 193 514 232.675 519 279 519 c 256
 387 519 472 490 530 422 c 257
 497 537 400 590 284 590 c 256
 212 590 139 567 139 543 c 256
33 195 m 256
 33 288 86.2482 363.669 152 387 c 256
 172.667 394.333 195.667 398 221 398 c 257
 221 373 l 258
 217.651 373.289 214.316 373.436 211 373.436 c 256
 132 373.436 67 301 67 212 c 256
 67 135.558 114.568 71 188 71 c 256
 238.911 71 290 92 290 156 c 258
 290 196 l 257
 318 196 l 257
 318 156 l 258
 318 92 367.83 71 417 71 c 256
 517.206 71 553.576 187.906 553.576 265.5 c 256
 553.576 412.094 443 493.75 282 493.75 c 256
 206 493.75 123 480 42 442 c 257
 42 473 l 257
 74 485 126 499 126 508 c 256
 126 520 98 524 98 546 c 256
 98 583 163 629 278 629 c 256
 486 629 560 490 572 356 c 257
 581.166 331.008 589.5 287.347 589.5 245 c 256
 589.5 134.355 547.534 2.86033e-14 422 0 c 256
 372.667 0 333 19.6667 303 59 c 257
 272.333 20.3333 234.672 0 190 0 c 256
 88 0 33 96 33 195 c 256
EndSplineSet
EndChar

StartChar: si_DhI
Encoding: 275 -1 85
GlifName: si_D_hI_
Width: 638
VWidth: 0
Flags: W
LayerCount: 2
Back
Fore
SplineSet
33 195 m 256
 33 288 86.2482 363.669 152 387 c 256
 172.667 394.333 195.667 398 221 398 c 257
 221 373 l 258
 217.651 373.289 214.316 373.436 211 373.436 c 256
 132 373.436 67 300.392 67 208.25 c 256
 67 131.808 114.568 71 188 71 c 256
 238.911 71 290 92 290 156 c 258
 290 196 l 257
 318 196 l 257
 318 156 l 258
 318 92 367.83 71 417 71 c 256
 499.189 71 552.966 158.81 552.966 262.977 c 256
 552.966 302.289 543.968 371.494 505 414 c 256
 451.906 471.914 386.019 472.325 285 478 c 256
 196 483 75 476 75 562 c 256
 75 652 206 670 306 670 c 256
 442 670 552 639 552 554 c 256
 552 504.811 503.68 482.466 469.677 475.115 c 257
 479.897 470.561 489.424 465.237 498 459 c 256
 546.224 423.928 587.908 352.624 589.5 248 c 256
 589.5 135.788 547.205 2.87901e-14 422 0 c 256
 372.667 0 333 19.6667 303 59 c 257
 272.333 20.3333 234.672 0 190 0 c 256
 88 0 33 96 33 195 c 256
117 554 m 256
 117 508 182 508 284 504 c 256
 324.18 502.424 375.587 500.882 421.968 490.431 c 257
 457.567 493.257 505 508.711 505 544 c 256
 505 600.273 414 611 306 611 c 256
 230.344 611 117 605.886 117 554 c 256
EndSplineSet
EndChar

StartChar: si_DhIi
Encoding: 276 -1 86
GlifName: si_D_hI_i
Width: 638
VWidth: 0
Flags: W
LayerCount: 2
Back
Fore
SplineSet
33 195 m 256
 33 288 86.2482 363.669 152 387 c 256
 172.667 394.333 195.667 398 221 398 c 257
 221 373 l 258
 217.651 373.289 214.316 373.436 211 373.436 c 256
 132 373.436 67 300.392 67 208.25 c 256
 67 131.808 114.568 71 188 71 c 256
 238.911 71 290 92 290 156 c 258
 290 196 l 257
 318 196 l 257
 318 156 l 258
 318 92 367.83 71 417 71 c 256
 499.189 71 552.966 158.81 552.966 262.977 c 256
 552.966 318.421 541.714 373.822 505 414 c 256
 452 472 386.019 472.325 285 478 c 256
 196 483 75 476 75 562 c 256
 75 652 206 670 306 670 c 256
 442 670 552 639 552 558 c 256
 552 509.315 511.498 479.193 470.798 474.612 c 257
 480.594 470.17 489.844 465.151 498 459 c 256
 553.163 417.394 589.745 343.575 589.546 241 c 256
 589.333 131.234 544.612 2.84217e-14 422 0 c 256
 372.667 0 333 19.6667 303 59 c 257
 272.333 20.3333 234.672 0 190 0 c 256
 88 0 33 96 33 195 c 256
399.697 555 m 256
 399.697 524.818 426.867 500.543 460 500.543 c 256
 493.133 500.543 520.303 524.818 520.303 555 c 256
 520.303 585.182 493.133 609.457 460 609.457 c 256
 426.867 609.457 399.697 585.182 399.697 555 c 256
399.091 494.849 m 257
 380.731 509.244 368 530.705 368 558 c 256
 368 583 381 600 387 608 c 257
 380 609 348.212 611 306 611 c 256
 230.344 611 117 605.886 117 554 c 256
 117 508 182 508 284 504 c 256
 317.668 502.68 359.219 501.383 399.091 494.849 c 257
EndSplineSet
EndChar

StartChar: si_DhRI
Encoding: 281 -1 87
GlifName: si_D_hR_I_
Width: 638
VWidth: 0
Flags: W
LayerCount: 2
Back
Fore
SplineSet
56 -44 m 257
 83 -44 l 257
 118.333 -119.333 187.667 -157 293 -157 c 256
 436 -157 554 -90 554 50 c 256
 554 71 549 93 542 102 c 257
 555 133 l 257
 573 106.333 582 74.667 582 38 c 256
 582 -123.729 453 -219 309 -219 c 256
 176 -219 93.333 -153.333 56 -44 c 257
EndSplineSet
Refer: 85 -1 N 1 0 0 1 0 0 2
EndChar

StartChar: si_DhRIi
Encoding: 282 -1 88
GlifName: si_D_hR_I_i
Width: 638
VWidth: 0
Flags: W
LayerCount: 2
Back
Fore
SplineSet
56 -44 m 257
 83 -44 l 257
 118.333 -119.333 187.667 -157 293 -157 c 256
 436 -157 554 -90 554 50 c 256
 554 71 549 93 542 102 c 257
 555 133 l 257
 573 106.333 582 74.667 582 38 c 256
 582 -123.729 453 -219 309 -219 c 256
 176 -219 93.333 -153.333 56 -44 c 257
EndSplineSet
Refer: 86 -1 N 1 0 0 1 0 0 2
EndChar

StartChar: si_DhRa
Encoding: 280 -1 89
GlifName: si_D_hR_a
Width: 638
VWidth: 0
Flags: W
LayerCount: 2
Back
Fore
SplineSet
56 -44 m 257
 83 -44 l 257
 118.333 -119.333 187.667 -157 293 -157 c 256
 436 -157 554 -90 554 50 c 256
 554 71 549 93 542 102 c 257
 555 133 l 257
 573 106.333 582 74.667 582 38 c 256
 582 -123.729 453 -219 309 -219 c 256
 176 -219 93.333 -153.333 56 -44 c 257
EndSplineSet
Refer: 461 3504 N 1 0 0 1 0 0 2
EndChar

StartChar: si_DhU
Encoding: 277 -1 90
GlifName: si_D_hU_
Width: 638
VWidth: 0
Flags: W
LayerCount: 2
Back
Fore
SplineSet
51.5 -142.5 m 256
 51.5 -90.4912 97.793 -50.5 153 -50.5 c 256
 194.906 -50.5 232.25 -74.1416 247 -110 c 257
 217 -121.5 l 257
 209.982 -101.896 186 -80 153 -80 c 256
 116.296 -80 85 -106.714 85 -142.5 c 256
 85 -171.663 108.384 -199 174 -199 c 258
 542 -199 l 257
 542 128 l 257
 575 219 l 257
 575 -235 l 257
 157 -235 l 258
 87.8398 -235 51.5 -186.092 51.5 -142.5 c 256
EndSplineSet
Refer: 461 3504 N 1 0 0 1 0 0 2
EndChar

StartChar: si_DhUu
Encoding: 278 -1 91
GlifName: si_D_hU_u
Width: 638
VWidth: 0
Flags: W
LayerCount: 2
Back
Fore
SplineSet
51 -138 m 256
 51 -80 100 -40 153 -40 c 256
 195 -40 227.333 -55 250 -91 c 257
 220 -102 l 257
 208 -83 187 -68 158 -68 c 256
 119 -68 87 -92 87 -129 c 256
 87 -166.366 118 -191 161 -191 c 256
 245 -191 328 -117 423 -117 c 256
 466 -117 515 -136 542 -168 c 257
 542 152 l 257
 575 212 l 257
 575 -231 l 257
 552 -231 l 257
 537 -195 494 -144 426 -144 c 256
 335 -144 260 -237 162 -237 c 256
 107 -237 51 -206 51 -138 c 256
EndSplineSet
Refer: 461 3504 N 1 0 0 1 0 0 2
EndChar

StartChar: si_Dha.reph
Encoding: 279 -1 92
GlifName: si_D_ha.reph
Width: 638
VWidth: 0
Flags: W
LayerCount: 2
Back
Fore
SplineSet
273.586 622 m 256
 273.586 642.554 292.184 659.193 314.5 659.193 c 256
 336.816 659.193 355.414 642.554 355.414 622 c 256
 355.414 601.446 336.816 584.807 314.5 584.807 c 256
 292.184 584.807 273.586 601.446 273.586 622 c 256
171.5 641 m 256
 171.5 585 230.5 556 289.5 556 c 256
 347.5 556 382.5 582 382.5 621 c 256
 382.5 656 354.5 683 313.5 683 c 256
 277.854 683 246.5 658 246.5 623 c 256
 246.5 602 259 587.25 267 581.25 c 257
 243.804 583.216 202.75 601.925 202.75 641 c 256
 202.75 693.556 257.722 714.75 310.5 714.75 c 256
 371.5 714.75 422.25 684.241 422.25 627 c 256
 422.25 599.734 406.92 575.387 393.75 563 c 257
 427.5 563 l 257
 444.167 582.333 452.5 604 452.5 628 c 256
 452.5 699 388.5 742 311.5 742 c 256
 229.62 742 171.5 705 171.5 641 c 256
EndSplineSet
Refer: 461 3504 N 1 0 0 1 0 0 2
EndChar

StartChar: si_DvocR
Encoding: 262 -1 93
GlifName: si_D_vocR_
Width: 703
VWidth: 0
Flags: W
LayerCount: 2
Back
Fore
SplineSet
425.882 249 m 256
 425.882 329 462.009 393 536 393 c 256
 622.896 393 657 298 657 203 c 256
 657 144 640 52.4365 640 23 c 256
 640 15.667 640.333 9 641 3 c 257
 611 3 l 257
 608.333 12.333 603.333 17 596 17 c 256
 583.847 17 558 -1 524 -1 c 256
 465 -1 426 49.2598 426 106 c 256
 426 153.333 448 186.333 492 205 c 256
 518 216.333 559 222 596 222 c 257
 596 312 569 358 526 358 c 256
 474.285 358 450.953 308 450.953 246 c 256
 450.953 244.333 450.964 243.666 451 242 c 257
 426 242 l 257
 425.918 244.678 425.882 246.345 425.882 249 c 256
456 107 m 256
 456 64.6504 484.819 28 526 28 c 256
 552 28 579.26 43 589 43 c 256
 592.333 43 595.333 42 598 40 c 257
 596 53.333 595 78.833 595 116.5 c 256
 595 147.879 596.157 168 596.157 186 c 256
 596.157 188.996 596.111 192.663 596 195 c 257
 581 195 545 194 516 185 c 256
 480.315 173.926 456 150.545 456 107 c 256
EndSplineSet
Refer: 460 3503 N 1 0 0 1 0 0 2
EndChar

StartChar: si_DvocRr
Encoding: 263 -1 94
GlifName: si_D_vocR_r
Width: 962
VWidth: 0
Flags: W
LayerCount: 2
Back
Fore
SplineSet
681.882 249 m 256
 681.882 329 718.009 393 792 393 c 256
 878.896 393 913 298 913 203 c 256
 913 144 896 52.4365 896 23 c 256
 896 15.667 896.333 9 897 3 c 257
 867 3 l 257
 864.333 12.333 859.333 17 852 17 c 256
 839.847 17 814 -1 780 -1 c 256
 721 -1 682 49.2598 682 106 c 256
 682 153.333 704 186.333 748 205 c 256
 774 216.333 815 222 852 222 c 257
 852 312 825 358 782 358 c 256
 730.285 358 706.953 308 706.953 246 c 256
 706.953 244.333 706.964 243.666 707 242 c 257
 682 242 l 257
 681.918 244.678 681.882 246.345 681.882 249 c 256
712 107 m 256
 712 64.6504 740.819 28 782 28 c 256
 808 28 835.26 43 845 43 c 256
 848.333 43 851.333 42 854 40 c 257
 852 53.333 851 78.833 851 116.5 c 256
 851 147.879 852.157 168 852.157 186 c 256
 852.157 188.996 852.111 192.663 852 195 c 257
 837 195 801 194 772 185 c 256
 736.315 173.926 712 150.545 712 107 c 256
425.882 249 m 256
 425.882 329 462.009 393 536 393 c 256
 622.896 393 657 298 657 203 c 256
 657 144 640 52.4365 640 23 c 256
 640 15.667 640.333 9 641 3 c 257
 611 3 l 257
 608.333 12.333 603.333 17 596 17 c 256
 583.847 17 558 -1 524 -1 c 256
 465 -1 426 49.2598 426 106 c 256
 426 153.333 448 186.333 492 205 c 256
 518 216.333 559 222 596 222 c 257
 596 312 569 358 526 358 c 256
 474.285 358 450.953 308 450.953 246 c 256
 450.953 244.333 450.964 243.666 451 242 c 257
 426 242 l 257
 425.918 244.678 425.882 246.345 425.882 249 c 256
456 107 m 256
 456 64.6504 484.819 28 526 28 c 256
 552 28 579.26 43 589 43 c 256
 592.333 43 595.333 42 598 40 c 257
 596 53.333 595 78.833 595 116.5 c 256
 595 147.879 596.157 168 596.157 186 c 256
 596.157 188.996 596.111 192.663 596 195 c 257
 581 195 545 194 516 185 c 256
 480.315 173.926 456 150.545 456 107 c 256
EndSplineSet
Refer: 460 3503 N 1 0 0 1 0 0 2
EndChar

StartChar: si_F.halant
Encoding: 420 -1 95
GlifName: si_F_.halant
Width: 607
VWidth: 0
Flags: W
LayerCount: 2
Back
Fore
SplineSet
405 412.75 m 257
 405 680 l 257
 459 638 555 633 555 541 c 256
 555 497 520.191 467 477 467 c 256
 462.333 467 447.333 470.333 432 477 c 257
 432 410 l 257
 405 412.75 l 257
432 502 m 257
 440.667 497.333 451.667 495 465 495 c 256
 503 495 518 520 518 544 c 256
 518 586 479 606 432 637 c 257
 432 502 l 257
EndSplineSet
Refer: 479 3526 N 1 0 0 1 0 0 2
EndChar

StartChar: si_FI
Encoding: 421 -1 96
GlifName: si_F_I_
Width: 607
VWidth: 0
Flags: W
LayerCount: 2
Back
Fore
SplineSet
64 518 m 256
 64 626.291 176.621 671 296 671 c 256
 415.379 671 528 626.291 528 518 c 256
 528 443.457 461.857 408.074 385 405 c 257
 385 426 l 257
 438.676 428.825 494 454 494 509 c 256
 494 580.089 384.908 598 296 598 c 256
 207.092 598 98 580.089 98 509 c 256
 98 454 153.324 428.825 207 426 c 257
 207 405 l 257
 130.143 408.074 64 443.457 64 518 c 256
EndSplineSet
Refer: 479 3526 N 1 0 0 1 0 0 2
EndChar

StartChar: si_FIi
Encoding: 422 -1 97
GlifName: si_F_I_i
Width: 607
VWidth: 0
Flags: W
LayerCount: 2
Back
Fore
SplineSet
375.75 514 m 256
 375.75 483 405.75 458 441.75 458 c 256
 477.75 458 507.75 483 507.75 514 c 256
 507.75 545 477.75 570 441.75 570 c 256
 405.75 570 375.75 545 375.75 514 c 256
48.25 517 m 256
 48.25 620.172 165.196 671 292.25 671 c 256
 408.964 671 542.75 627.399 542.75 524 c 256
 542.75 468.769 498.027 429 441.75 429 c 256
 383.75 429 343.75 470 343.75 515 c 256
 343.75 560 375.75 582 394.75 591 c 257
 383.75 594 347.25 600 293.25 600 c 256
 199.086 600 85.25 573.672 85.25 499 c 256
 85.25 460.333 112.714 434.625 150.25 426 c 257
 138.25 406 l 257
 84.7354 413.736 48.25 456 48.25 517 c 256
EndSplineSet
Refer: 479 3526 N 1 0 0 1 0 0 2
EndChar

StartChar: si_FRI
Encoding: 427 -1 98
GlifName: si_F_R_I_
Width: 607
VWidth: 0
Flags: W
LayerCount: 2
Back
Fore
SplineSet
64 518 m 256
 64 626.291 176.621 671 296 671 c 256
 415.379 671 528 626.291 528 518 c 256
 528 443.457 461.857 408.074 385 405 c 257
 385 426 l 257
 438.676 428.825 494 454 494 509 c 256
 494 580.089 384.908 598 296 598 c 256
 207.092 598 98 580.089 98 509 c 256
 98 454 153.324 428.825 207 426 c 257
 207 405 l 257
 130.143 408.074 64 443.457 64 518 c 256
60.1514 -44 m 257
 88.0176 -44 l 257
 121.59 -119.333 182.381 -157 282.47 -157 c 256
 418.35 -157 521.278 -90 521.278 50 c 256
 521.278 71 518.299 89.89 510 102 c 257
 522.56 142 l 257
 544.393 109.27 549.849 74.667 549.849 38 c 256
 549.849 -123.729 434.503 -219 297.674 -219 c 256
 171.295 -219 95.625 -153.333 60.1514 -44 c 257
EndSplineSet
Refer: 479 3526 N 1 0 0 1 0 0 2
EndChar

StartChar: si_FRIi
Encoding: 428 -1 99
GlifName: si_F_R_I_i
Width: 607
VWidth: 0
Flags: W
LayerCount: 2
Back
Fore
SplineSet
375.75 514 m 256
 375.75 483 405.75 458 441.75 458 c 256
 477.75 458 507.75 483 507.75 514 c 256
 507.75 545 477.75 570 441.75 570 c 256
 405.75 570 375.75 545 375.75 514 c 256
48.25 517 m 256
 48.25 620.172 165.196 671 292.25 671 c 256
 408.964 671 542.75 627.399 542.75 524 c 256
 542.75 468.769 498.027 429 441.75 429 c 256
 383.75 429 343.75 470 343.75 515 c 256
 343.75 560 375.75 582 394.75 591 c 257
 383.75 594 347.25 600 293.25 600 c 256
 199.086 600 85.25 573.672 85.25 499 c 256
 85.25 460.333 112.714 434.625 150.25 426 c 257
 138.25 406 l 257
 84.7354 413.736 48.25 456 48.25 517 c 256
60.1514 -44 m 257
 88.0176 -44 l 257
 121.59 -119.333 182.381 -157 282.47 -157 c 256
 418.35 -157 521.278 -90 521.278 50 c 256
 521.278 71 518.299 89.89 510 102 c 257
 522.56 142 l 257
 544.393 109.27 549.849 74.667 549.849 38 c 256
 549.849 -123.729 434.503 -219 297.674 -219 c 256
 171.295 -219 95.625 -153.333 60.1514 -44 c 257
EndSplineSet
Refer: 479 3526 N 1 0 0 1 0 0 2
EndChar

StartChar: si_FRa
Encoding: 426 -1 100
GlifName: si_F_R_a
Width: 607
VWidth: 0
Flags: W
LayerCount: 2
Back
Fore
SplineSet
60.1514 -44 m 257
 88.0176 -44 l 257
 121.59 -119.333 182.381 -157 282.47 -157 c 256
 418.35 -157 521.278 -90 521.278 50 c 256
 521.278 71 518.299 89.89 510 102 c 257
 522.56 142 l 257
 544.393 109.27 549.849 74.667 549.849 38 c 256
 549.849 -123.729 434.503 -219 297.674 -219 c 256
 171.295 -219 95.625 -153.333 60.1514 -44 c 257
EndSplineSet
Refer: 479 3526 N 1 0 0 1 0 0 2
EndChar

StartChar: si_FU
Encoding: 423 -1 101
GlifName: si_F_U_
Width: 607
VWidth: 0
Flags: W
LayerCount: 2
Back
Fore
SplineSet
53.5 -142.5 m 256
 53.5 -90.4912 99.793 -50.5 155 -50.5 c 256
 196.906 -50.5 234.25 -74.1416 249 -110 c 257
 219 -121.5 l 257
 211.982 -101.896 188 -80 155 -80 c 256
 118.296 -80 87 -106.714 87 -142.5 c 256
 87 -171.663 110.384 -199 176 -199 c 258
 513 -199 l 257
 513 111 l 257
 546 181 l 257
 546 -235 l 257
 159 -235 l 258
 90.25 -235 53.5 -186.092 53.5 -142.5 c 256
EndSplineSet
Refer: 479 3526 N 1 0 0 1 0 0 2
EndChar

StartChar: si_FUu
Encoding: 424 -1 102
GlifName: si_F_U_u
Width: 607
VWidth: 0
Flags: W
LayerCount: 2
Back
Fore
SplineSet
53 -138 m 256
 53 -80 102 -40 155 -40 c 256
 197 -40 229.333 -55 252 -91 c 257
 222 -102 l 257
 210 -83 189 -68 160 -68 c 256
 121 -68 89 -92 89 -129 c 256
 89 -166.366 120 -191 163 -191 c 256
 247 -191 311.5 -117 406.5 -117 c 256
 454.094 -117 488.329 -132.392 513 -162 c 257
 513 99 l 257
 546 200.75 l 257
 546 -231 l 257
 523 -231 l 257
 508 -195 474.375 -144 409.5 -144 c 256
 318.5 -144 262 -237 164 -237 c 256
 109 -237 53 -206 53 -138 c 256
EndSplineSet
Refer: 479 3526 N 1 0 0 1 0 0 2
EndChar

StartChar: si_Fa.reph
Encoding: 425 -1 103
GlifName: si_F_a.reph
Width: 607
VWidth: 0
Flags: W
LayerCount: 2
Back
Fore
SplineSet
258.836 511 m 256
 258.836 490.446 277.434 473.807 299.75 473.807 c 256
 322.066 473.807 340.664 490.446 340.664 511 c 256
 340.664 531.554 322.066 548.193 299.75 548.193 c 256
 277.434 548.193 258.836 531.554 258.836 511 c 256
156.75 530 m 256
 156.75 594 214.87 631 296.75 631 c 256
 373.75 631 437.75 588 437.75 517 c 256
 437.75 493 429.417 471.333 412.75 452 c 257
 379 452 l 257
 392.17 464.387 407.5 488.734 407.5 516 c 256
 407.5 573.241 356.75 603.75 295.75 603.75 c 256
 242.972 603.75 188 582.556 188 530 c 256
 188 490.925 229.054 472.216 252.25 470.25 c 257
 244.25 476.25 231.75 491 231.75 512 c 256
 231.75 547 263.104 572 298.75 572 c 256
 339.75 572 367.75 545 367.75 510 c 256
 367.75 471 332.75 445 274.75 445 c 256
 215.75 445 156.75 474 156.75 530 c 256
EndSplineSet
Refer: 479 3526 N 1 0 0 1 0 0 2
EndChar

StartChar: si_G.halant
Encoding: 109 -1 104
GlifName: si_G_.halant
Width: 636
VWidth: 0
Flags: W
LayerCount: 2
Back
Fore
SplineSet
436 387 m 257
 436 681 l 257
 490 639 586 634 586 542 c 256
 586 498 551.191 468 508 468 c 256
 493.333 468 478.333 471.333 463 478 c 257
 463 370 l 257
 436 387 l 257
463 503 m 257
 471.667 498.333 482.667 496 496 496 c 256
 534 496 549 521 549 545 c 256
 549 587 510 607 463 638 c 257
 463 503 l 257
EndSplineSet
Refer: 441 3484 N 1 0 0 1 0 0 2
EndChar

StartChar: si_GDha
Encoding: 437 -1 105
GlifName: si_G_D_ha
Width: 942
VWidth: 0
Flags: W
LayerCount: 2
Back
Fore
SplineSet
34 207 m 256
 34 330 109 431.5 220 431.5 c 256
 223.953 431.5 228.954 431.25 233 431 c 257
 233 408 l 257
 229.645 408.284 225.311 408.45 222 408.45 c 256
 136 408.45 69 332 69 230 c 256
 69 147 117.309 71 206 71 c 256
 265 71 318 98.6416 318 158 c 256
 318 196 298.453 217 267 217 c 256
 259.667 217 250.75 215 243.75 210 c 257
 242.75 204 241.75 195.333 241.75 192 c 257
 216 192 l 257
 226.196 316.902 288 431.5 410 431.5 c 256
 466.521 431.5 491.823 420.777 527.75 398 c 257
 514.927 390.982 494.006 394.64 482 392 c 257
 458.25 402.362 431.432 404.5 414.5 404.5 c 256
 309.653 404.5 265.965 319.767 247.75 236 c 257
 255.75 240 263.333 241 270 241 c 256
 318 241 352 202 352 136 c 256
 352 56 295 -2 208 -2 c 256
 97 -2 34 96 34 207 c 256
EndSplineSet
Refer: 461 3504 N 1 0 0 1 307 0 2
EndChar

StartChar: si_GI
Encoding: 110 -1 106
GlifName: si_G_I_
Width: 636
VWidth: 0
Flags: W
LayerCount: 2
Back
Fore
SplineSet
150 537 m 256
 150 628 248.984 667 351 667 c 256
 456.344 667 559 618 559 523 c 256
 559 461 520 415 439 409 c 257
 421 431 l 257
 423.693 430.868 426.361 430.806 429 430.806 c 256
 487 430.806 530 462.296 530 512 c 256
 530 576.843 430.674 598 351 598 c 256
 269.527 598 191 568 191 516 c 256
 191 455.697 325 431.5 411 431.492 c 256
 412.006 431.492 412.006 431.494 413 431.5 c 257
 397 412 l 257
 237 415.333 150 462 150 537 c 256
34 207 m 256
 34 330 110 431.5 207 431.5 c 256
 210.953 431.5 207.954 431.25 212 431 c 257
 212 408 l 257
 208.645 408.284 211.311 408.45 208 408.45 c 256
 136 408.45 69 332 69 230 c 256
 69 147 117.309 71 206 71 c 256
 265 71 318 98.6416 318 158 c 256
 318 196 298.453 217 267 217 c 256
 259.667 217 250 215 243 210 c 257
 242 204 241 195.333 241 192 c 257
 216 192 l 257
 226.196 316.902 288 431.5 410 431.5 c 256
 522 431.5 586 332 586 217 c 256
 586 95 500.053 -1 369 -1 c 256
 359 -1 348.667 -0.333333 338 1 c 257
 338 26 l 257
 346 25 354 24 362 24 c 256
 469 24 543 100 543 200 c 256
 543 301 484 371 393 371 c 256
 316.35 371 263 313 247 236 c 257
 255 240 263.333 241 270 241 c 256
 318 241 352 202 352 136 c 256
 352 56 295 -2 208 -2 c 256
 97 -2 34 96 34 207 c 256
EndSplineSet
EndChar

StartChar: si_GIi
Encoding: 111 -1 107
GlifName: si_G_I_i
Width: 636
VWidth: 0
Flags: W
LayerCount: 2
Back
Fore
SplineSet
34 207 m 256
 34 330 110 431.5 207 431.5 c 256
 210.953 431.5 207.954 431.25 212 431 c 257
 212 408 l 258
 208.645 408.284 211.311 408.45 208 408.45 c 256
 136 408.45 69 332 69 230 c 256
 69 147 117.309 71 206 71 c 256
 265 71 318 98.6416 318 158 c 256
 318 196 298.453 217 267 217 c 256
 259.667 217 250 215 243 210 c 257
 242 204 241 195.333 241 192 c 258
 216 192 l 257
 223.923 289.059 263.01 379.895 337.29 415.571 c 257
 215.477 428.194 150 471.935 150 537 c 256
 150 628 248.984 667 351 667 c 256
 456.345 667 559 618 559 525 c 256
 559 456 501 431 458 431 c 256
 414 431 361 464 361 519 c 256
 361 564.604 395 591 411 593.824 c 257
 389 597 374.64 598 351 598 c 256
 269.527 598 191 568 191 516 c 256
 191 455.177 325.926 431.5 412.981 431.476 c 257
 523.135 429.727 586 330.976 586 217 c 256
 586 95 500.053 -1 369 -1 c 256
 359 -1 348.667 -0.333333 338 1 c 257
 338 26 l 257
 346 25 354 24 362 24 c 256
 469 24 543 100 543 200 c 256
 543 301 484 371 393 371 c 256
 316.35 371 263 313 247 236 c 257
 255 240 263.333 241 270 241 c 256
 318 241 352 202 352 136 c 256
 352 56 295 -2 208 -2 c 256
 97 -2 34 96 34 207 c 256
389.4 520 m 256
 389.4 485.057 420.778 456.532 460 456.532 c 256
 499.222 456.532 530.6 485.057 530.6 520 c 256
 530.6 554.943 499.222 583.468 460 583.468 c 256
 420.778 583.468 389.4 554.943 389.4 520 c 256
EndSplineSet
EndChar

StartChar: si_GR.halant
Encoding: 116 -1 108
GlifName: si_G_R_.halant
Width: 636
VWidth: 0
Flags: W
LayerCount: 2
Back
Fore
SplineSet
56 -44 m 257
 83 -44 l 257
 118.333 -119.333 187.667 -157 293 -157 c 256
 436 -157 554 -90 554 50 c 256
 554 71 549 93 542 102 c 257
 555 133 l 257
 573 106.333 582 74.667 582 38 c 256
 582 -123.729 453 -219 309 -219 c 256
 176 -219 93.333 -153.333 56 -44 c 257
EndSplineSet
Refer: 104 -1 N 1 0 0 1 0 0 2
EndChar

StartChar: si_GRI
Encoding: 117 -1 109
GlifName: si_G_R_I_
Width: 636
VWidth: 0
Flags: W
LayerCount: 2
Back
Fore
SplineSet
56 -44 m 257
 83 -44 l 257
 118.333 -119.333 187.667 -157 293 -157 c 256
 436 -157 554 -90 554 50 c 256
 554 71 549 93 542 102 c 257
 555 133 l 257
 573 106.333 582 74.667 582 38 c 256
 582 -123.729 453 -219 309 -219 c 256
 176 -219 93.333 -153.333 56 -44 c 257
EndSplineSet
Refer: 106 -1 N 1 0 0 1 0 0 2
EndChar

StartChar: si_GRIi
Encoding: 118 -1 110
GlifName: si_G_R_I_i
Width: 636
VWidth: 0
Flags: W
LayerCount: 2
Back
Fore
SplineSet
56 -44 m 257
 83 -44 l 257
 118.333 -119.333 187.667 -157 293 -157 c 256
 436 -157 554 -90 554 50 c 256
 554 71 549 93 542 102 c 257
 555 133 l 257
 573 106.333 582 74.667 582 38 c 256
 582 -123.729 453 -219 309 -219 c 256
 176 -219 93.333 -153.333 56 -44 c 257
EndSplineSet
Refer: 107 -1 N 1 0 0 1 0 0 2
EndChar

StartChar: si_GRa
Encoding: 115 -1 111
GlifName: si_G_R_a
Width: 636
VWidth: 0
Flags: W
LayerCount: 2
Back
Fore
SplineSet
56 -44 m 257
 83 -44 l 257
 118.333 -119.333 187.667 -157 293 -157 c 256
 436 -157 554 -90 554 50 c 256
 554 71 549 93 542 102 c 257
 555 133 l 257
 573 106.333 582 74.667 582 38 c 256
 582 -123.729 453 -219 309 -219 c 256
 176 -219 93.333 -153.333 56 -44 c 257
EndSplineSet
Refer: 441 3484 N 1 0 0 1 0 0 2
EndChar

StartChar: si_GU
Encoding: 112 -1 112
GlifName: si_G_U_
Width: 636
VWidth: 0
Flags: W
LayerCount: 2
Back
Fore
SplineSet
306 -80 m 256
 306 -30 336 9 379 21 c 257
 385 -6 l 257
 363 -14 344 -34 344 -63 c 256
 344 -109.283 394.048 -132 445.5 -132 c 256
 506.5 -132 553.692 -93.7344 553.692 -45 c 256
 553.692 -42.0391 553.419 -39.0381 553 -36 c 257
 583 -36 l 257
 585.354 -45.416 585.435 -60.29 585.435 -69.5 c 256
 585.435 -122.145 541.701 -191.5 441 -191.5 c 256
 377.71 -191.5 306 -149.233 306 -80 c 256
34 207 m 256
 34 330 109 431.5 220 431.5 c 256
 223.953 431.5 228.954 431.25 233 431 c 257
 233 408 l 257
 229.645 408.284 225.311 408.45 222 408.45 c 256
 136 408.45 69 332 69 230 c 256
 69 147 117.309 71 206 71 c 256
 265 71 318 98.6416 318 158 c 256
 318 196 298.453 217 267 217 c 256
 259.667 217 250 215 243 210 c 257
 242 204 241 195.333 241 192 c 257
 216 192 l 257
 226.196 316.902 288 431.5 410 431.5 c 256
 522 431.5 586 332 586 217 c 256
 586 95 506 0 426 0 c 256
 416 0 394 -2 380 -8 c 257
 370 18 l 257
 389 26 407 27 415 27 c 256
 478 27 543 100 543 200 c 256
 543 301 484 371 393 371 c 256
 316.35 371 263 313 247 236 c 257
 255 240 263.333 241 270 241 c 256
 318 241 352 202 352 136 c 256
 352 56 295 -2 208 -2 c 256
 97 -2 34 96 34 207 c 256
EndSplineSet
EndChar

StartChar: si_GUu
Encoding: 113 -1 113
GlifName: si_G_U_u
Width: 636
VWidth: 0
Flags: W
LayerCount: 2
Back
Fore
SplineSet
336 -129 m 256
 336 -93.3486 367.562 -72 400 -67 c 257
 345 -39 l 257
 432 -14 l 257
 338.5 1 l 257
 387 13 l 257
 506.5 -7 l 257
 401.5 -44 l 257
 461 -76 l 257
 433 -83 376 -85.5 376 -115 c 256
 376 -146 417.924 -155 460 -155 c 256
 514 -155 559.729 -131 559.729 -82 c 256
 559.729 -77 559.193 -69.3867 554 -59 c 257
 587 -59 l 257
 590.591 -71.1182 591.304 -82.833 591.304 -94 c 256
 591.304 -161 540 -205 458 -205 c 256
 400 -205 336 -187.466 336 -129 c 256
EndSplineSet
Refer: 441 3484 N 1 0 0 1 0 0 2
EndChar

StartChar: si_Gh.halant
Encoding: 119 -1 115
GlifName: si_G_h.halant
Width: 677
VWidth: 0
Flags: W
LayerCount: 2
Back
Fore
SplineSet
478 413 m 257
 478 680 l 257
 532 638 628 633 628 541 c 256
 628 497 593.191 467 550 467 c 256
 535.333 467 520.333 470.333 505 477 c 257
 505 396 l 257
 478 413 l 257
505 502 m 257
 513.667 497.333 524.667 495 538 495 c 256
 576 495 591 520 591 544 c 256
 591 586 552 606 505 637 c 257
 505 502 l 257
EndSplineSet
Refer: 442 3485 N 1 0 0 1 0 0 2
EndChar

StartChar: si_GhI
Encoding: 120 -1 116
GlifName: si_G_hI_
Width: 677
VWidth: 0
Flags: W
LayerCount: 2
Back
Fore
SplineSet
102.5 517 m 256
 102.5 625.291 215.121 670 334.5 670 c 256
 453.879 670 566.5 625.291 566.5 517 c 256
 566.5 442.457 500.357 407.074 423.5 404 c 257
 452 430 l 257
 476.387 432.386 532.5 453 532.5 508 c 256
 532.5 579.089 423.408 597 334.5 597 c 256
 245.592 597 136.5 579.089 136.5 508 c 256
 136.5 453 190.272 433.937 216 429 c 257
 245.5 404 l 257
 168.643 407.074 102.5 442.457 102.5 517 c 256
EndSplineSet
Refer: 442 3485 N 1 0 0 1 0 0 2
EndChar

StartChar: si_GhIi
Encoding: 121 -1 117
GlifName: si_G_hI_i
Width: 677
VWidth: 0
Flags: W
LayerCount: 2
Back
Fore
SplineSet
422.5 514 m 256
 422.5 483 452.5 458 488.5 458 c 256
 524.5 458 554.5 483 554.5 514 c 256
 554.5 545 524.5 570 488.5 570 c 256
 452.5 570 422.5 545 422.5 514 c 256
85.5 517 m 256
 85.5 624.211 209.446 671 336.5 671 c 256
 453.214 671 589.5 627.399 589.5 524 c 256
 589.5 468.769 544.777 429 488.5 429 c 256
 430.5 429 390.5 470 390.5 515 c 256
 390.5 560 422.5 582 441.5 591 c 257
 430.5 594 391.5 600 337.5 600 c 256
 243.336 600 122.5 578 122.5 499 c 256
 122.5 460.333 144.5 435 182.5 426 c 257
 175.5 406 l 257
 122.255 410.733 85.5 456 85.5 517 c 256
EndSplineSet
Refer: 442 3485 N 1 0 0 1 0 0 2
EndChar

StartChar: si_GhRI
Encoding: 125 -1 118
GlifName: si_G_hR_I_
Width: 677
VWidth: 0
Flags: W
LayerCount: 2
Back
Fore
SplineSet
63.5 -44 m 257
 90.5 -44 l 257
 125.833 -119.333 211.667 -157 317 -157 c 256
 460 -157 601.5 -90 601.5 50 c 256
 601.5 71 596.5 93 589.5 102 c 257
 600.5 133 l 257
 618.5 106.333 627.5 74.667 627.5 38 c 256
 627.5 -123.729 484 -219 333 -219 c 256
 192 -219 100.833 -153.333 63.5 -44 c 257
EndSplineSet
Refer: 116 -1 N 1 0 0 1 0 0 2
EndChar

StartChar: si_GhRIi
Encoding: 126 -1 119
GlifName: si_G_hR_I_i
Width: 677
VWidth: 0
Flags: W
LayerCount: 2
Back
Fore
SplineSet
63.5 -44 m 257
 90.5 -44 l 257
 125.833 -119.333 211.667 -157 317 -157 c 256
 460 -157 601.5 -90 601.5 50 c 256
 601.5 71 596.5 93 589.5 102 c 257
 600.5 133 l 257
 618.5 106.333 627.5 74.667 627.5 38 c 256
 627.5 -123.729 484 -219 333 -219 c 256
 192 -219 100.833 -153.333 63.5 -44 c 257
EndSplineSet
Refer: 117 -1 N 1 0 0 1 0 0 2
EndChar

StartChar: si_GhRa
Encoding: 127 -1 120
GlifName: si_G_hR_a
Width: 677
VWidth: 0
Flags: W
LayerCount: 2
Back
Fore
SplineSet
63.5 -44 m 257
 90.5 -44 l 257
 125.833 -119.333 211.667 -157 317 -157 c 256
 460 -157 601.5 -90 601.5 50 c 256
 601.5 71 596.5 93 589.5 102 c 257
 600.5 133 l 257
 618.5 106.333 627.5 74.667 627.5 38 c 256
 627.5 -123.729 484 -219 333 -219 c 256
 192 -219 100.833 -153.333 63.5 -44 c 257
EndSplineSet
Refer: 442 3485 N 1 0 0 1 0 0 2
EndChar

StartChar: si_GhU
Encoding: 122 -1 121
GlifName: si_G_hU_
Width: 677
VWidth: 0
Flags: W
LayerCount: 2
Back
Fore
SplineSet
66.5 -142.5 m 256
 66.5 -90.4912 112.793 -50.5 168 -50.5 c 256
 209.906 -50.5 247.25 -74.1416 262 -110 c 257
 232 -121.5 l 257
 224.982 -101.896 201 -80 168 -80 c 256
 131.296 -80 100 -106.714 100 -142.5 c 256
 100 -171.663 123.384 -199 189 -199 c 258
 583 -199 l 257
 583 128 l 257
 616 219 l 257
 616 -235 l 257
 172 -235 l 258
 102.84 -235 66.5 -186.092 66.5 -142.5 c 256
EndSplineSet
Refer: 442 3485 N 1 0 0 1 0 0 2
EndChar

StartChar: si_GhUu
Encoding: 123 -1 122
GlifName: si_G_hU_u
Width: 677
VWidth: 0
Flags: W
LayerCount: 2
Back
Fore
SplineSet
67.5 -138 m 256
 67.5 -80 116.5 -40 169.5 -40 c 256
 211.5 -40 243.833 -55 266.5 -91 c 257
 236.5 -102 l 257
 224.5 -83 203.5 -68 174.5 -68 c 256
 135.5 -68 103.5 -92 103.5 -129 c 256
 103.5 -166.366 134.5 -191 177.5 -191 c 256
 261.5 -191 360 -117 455 -117 c 256
 498 -117 556.5 -136 583.5 -168 c 257
 583.5 121.5 l 257
 616.5 212 l 257
 616.5 -231 l 257
 593.5 -231 l 257
 578.5 -195 526 -144 458 -144 c 256
 367 -144 276.5 -237 178.5 -237 c 256
 123.5 -237 67.5 -206 67.5 -138 c 256
EndSplineSet
Refer: 442 3485 N 1 0 0 1 0 0 2
EndChar

StartChar: si_Gha.reph
Encoding: 124 -1 123
GlifName: si_G_ha.reph
Width: 677
VWidth: 0
Flags: W
LayerCount: 2
Back
Fore
SplineSet
296.086 491 m 256
 296.086 470.446 314.684 453.807 337 453.807 c 256
 359.316 453.807 377.914 470.446 377.914 491 c 256
 377.914 511.554 359.316 528.193 337 528.193 c 256
 314.684 528.193 296.086 511.554 296.086 491 c 256
194 510 m 256
 194 574 252.12 611 334 611 c 256
 411 611 475 568 475 497 c 256
 475 473 466.667 451.333 450 432 c 257
 416.25 432 l 257
 429.42 444.387 444.75 468.734 444.75 496 c 256
 444.75 553.241 394 583.75 333 583.75 c 256
 280.222 583.75 225.25 562.556 225.25 510 c 256
 225.25 470.925 266.304 452.216 289.5 450.25 c 257
 281.5 456.25 269 471 269 492 c 256
 269 527 300.354 552 336 552 c 256
 377 552 405 525 405 490 c 256
 405 451 370 425 312 425 c 256
 253 425 194 454 194 510 c 256
EndSplineSet
Refer: 442 3485 N 1 0 0 1 0 0 2
EndChar

StartChar: si_H.halant
Encoding: 407 -1 124
GlifName: si_H_.halant
Width: 653
VWidth: 0
Flags: W
LayerCount: 2
Back
Fore
SplineSet
453 387 m 257
 453 681 l 257
 507 639 603 634 603 542 c 256
 603 498 568.191 468 525 468 c 256
 510.333 468 495.333 471.333 480 478 c 257
 480 370 l 257
 453 387 l 257
480 503 m 257
 488.667 498.333 499.667 496 513 496 c 256
 551 496 566 521 566 545 c 256
 566 587 527 607 480 638 c 257
 480 503 l 257
EndSplineSet
Refer: 477 3524 N 1 0 0 1 0 0 2
EndChar

StartChar: si_HI
Encoding: 408 -1 125
GlifName: si_H_I_
Width: 653
VWidth: 0
Flags: W
LayerCount: 2
Back
Fore
SplineSet
150 537 m 256
 150 628 248.984 667 351 667 c 256
 456.344 667 559 618 559 523 c 256
 559 461 520 415 439 409 c 257
 421 431 l 257
 423.693 430.868 426.361 430.806 429 430.806 c 256
 487 430.806 530 462.296 530 512 c 256
 530 576.843 430.674 598 351 598 c 256
 269.527 598 191 568 191 516 c 256
 191 455.697 325 431.5 411 431.492 c 256
 412.006 431.492 412.006 431.494 413 431.5 c 257
 397 412 l 257
 237 415.333 150 462 150 537 c 256
EndSplineSet
Refer: 477 3524 N 1 0 0 1 0 0 2
EndChar

StartChar: si_HIi
Encoding: 409 -1 126
GlifName: si_H_I_i
Width: 653
VWidth: 0
Flags: W
LayerCount: 2
Back
Fore
SplineSet
389.4 520 m 256
 389.4 485.057 420.778 456.532 460 456.532 c 256
 499.222 456.532 530.6 485.057 530.6 520 c 256
 530.6 554.943 499.222 583.468 460 583.468 c 256
 420.778 583.468 389.4 554.943 389.4 520 c 256
150 537 m 256
 150 628 248.984 667 351 667 c 256
 456.344 667 559 618 559 525 c 256
 559 456 501 431 458 431 c 256
 414 431 361 464 361 519 c 256
 361 564.604 395 591 411 593.824 c 257
 389 597 374.639 598 351 598 c 256
 269.527 598 191 568 191 516 c 256
 191 455.697 325 431.5 411 431.492 c 256
 412.006 431.492 412.006 431.494 413 431.5 c 257
 397 412 l 257
 237 415.333 150 462 150 537 c 256
EndSplineSet
Refer: 477 3524 N 1 0 0 1 0 0 2
EndChar

StartChar: si_HRIi
Encoding: 414 -1 127
GlifName: si_H_R_I_i
Width: 653
VWidth: 0
Flags: W
LayerCount: 2
Back
Fore
SplineSet
389.4 520 m 256
 389.4 485.057 420.778 456.532 460 456.532 c 256
 499.222 456.532 530.6 485.057 530.6 520 c 256
 530.6 554.943 499.222 583.468 460 583.468 c 256
 420.778 583.468 389.4 554.943 389.4 520 c 256
150 537 m 256
 150 628 248.984 667 351 667 c 256
 456.344 667 559 618 559 525 c 256
 559 456 501 431 458 431 c 256
 414 431 361 464 361 519 c 256
 361 564.604 395 591 411 593.824 c 257
 389 597 374.639 598 351 598 c 256
 269.527 598 191 568 191 516 c 256
 191 455.697 325 431.5 411 431.492 c 256
 412.006 431.492 412.006 431.494 413 431.5 c 257
 397 412 l 257
 237 415.333 150 462 150 537 c 256
61.1104 -44 m 257
 88.1699 -44 l 257
 124.563 -119.333 196.727 -157 305.22 -157 c 256
 452.51 -157 575.05 -90 575.05 50 c 256
 575.05 71 568.9 93 561.69 102 c 257
 575.08 133 l 257
 593.62 106.333 602.89 74.667 602.89 38 c 256
 602.89 -123.729 470.02 -219 321.7 -219 c 256
 184.71 -219 99.5635 -153.333 61.1104 -44 c 257
EndSplineSet
Refer: 477 3524 N 1 0 0 1 0 0 2
EndChar

StartChar: si_HRa
Encoding: 413 -1 128
GlifName: si_H_R_a
Width: 653
VWidth: 0
Flags: W
LayerCount: 2
Back
Fore
SplineSet
61.1104 -44 m 257
 88.1699 -44 l 257
 124.563 -119.333 196.727 -157 305.22 -157 c 256
 452.51 -157 575.05 -90 575.05 50 c 256
 575.05 71 568.9 93 561.69 102 c 257
 575.08 133 l 257
 593.62 106.333 602.89 74.667 602.89 38 c 256
 602.89 -123.729 470.02 -219 321.7 -219 c 256
 184.71 -219 99.5635 -153.333 61.1104 -44 c 257
EndSplineSet
Refer: 477 3524 N 1 0 0 1 0 0 2
EndChar

StartChar: si_HU
Encoding: 410 -1 129
GlifName: si_H_U_
Width: 653
VWidth: 0
Flags: W
LayerCount: 2
Back
Fore
SplineSet
45.25 -142.5 m 256
 45.25 -90.4912 91.543 -50.5 146.75 -50.5 c 256
 188.656 -50.5 226 -74.1416 240.75 -110 c 257
 210.75 -121.5 l 257
 203.732 -101.896 179.75 -80 146.75 -80 c 256
 110.046 -80 78.75 -106.714 78.75 -142.5 c 256
 78.75 -171.663 102.134 -199 167.75 -199 c 258
 565 -199 l 257
 565 128 l 257
 598 198 l 257
 598 -235 l 257
 150.75 -235 l 258
 81.5898 -235 45.25 -186.092 45.25 -142.5 c 256
EndSplineSet
Refer: 477 3524 N 1 0 0 1 0 0 2
EndChar

StartChar: si_HUu
Encoding: 411 -1 130
GlifName: si_H_U_u
Width: 653
VWidth: 0
Flags: W
LayerCount: 2
Back
Fore
SplineSet
45 -138 m 256
 45 -80 94 -40 147 -40 c 256
 189 -40 221.333 -55 244 -91 c 257
 214 -102 l 257
 202 -83 181 -68 152 -68 c 256
 113 -68 81 -92 81 -129 c 256
 81 -166.366 118.5 -191 161.5 -191 c 256
 267.154 -191 351 -117 446 -117 c 256
 489 -117 538 -136 565 -168 c 257
 565 152 l 257
 598 212 l 257
 598 -231 l 257
 575 -231 l 257
 560 -195 517 -144 449 -144 c 256
 358 -144 280.999 -237 162.5 -237 c 256
 107.5 -237 45 -206 45 -138 c 256
EndSplineSet
Refer: 477 3524 N 1 0 0 1 0 0 2
EndChar

StartChar: si_Ha.reph
Encoding: 412 -1 131
GlifName: si_H_a.reph
Width: 653
VWidth: 0
Flags: W
LayerCount: 2
Back
Fore
SplineSet
270.336 511 m 256
 270.336 490.446 288.934 473.807 311.25 473.807 c 256
 333.566 473.807 352.164 490.446 352.164 511 c 256
 352.164 531.554 333.566 548.193 311.25 548.193 c 256
 288.934 548.193 270.336 531.554 270.336 511 c 256
168.25 530 m 256
 168.25 594 226.37 631 308.25 631 c 256
 385.25 631 449.25 588 449.25 517 c 256
 449.25 493 440.917 471.333 424.25 452 c 257
 390.5 452 l 257
 403.67 464.387 419 488.734 419 516 c 256
 419 573.241 368.25 603.75 307.25 603.75 c 256
 254.472 603.75 199.5 582.556 199.5 530 c 256
 199.5 490.925 240.554 472.216 263.75 470.25 c 257
 255.75 476.25 243.25 491 243.25 512 c 256
 243.25 547 274.604 572 310.25 572 c 256
 351.25 572 379.25 545 379.25 510 c 256
 379.25 471 344.25 445 286.25 445 c 256
 227.25 445 168.25 474 168.25 530 c 256
EndSplineSet
Refer: 477 3524 N 1 0 0 1 0 0 2
EndChar

StartChar: si_J.halant
Encoding: 150 -1 132
GlifName: si_J_.halant
Width: 598
VWidth: 0
Flags: W
LayerCount: 2
Back
Fore
SplineSet
300 356 m 257
 300 756.5 l 257
 357.218 709.157 447 704.481 447 626.5 c 256
 447 580.716 412.638 549.5 370 549.5 c 256
 355.659 549.5 340.992 551.833 326 556.5 c 257
 326 400 l 257
 300 356 l 257
326.105 580.773 m 257
 335.913 576.866 348.362 574.913 363.448 574.913 c 256
 396.157 574.913 410 598.905 410 621.938 c 256
 410 671.65 362.718 687.036 326.105 712.087 c 257
 326.105 580.773 l 257
EndSplineSet
Refer: 447 3490 N 1 0 0 1 0 0 2
EndChar

StartChar: si_JI
Encoding: 151 -1 133
GlifName: si_J_I_
Width: 598
VWidth: 0
Flags: W
LayerCount: 2
Back
Fore
SplineSet
233 489.5 m 256
 233 576.568 303.321 657 382 657 c 256
 428.882 657 460.703 626.416 460.705 583 c 256
 460.705 579.106 460.496 576.102 460 572 c 257
 459.982 571.995 430 544.016 430 544 c 257
 433.999 550.487 436.181 564.622 436.181 575.5 c 256
 436.181 604.328 424.158 622 393 622 c 256
 335.62 622 276.5 550.291 276.5 486 c 256
 276.5 454.192 290.994 429.027 332 429.026 c 256
 345.842 429.026 357.154 431.185 374 436 c 257
 373.999 435.978 370.001 425.001 370 425 c 257
 357.178 416.842 329.23 407.635 327 407 c 257
 325.947 406.999 324.051 406.952 323 406.952 c 256
 260.125 406.952 233 439.49 233 489.5 c 256
EndSplineSet
Refer: 447 3490 N 1 0 0 1 0 0 2
EndChar

StartChar: si_JIi
Encoding: 152 -1 134
GlifName: si_J_I_i
Width: 598
VWidth: 0
Flags: W
LayerCount: 2
Back
Fore
SplineSet
337.721 579 m 256
 337.721 551.832 359.332 530.221 386.5 530.221 c 256
 413.668 530.221 435.279 551.832 435.279 579 c 256
 435.279 606.168 413.668 627.779 386.5 627.779 c 256
 359.332 627.779 337.721 606.168 337.721 579 c 256
233 489.5 m 256
 233 576.568 303.261 656.5 386.75 656.5 c 256
 431.64 656.5 463.955 619.452 463.955 579 c 256
 463.955 540.549 433.976 501.5 386.75 501.5 c 256
 339.065 501.5 311.635 539.847 311.635 574.25 c 256
 311.635 574.75 311.712 576 311.75 576.75 c 257
 293.181 551.954 276.5 519.777 276.5 486 c 256
 276.5 454.192 290.994 429.027 332 429.026 c 256
 345.842 429.026 357.154 431.185 374 436 c 257
 373.999 435.978 370.001 425.001 370 425 c 257
 357.178 416.842 329.23 407.635 327 407 c 257
 325.947 406.999 324.051 406.952 323 406.952 c 256
 260.125 406.952 233 439.49 233 489.5 c 256
EndSplineSet
Refer: 447 3490 N 1 0 0 1 0 0 2
EndChar

StartChar: si_JRI
Encoding: 157 -1 135
GlifName: si_J_R_I_
Width: 598
VWidth: 0
Flags: W
LayerCount: 2
Back
Fore
SplineSet
40.5 -44 m 257
 67.5 -44 l 257
 102.833 -119.333 167.917 -157 273.25 -157 c 256
 416.25 -157 523 -90 523 50 c 256
 523 71 516.809 98.9004 503.5 112 c 257
 519.5 140 l 257
 542.477 107.27 551 74.667 551 38 c 256
 551 -123.729 433.25 -219 289.25 -219 c 256
 156.25 -219 77.833 -153.333 40.5 -44 c 257
233 489.5 m 256
 233 576.568 303.321 657 382 657 c 256
 428.882 657 460.703 626.416 460.705 583 c 256
 460.705 579.106 460.496 576.102 460 572 c 257
 459.982 571.995 430 544.016 430 544 c 257
 433.999 550.487 436.181 564.622 436.181 575.5 c 256
 436.181 604.328 424.158 622 393 622 c 256
 335.62 622 276.5 550.291 276.5 486 c 256
 276.5 454.192 290.994 429.027 332 429.026 c 256
 345.842 429.026 357.154 431.185 374 436 c 257
 373.999 435.978 370.001 425.001 370 425 c 257
 357.178 416.842 329.23 407.635 327 407 c 257
 325.947 406.999 324.051 406.952 323 406.952 c 256
 260.125 406.952 233 439.49 233 489.5 c 256
EndSplineSet
Refer: 447 3490 N 1 0 0 1 0 0 2
EndChar

StartChar: si_JRIi
Encoding: 158 -1 136
GlifName: si_J_R_I_i
Width: 598
VWidth: 0
Flags: W
LayerCount: 2
Back
Fore
SplineSet
40.5 -44 m 257
 67.5 -44 l 257
 102.833 -119.333 167.917 -157 273.25 -157 c 256
 416.25 -157 523 -90 523 50 c 256
 523 71 516.809 98.9004 503.5 112 c 257
 519.5 140 l 257
 542.477 107.27 551 74.667 551 38 c 256
 551 -123.729 433.25 -219 289.25 -219 c 256
 156.25 -219 77.833 -153.333 40.5 -44 c 257
337.721 579 m 256
 337.721 551.832 359.332 530.221 386.5 530.221 c 256
 413.668 530.221 435.279 551.832 435.279 579 c 256
 435.279 606.168 413.668 627.779 386.5 627.779 c 256
 359.332 627.779 337.721 606.168 337.721 579 c 256
233 489.5 m 256
 233 576.568 303.261 656.5 386.75 656.5 c 256
 431.64 656.5 463.955 619.452 463.955 579 c 256
 463.955 540.549 433.976 501.5 386.75 501.5 c 256
 339.065 501.5 311.635 539.847 311.635 574.25 c 256
 311.635 574.75 311.712 576 311.75 576.75 c 257
 293.181 551.954 276.5 519.777 276.5 486 c 256
 276.5 454.192 290.994 429.027 332 429.026 c 256
 345.842 429.026 357.154 431.185 374 436 c 257
 373.999 435.978 370.001 425.001 370 425 c 257
 327 407 l 257
 325.947 406.999 324.051 406.952 323 406.952 c 256
 260.125 406.952 233 439.49 233 489.5 c 256
EndSplineSet
Refer: 447 3490 N 1 0 0 1 0 0 2
EndChar

StartChar: si_JRa
Encoding: 156 -1 137
GlifName: si_J_R_a
Width: 598
VWidth: 0
Flags: W
LayerCount: 2
Back
Fore
SplineSet
40.5 -44 m 257
 67.5 -44 l 257
 102.833 -119.333 167.917 -157 273.25 -157 c 256
 416.25 -157 523 -90 523 50 c 256
 523 71 516.809 98.9004 503.5 112 c 257
 519.5 140 l 257
 542.477 107.27 551 74.667 551 38 c 256
 551 -123.729 433.25 -219 289.25 -219 c 256
 156.25 -219 77.833 -153.333 40.5 -44 c 257
EndSplineSet
Refer: 447 3490 N 1 0 0 1 0 0 2
EndChar

StartChar: si_JU
Encoding: 153 -1 138
GlifName: si_J_U_
Width: 598
VWidth: 0
Flags: W
LayerCount: 2
Back
Fore
SplineSet
38.75 -142.5 m 256
 38.75 -90.4912 85.043 -50.5 140.25 -50.5 c 256
 182.156 -50.5 219.5 -74.1416 234.25 -110 c 257
 204.25 -121.5 l 257
 197.232 -101.896 173.25 -80 140.25 -80 c 256
 103.546 -80 72.25 -106.714 72.25 -142.5 c 256
 72.25 -171.663 95.6338 -199 161.25 -199 c 258
 507.5 -199 l 257
 507.5 128 l 257
 540.5 198 l 257
 540.5 -235 l 257
 144.25 -235 l 258
 75.0898 -235 38.75 -186.092 38.75 -142.5 c 256
EndSplineSet
Refer: 447 3490 N 1 0 0 1 0 0 2
EndChar

StartChar: si_JUu
Encoding: 154 -1 139
GlifName: si_J_U_u
Width: 598
VWidth: 0
Flags: W
LayerCount: 2
Back
Fore
SplineSet
39 -138 m 256
 39 -80 88 -40 141 -40 c 256
 183 -40 215.333 -55 238 -91 c 257
 208 -102 l 257
 196 -83 175 -68 146 -68 c 256
 107 -68 75 -92 75 -129 c 256
 75 -166.366 106 -191 149 -191 c 256
 233 -191 299.75 -117 394.75 -117 c 256
 442.344 -117 483.079 -137.891 507.75 -167.5 c 257
 507.75 140.75 l 257
 540.75 200.75 l 257
 540.75 -231 l 257
 517.75 -231 l 257
 502.75 -195 462.625 -144 397.75 -144 c 256
 306.75 -144 248 -237 150 -237 c 256
 95 -237 39 -206 39 -138 c 256
EndSplineSet
Refer: 447 3490 N 1 0 0 1 0 0 2
EndChar

StartChar: si_Ja.reph
Encoding: 155 -1 140
GlifName: si_J_a.reph
Width: 598
VWidth: 0
Flags: W
LayerCount: 2
Back
Fore
SplineSet
202.336 491 m 256
 202.336 470.446 220.934 453.807 243.25 453.807 c 256
 265.566 453.807 284.164 470.446 284.164 491 c 256
 284.164 511.554 265.566 528.193 243.25 528.193 c 256
 220.934 528.193 202.336 511.554 202.336 491 c 256
100.25 510 m 256
 100.25 574 158.37 611 240.25 611 c 256
 317.25 611 381.25 568 381.25 497 c 256
 381.25 473 372.917 451.333 356.25 432 c 257
 322.5 432 l 257
 335.67 444.387 351 468.734 351 496 c 256
 351 553.241 300.25 583.75 239.25 583.75 c 256
 186.472 583.75 131.5 562.556 131.5 510 c 256
 131.5 470.925 172.554 452.216 195.75 450.25 c 257
 187.75 456.25 175.25 471 175.25 492 c 256
 175.25 527 206.604 552 242.25 552 c 256
 283.25 552 311.25 525 311.25 490 c 256
 311.25 451 276.25 425 218.25 425 c 256
 159.25 425 100.25 454 100.25 510 c 256
EndSplineSet
Refer: 447 3490 N 1 0 0 1 0 0 2
EndChar

StartChar: si_Jh.halant
Encoding: 159 -1 141
GlifName: si_J_h.halant
Width: 1087
VWidth: 0
Flags: W
LayerCount: 2
Back
Fore
SplineSet
70 95 m 257
 76 98.333 82.333 100 89 100 c 256
 118 100 142 71 199 71 c 256
 250.183 71 281 101.864 281 162 c 256
 281 164.209 281.041 161.305 281 163 c 257
 307 163 l 257
 306.964 161.664 307 163.33 307 162 c 256
 307 96.9268 334 71 392 71 c 256
 454.089 71 474 123 474 159 c 256
 474 242 400.879 291 298 291 c 256
 241.333 291 203 282 182 273 c 257
 164.667 258.333 145 234.667 129 212 c 256
 100.333 171.333 80.667 131.667 70 95 c 257
21 22 m 257
 28.6963 91.2695 74.4521 184.165 109 232 c 256
 135 268 150 282 168 301 c 257
 180 314 193 330 193 352 c 256
 193 374 183.408 392 158 392 c 256
 144 392 122.479 384.287 116 363 c 256
 109 340 112.653 340.109 106 323 c 256
 99 305 84 297 69 297 c 256
 35 297 29 328 29 340 c 256
 29 394.099 79.3633 433 136 433 c 256
 185.712 433 220.079 402 220.079 356 c 256
 220.079 351.468 219.724 345.795 219 341 c 257
 279.982 397.272 371 434 475 434 c 256
 575 434 642 414 671 398 c 257
 614 390 l 257
 570 402 518 406 474 406 c 256
 342 406 266.999 350.054 219 308 c 257
 243 314 274.667 316 302 316 c 256
 422 316 515 251 515 126 c 256
 515 67.8477 482 -1 397 -1 c 256
 351 -1 317.333 20.333 296 63 c 257
 278.667 21.667 246.021 -1 204 -1 c 256
 117 -1 120 73 87 73 c 256
 64.6748 73 50 51 47 11 c 257
 21 22 l 257
589 543 m 256
 589 531 613 526 613 515 c 256
 613 513 612 510 610 508 c 257
 643 514 682.675 519 729 519 c 256
 837 519 922 490 980 422 c 257
 947 537 850 590 734 590 c 256
 662 590 589 567 589 543 c 256
483 195 m 256
 483 288 536.248 363.669 602 387 c 256
 622.667 394.333 645.667 398 671 398 c 257
 671 373 l 258
 667.651 373.289 664.316 373.437 661 373.437 c 256
 582 373.437 517 301 517 212 c 256
 517 135.558 564.567 71 638 71 c 256
 688.911 71 740 92 740 156 c 258
 740 196 l 257
 768 196 l 257
 768 156 l 258
 768 92 817.83 71 867 71 c 256
 967.206 71 1003.58 187.905 1003.58 265.5 c 256
 1003.58 412.094 893 493.75 732 493.75 c 256
 656 493.75 586.012 478.837 509 456 c 257
 509 485 l 257
 536.676 488.942 576 499 576 508 c 256
 576 520 548 524 548 546 c 256
 548 583 613 629 728 629 c 256
 936 629 1010 490 1022 356 c 257
 1031.17 331.008 1039.5 287.347 1039.5 245 c 256
 1039.5 134.355 997.533 0 872 0 c 256
 822.667 0 783 19.667 753 59 c 257
 722.333 20.333 684.672 0 640 0 c 256
 538 0 483 96 483 195 c 256
EndSplineSet
EndChar

StartChar: si_JhI
Encoding: 160 -1 142
GlifName: si_J_hI_
Width: 1087
VWidth: 0
Flags: W
LayerCount: 2
Back
Fore
SplineSet
70 95 m 257
 76 98.333 82.333 100 89 100 c 256
 118 100 142 71 199 71 c 256
 250.183 71 281 101.864 281 162 c 256
 281 164.209 281.041 161.305 281 163 c 257
 307 163 l 257
 306.964 161.664 307 163.33 307 162 c 256
 307 96.9268 334 71 392 71 c 256
 454.089 71 474 123 474 159 c 256
 474 242 400.879 291 298 291 c 256
 241.333 291 203 282 182 273 c 257
 164.667 258.333 145 234.667 129 212 c 256
 100.333 171.333 80.667 131.667 70 95 c 257
21 22 m 257
 28.6963 91.2695 74.4521 184.165 109 232 c 256
 135 268 150 282 168 301 c 257
 180 314 193 330 193 352 c 256
 193 374 183.408 392 158 392 c 256
 144 392 122.479 384.287 116 363 c 256
 109 340 112.653 340.109 106 323 c 256
 99 305 84 297 69 297 c 256
 35 297 29 328 29 340 c 256
 29 394.099 79.3633 433 136 433 c 256
 185.712 433 220.079 402 220.079 356 c 256
 220.079 351.468 219.724 345.795 219 341 c 257
 279.982 397.272 371 434 475 434 c 256
 575 434 642 414 671 398 c 257
 614 390 l 257
 570 402 518 406 474 406 c 256
 342 406 266.999 350.054 219 308 c 257
 243 314 274.667 316 302 316 c 256
 422 316 515 251 515 126 c 256
 515 67.8477 482 -1 397 -1 c 256
 351 -1 317.333 20.333 296 63 c 257
 278.667 21.667 246.021 -1 204 -1 c 256
 117 -1 120 73 87 73 c 256
 64.6748 73 50 51 47 11 c 257
 21 22 l 257
EndSplineSet
Refer: 85 -1 N 1 0 0 1 450 0 2
EndChar

StartChar: si_JhIi
Encoding: 161 -1 143
GlifName: si_J_hI_i
Width: 1087
VWidth: 0
Flags: W
LayerCount: 2
Back
Fore
SplineSet
70 95 m 257
 76 98.333 82.333 100 89 100 c 256
 118 100 142 71 199 71 c 256
 250.183 71 281 101.864 281 162 c 256
 281 164.209 281.041 161.305 281 163 c 257
 307 163 l 257
 306.964 161.664 307 163.33 307 162 c 256
 307 96.9268 334 71 392 71 c 256
 454.089 71 474 123 474 159 c 256
 474 242 400.879 291 298 291 c 256
 241.333 291 203 282 182 273 c 257
 164.667 258.333 145 234.667 129 212 c 256
 100.333 171.333 80.667 131.667 70 95 c 257
21 22 m 257
 28.6963 91.2695 74.4521 184.165 109 232 c 256
 135 268 150 282 168 301 c 257
 180 314 193 330 193 352 c 256
 193 374 183.408 392 158 392 c 256
 144 392 122.479 384.287 116 363 c 256
 109 340 112.653 340.109 106 323 c 256
 99 305 84 297 69 297 c 256
 35 297 29 328 29 340 c 256
 29 394.099 79.3633 433 136 433 c 256
 185.712 433 220.079 402 220.079 356 c 256
 220.079 351.468 219.724 345.795 219 341 c 257
 279.982 397.272 371 434 475 434 c 256
 575 434 642 414 671 398 c 257
 614 390 l 257
 570 402 518 406 474 406 c 256
 342 406 266.999 350.054 219 308 c 257
 243 314 274.667 316 302 316 c 256
 422 316 515 251 515 126 c 256
 515 67.8477 482 -1 397 -1 c 256
 351 -1 317.333 20.333 296 63 c 257
 278.667 21.667 246.021 -1 204 -1 c 256
 117 -1 120 73 87 73 c 256
 64.6748 73 50 51 47 11 c 257
 21 22 l 257
EndSplineSet
Refer: 86 -1 N 1 0 0 1 450 0 2
EndChar

StartChar: si_JhRI
Encoding: 168 -1 144
GlifName: si_J_hR_I_
Width: 1087
VWidth: 0
Flags: W
LayerCount: 2
Back
Fore
SplineSet
506 -44 m 257
 533 -44 l 257
 568.333 -119.333 637.667 -157 743 -157 c 256
 886 -157 1004 -90 1004 50 c 256
 1004 71 999 93 992 102 c 257
 1005 133 l 257
 1023 106.333 1032 74.667 1032 38 c 256
 1032 -123.729 903 -219 759 -219 c 256
 626 -219 543.333 -153.333 506 -44 c 257
EndSplineSet
Refer: 142 -1 N 1 0 0 1 0 0 2
EndChar

StartChar: si_JhRIi
Encoding: 169 -1 145
GlifName: si_J_hR_I_i
Width: 1087
VWidth: 0
Flags: W
LayerCount: 2
Back
Fore
SplineSet
506 -44 m 257
 533 -44 l 257
 568.333 -119.333 637.667 -157 743 -157 c 256
 886 -157 1004 -90 1004 50 c 256
 1004 71 999 93 992 102 c 257
 1005 133 l 257
 1023 106.333 1032 74.667 1032 38 c 256
 1032 -123.729 903 -219 759 -219 c 256
 626 -219 543.333 -153.333 506 -44 c 257
EndSplineSet
Refer: 143 -1 N 1 0 0 1 0 0 2
EndChar

StartChar: si_JhRa
Encoding: 167 -1 146
GlifName: si_J_hR_a
Width: 1087
VWidth: 0
Flags: W
LayerCount: 2
Back
Fore
SplineSet
506 -44 m 257
 533 -44 l 257
 568.333 -119.333 637.667 -157 743 -157 c 256
 886 -157 1004 -90 1004 50 c 256
 1004 71 999 93 992 102 c 257
 1005 133 l 257
 1023 106.333 1032 74.667 1032 38 c 256
 1032 -123.729 903 -219 759 -219 c 256
 626 -219 543.333 -153.333 506 -44 c 257
EndSplineSet
Refer: 448 3491 N 1 0 0 1 0 0 2
EndChar

StartChar: si_JhU
Encoding: 162 -1 147
GlifName: si_J_hU_
Width: 1087
VWidth: 0
Flags: W
LayerCount: 2
Back
Fore
SplineSet
501.5 -142.5 m 256
 501.5 -90.4912 547.793 -50.5 603 -50.5 c 256
 644.906 -50.5 682.25 -74.1416 697 -110 c 257
 667 -121.5 l 257
 659.982 -101.896 636 -80 603 -80 c 256
 566.296 -80 535 -106.714 535 -142.5 c 256
 535 -171.663 558.384 -199 624 -199 c 258
 992 -199 l 257
 992 128 l 257
 1025 219 l 257
 1025 -235 l 257
 607 -235 l 258
 537.84 -235 501.5 -186.092 501.5 -142.5 c 256
EndSplineSet
Refer: 448 3491 N 1 0 0 1 0 0 2
EndChar

StartChar: si_JhU.reph
Encoding: 165 -1 148
GlifName: si_J_hU_.reph
Width: 1087
VWidth: 0
Flags: W
LayerCount: 2
Back
Fore
SplineSet
723.586 622 m 256
 723.586 601.446 742.184 584.807 764.5 584.807 c 256
 786.816 584.807 805.414 601.446 805.414 622 c 256
 805.414 642.554 786.816 659.193 764.5 659.193 c 256
 742.184 659.193 723.586 642.554 723.586 622 c 256
621.5 641 m 256
 621.5 705 679.62 742 761.5 742 c 256
 838.5 742 902.5 699 902.5 628 c 256
 902.5 604 894.167 582.333 877.5 563 c 257
 843.75 563 l 257
 856.92 575.387 872.25 599.734 872.25 627 c 256
 872.25 684.241 821.5 714.75 760.5 714.75 c 256
 707.722 714.75 652.75 693.556 652.75 641 c 256
 652.75 601.925 693.804 583.216 717 581.25 c 257
 709 587.25 696.5 602 696.5 623 c 256
 696.5 658 727.854 683 763.5 683 c 256
 804.5 683 832.5 656 832.5 621 c 256
 832.5 582 797.5 556 739.5 556 c 256
 680.5 556 621.5 585 621.5 641 c 256
EndSplineSet
Refer: 147 -1 N 1 0 0 1 0 0 2
EndChar

StartChar: si_JhUu
Encoding: 163 -1 149
GlifName: si_J_hU_u
Width: 1087
VWidth: 0
Flags: W
LayerCount: 2
Back
Fore
SplineSet
501 -138 m 256
 501 -80 550 -40 603 -40 c 256
 645 -40 677.333 -55 700 -91 c 257
 670 -102 l 257
 658 -83 637 -68 608 -68 c 256
 569 -68 537 -92 537 -129 c 256
 537 -166.366 568 -191 611 -191 c 256
 695 -191 778 -117 873 -117 c 256
 916 -117 965 -136 992 -168 c 257
 992 152 l 257
 1025 212 l 257
 1025 -231 l 257
 1002 -231 l 257
 987 -195 944 -144 876 -144 c 256
 785 -144 710 -237 612 -237 c 256
 557 -237 501 -206 501 -138 c 256
EndSplineSet
Refer: 448 3491 N 1 0 0 1 0 0 2
EndChar

StartChar: si_JhUu.reph
Encoding: 166 -1 150
GlifName: si_J_hU_u.reph
Width: 1087
VWidth: 0
Flags: W
LayerCount: 2
Back
Fore
SplineSet
723.586 622 m 256
 723.586 601.446 742.184 584.807 764.5 584.807 c 256
 786.816 584.807 805.414 601.446 805.414 622 c 256
 805.414 642.554 786.816 659.193 764.5 659.193 c 256
 742.184 659.193 723.586 642.554 723.586 622 c 256
621.5 641 m 256
 621.5 705 679.62 742 761.5 742 c 256
 838.5 742 902.5 699 902.5 628 c 256
 902.5 604 894.167 582.333 877.5 563 c 257
 843.75 563 l 257
 856.92 575.387 872.25 599.734 872.25 627 c 256
 872.25 684.241 821.5 714.75 760.5 714.75 c 256
 707.722 714.75 652.75 693.556 652.75 641 c 256
 652.75 601.925 693.804 583.216 717 581.25 c 257
 709 587.25 696.5 602 696.5 623 c 256
 696.5 658 727.854 683 763.5 683 c 256
 804.5 683 832.5 656 832.5 621 c 256
 832.5 582 797.5 556 739.5 556 c 256
 680.5 556 621.5 585 621.5 641 c 256
501 -138 m 256
 501 -80 550 -40 603 -40 c 256
 645 -40 677.333 -55 700 -91 c 257
 670 -102 l 257
 658 -83 637 -68 608 -68 c 256
 569 -68 537 -92 537 -129 c 256
 537 -166.366 568 -191 611 -191 c 256
 695 -191 778 -117 873 -117 c 256
 916 -117 965 -136 992 -168 c 257
 992 152 l 257
 1025 212 l 257
 1025 -231 l 257
 1002 -231 l 257
 987 -195 944 -144 876 -144 c 256
 785 -144 710 -237 612 -237 c 256
 557 -237 501 -206 501 -138 c 256
EndSplineSet
Refer: 448 3491 N 1 0 0 1 0 0 2
EndChar

StartChar: si_Jha.reph
Encoding: 164 -1 151
GlifName: si_J_ha.reph
Width: 1087
VWidth: 0
Flags: W
LayerCount: 2
Back
Fore
SplineSet
723.586 622.443 m 256
 723.586 601.89 742.184 585.25 764.5 585.25 c 256
 786.816 585.25 805.414 601.89 805.414 622.443 c 256
 805.414 642.997 786.816 659.637 764.5 659.637 c 256
 742.184 659.637 723.586 642.997 723.586 622.443 c 256
621.5 641.443 m 256
 621.5 705.443 679.62 742.443 761.5 742.443 c 256
 838.5 742.443 902.5 699.443 902.5 628.443 c 256
 902.5 604.443 894.167 582.776 877.5 563.443 c 257
 843.75 563.443 l 257
 856.92 575.83 872.25 600.178 872.25 627.443 c 256
 872.25 684.685 821.5 715.193 760.5 715.193 c 256
 707.722 715.193 652.75 693.999 652.75 641.443 c 256
 652.75 602.368 693.804 583.659 717 581.693 c 257
 709 587.693 696.5 602.443 696.5 623.443 c 256
 696.5 658.443 727.854 683.443 763.5 683.443 c 256
 804.5 683.443 832.5 656.443 832.5 621.443 c 256
 832.5 582.443 797.5 556.443 739.5 556.443 c 256
 680.5 556.443 621.5 585.443 621.5 641.443 c 256
EndSplineSet
Refer: 448 3491 N 1 0 0 1 0 0 2
EndChar

StartChar: si_Jny.halant
Encoding: 182 -1 152
GlifName: si_J_ny.halant
Width: 842
VWidth: 0
Flags: W
LayerCount: 2
Back
Fore
SplineSet
654.5 412.75 m 257
 654.5 680 l 257
 708.5 638 804.5 633 804.5 541 c 256
 804.5 497 769.691 467 726.5 467 c 256
 711.833 467 696.833 470.333 681.5 477 c 257
 681.5 395.75 l 257
 654.5 412.75 l 257
681.5 502 m 257
 690.167 497.333 701.167 495 714.5 495 c 256
 752.5 495 767.5 520 767.5 544 c 256
 767.5 586 728.5 606 681.5 637 c 257
 681.5 502 l 257
EndSplineSet
Refer: 450 3493 N 1 0 0 1 0 0 2
EndChar

StartChar: si_JnyAa
Encoding: 183 -1 153
GlifName: si_J_nyA_a
Width: 842
VWidth: 0
Flags: W
LayerCount: 2
Back
Fore
SplineSet
421.25 169 m 256
 421.25 274 494.25 317 613.25 317 c 258
 733.25 317 l 257
 723.526 363.186 694.25 396 650.25 396 c 256
 631.25 396 615.299 383.911 606.75 366 c 256
 596.25 344 580.052 336 565.25 336 c 256
 540.25 336 527.25 351 527.25 372 c 256
 527.25 408.283 567.25 433 622.25 433 c 256
 707.989 433 751.154 389.003 769.25 294 c 257
 632.25 294 l 258
 544.25 294 498.25 257 498.25 173 c 256
 498.25 89 563.172 26.001 648.25 26 c 256
 698.217 26 739.75 46 779.75 92 c 257
 802.75 75 l 257
 782.75 58.333 766.367 41.1865 751 32.75 c 257
 754.333 33.417 752.5 33.5 756.5 33.5 c 256
 804.771 33.5 837.25 -17.8018 837.25 -87 c 256
 837.25 -175 797.367 -212.5 738.25 -212.5 c 256
 689.095 -212.5 672.75 -187.083 672.75 -166 c 257
 699.75 -166 l 257
 699.773 -176.229 709.601 -186.75 728.5 -186.75 c 256
 770.283 -186.75 780.75 -148.479 780.75 -87 c 256
 780.75 -42.0967 766.369 0 735.25 0 c 256
 706.12 0 694.568 -29.2295 694.5 -45 c 257
 667.5 -45 l 257
 667.547 -29.335 676.555 -6.04102 689.25 4 c 257
 661.25 -0.666992 644.917 -1 624.25 -1 c 256
 493.25 -1 421.25 69 421.25 169 c 256
134 207 m 256
 134 330 209 431.5 320 431.5 c 256
 323.953 431.5 328.954 431.25 333 431 c 257
 333 408 l 257
 329.645 408.284 325.311 408.45 322 408.45 c 256
 236 408.45 169 332 169 230 c 256
 169 147 217.31 71 306 71 c 256
 365 71 418 98.6416 418 158 c 256
 418 196 398.453 217 367 217 c 256
 359.667 217 349 214 344 210 c 257
 343 204 342 195.333 342 192 c 257
 315 192 l 257
 328.678 352.298 406.221 438 560 438 c 256
 591 438 640.988 436.425 674 426 c 257
 553 409.25 l 257
 547.395 409.405 543.217 409.5 537.5 409.5 c 256
 430.521 409.5 369.281 339.916 347 236 c 257
 355 240 363.333 241 370 241 c 256
 418 241 452 202 452 136 c 256
 452 56 395 -2 308 -2 c 256
 197 -2 134 96 134 207 c 256
27 221 m 256
 27 352.7 99.7562 433 239 433 c 256
 248 433 301 433 324 431.5 c 257
 320 431.5 231 406 231 406 c 257
 97 406 56 312.399 56 218 c 256
 56 137.333 83 75.333 135 30 c 257
 135 0 l 257
 68.5828 33.2086 27 120.07 27 221 c 256
EndSplineSet
EndChar

StartChar: si_JnyI
Encoding: 187 -1 154
GlifName: si_J_nyI_
Width: 842
VWidth: 0
Flags: W
LayerCount: 2
Back
Fore
SplineSet
424.91 517.5 m 256
 424.91 618.064 516.133 670.5 612.83 670.5 c 256
 709.527 670.5 800.75 616.564 800.75 517.5 c 256
 800.75 442.957 737.414 405.69 684.92 404.5 c 257
 636.58 429.25 l 257
 648.749 427.225 667.075 426.5 673.33 426.5 c 256
 722.765 426.503 770.46 459.552 770.46 508.5 c 256
 770.46 570.185 684.846 597.5 612.83 597.5 c 256
 540.814 597.5 455.95 572.924 455.95 508.5 c 256
 455.95 460.229 512.708 438 554 438 c 257
 535.83 414 l 257
 481.645 420.484 424.91 453.779 424.91 517.5 c 256
EndSplineSet
Refer: 450 3493 N 1 0 0 1 0 0 2
EndChar

StartChar: si_JnyIi
Encoding: 188 -1 155
GlifName: si_J_nyI_i
Width: 842
VWidth: 0
Flags: W
LayerCount: 2
Back
Fore
SplineSet
636.83 513.5 m 256
 636.83 482.5 666.83 457.5 702.83 457.5 c 256
 738.83 457.5 768.83 482.5 768.83 513.5 c 256
 768.83 544.5 738.83 569.5 702.83 569.5 c 256
 666.83 569.5 636.83 544.5 636.83 513.5 c 256
425.16 524.5 m 256
 425.16 614.39 516.383 670.5 613.08 670.5 c 256
 709.777 670.5 801 613.822 801 522.25 c 256
 801 462.767 753.544 428.5 702.33 428.5 c 256
 642.655 428.5 604.83 469.5 604.83 514.5 c 256
 604.83 559.5 641.297 586.758 668.08 591.5 c 257
 657.08 594.5 626.689 597.5 613.08 597.5 c 256
 541.064 597.5 460.2 570.053 460.2 513.25 c 256
 460.2 464.979 516.77 438 576 438 c 257
 502 431.5 l 257
 464.919 437.732 425.16 473.125 425.16 524.5 c 256
EndSplineSet
Refer: 450 3493 N 1 0 0 1 0 0 2
EndChar

StartChar: si_JnyRI
Encoding: 192 -1 156
GlifName: si_J_nyR_I_
Width: 842
VWidth: 0
Flags: W
LayerCount: 2
Back
Fore
SplineSet
421 169 m 256
 421 274 494 317 613 317 c 258
 733 317 l 257
 723.276 363.186 694 396 650 396 c 256
 631 396 615.049 383.911 606.5 366 c 256
 596 344 579.802 336 565 336 c 256
 540 336 527 351 527 372 c 256
 527 408.283 567 433 622 433 c 256
 707.739 433 750.904 389.003 769 294 c 257
 632 294 l 258
 544 294 498 257 498 173 c 256
 498 89 568 27 651 27 c 256
 697.077 27 741.052 50.043 774 92 c 257
 797 78.75 l 257
 757.4 33.3633 718.458 -1 624 -1 c 256
 493 -1 421 69 421 169 c 256
424.91 517.5 m 256
 424.91 618.064 516.133 670.5 612.83 670.5 c 256
 709.527 670.5 800.75 616.564 800.75 517.5 c 256
 800.75 442.957 737.414 405.69 684.92 404.5 c 257
 636.58 429.25 l 257
 648.749 427.225 667.075 426.5 673.33 426.5 c 256
 722.765 426.503 770.46 459.552 770.46 508.5 c 256
 770.46 570.185 684.846 597.5 612.83 597.5 c 256
 540.814 597.5 455.95 572.924 455.95 508.5 c 256
 455.95 460.229 512.708 438 554 438 c 257
 535.83 414 l 257
 481.645 420.484 424.91 453.779 424.91 517.5 c 256
423.661 -43 m 257
 448.594 -43 l 257
 470.334 -111.712 516.548 -142.25 593.336 -142.25 c 256
 697.583 -142.25 772.154 -72.085 772.154 51 c 256
 772.154 72 771.689 66.0068 770.75 74 c 257
 797 78.75 l 257
 797.004 58.4795 797.25 75.667 797.25 39 c 256
 797.25 -108.6 709.976 -204.25 605 -204.25 c 256
 499.809 -204.25 443.283 -144.604 423.661 -43 c 257
27 221 m 256
 27 352.7 99.7562 433 239 433 c 256
 248 433 301 433 324 431.5 c 257
 320 431.5 231 406 231 406 c 257
 97 406 56 312.399 56 218 c 256
 56 137.333 83 75.333 135 30 c 257
 135 0 l 257
 68.5828 33.2086 27 120.07 27 221 c 256
134 207 m 256
 134 330 209 431.5 320 431.5 c 256
 323.953 431.5 328.954 431.25 333 431 c 257
 333 408 l 257
 329.645 408.284 325.311 408.45 322 408.45 c 256
 236 408.45 169 332 169 230 c 256
 169 147 217.31 71 306 71 c 256
 365 71 418 98.6416 418 158 c 256
 418 196 398.453 217 367 217 c 256
 359.667 217 349 214 344 210 c 257
 343 204 342 195.333 342 192 c 257
 315 192 l 257
 328.678 352.298 406.221 438 560 438 c 256
 591 438 640.988 436.425 674 426 c 257
 553 409.25 l 257
 547.395 409.405 543.217 409.5 537.5 409.5 c 256
 430.521 409.5 369.281 339.916 347 236 c 257
 355 240 363.333 241 370 241 c 256
 418 241 452 202 452 136 c 256
 452 56 395 -2 308 -2 c 256
 197 -2 134 96 134 207 c 256
EndSplineSet
EndChar

StartChar: si_JnyRIi
Encoding: 193 -1 157
GlifName: si_J_nyR_I_i
Width: 842
VWidth: 0
Flags: W
LayerCount: 2
Back
Fore
SplineSet
636.75 514 m 256
 636.75 483 666.75 458 702.75 458 c 256
 738.75 458 768.75 483 768.75 514 c 256
 768.75 545 738.75 570 702.75 570 c 256
 666.75 570 636.75 545 636.75 514 c 256
425.08 518 m 256
 425.08 618.564 516.303 671 613 671 c 256
 709.697 671 800.92 614.322 800.92 522.75 c 256
 800.92 463.267 753.464 429 702.25 429 c 256
 642.575 429 604.75 470 604.75 515 c 256
 604.75 560 641.217 587.258 668 592 c 257
 657 595 626.609 598 613 598 c 256
 540.984 598 456.12 573.424 456.12 509 c 256
 456.12 460.729 499.521 431.5 576 431.5 c 257
 542 411 l 257
 476.041 420.727 425.08 450.955 425.08 518 c 256
423.661 -43 m 257
 448.594 -43 l 257
 470.334 -111.712 516.548 -142.25 593.336 -142.25 c 256
 697.583 -142.25 772.154 -72.085 772.154 51 c 256
 772.154 72 771.689 66.0068 770.75 74 c 257
 797 78.75 l 257
 797.004 58.4795 797.25 75.667 797.25 39 c 256
 797.25 -108.6 709.976 -204.25 605 -204.25 c 256
 499.809 -204.25 443.283 -144.604 423.661 -43 c 257
421 169 m 256
 421 274 494 317 613 317 c 258
 733 317 l 257
 723.276 363.186 694 396 650 396 c 256
 631 396 615.049 383.911 606.5 366 c 256
 596 344 579.802 336 565 336 c 256
 540 336 527 351 527 372 c 256
 527 408.283 567 433 622 433 c 256
 707.739 433 750.904 389.003 769 294 c 257
 632 294 l 258
 544 294 498 257 498 173 c 256
 498 89 568 27 651 27 c 256
 697.077 27 741.052 50.043 774 92 c 257
 797 78.75 l 257
 757.4 33.3633 718.458 -1 624 -1 c 256
 493 -1 421 69 421 169 c 256
134 207 m 256
 134 330 209 431.5 320 431.5 c 256
 323.953 431.5 328.954 431.25 333 431 c 257
 333 408 l 257
 329.645 408.284 325.311 408.45 322 408.45 c 256
 236 408.45 169 332 169 230 c 256
 169 147 217.31 71 306 71 c 256
 365 71 418 98.6416 418 158 c 256
 418 196 398.453 217 367 217 c 256
 359.667 217 349 214 344 210 c 257
 343 204 342 195.333 342 192 c 257
 315 192 l 257
 328.678 352.298 406.221 438 560 438 c 256
 591 438 640.988 436.425 674 426 c 257
 553 409.25 l 257
 547.395 409.405 543.217 409.5 537.5 409.5 c 256
 430.521 409.5 369.281 339.916 347 236 c 257
 355 240 363.333 241 370 241 c 256
 418 241 452 202 452 136 c 256
 452 56 395 -2 308 -2 c 256
 197 -2 134 96 134 207 c 256
27 221 m 256
 27 352.7 99.7562 433 239 433 c 256
 248 433 301 433 324 431.5 c 257
 320 431.5 231 406 231 406 c 257
 97 406 56 312.399 56 218 c 256
 56 137.333 83 75.333 135 30 c 257
 135 0 l 257
 68.5828 33.2086 27 120.07 27 221 c 256
EndSplineSet
EndChar

StartChar: si_JnyRa
Encoding: 191 -1 158
GlifName: si_J_nyR_a
Width: 842
VWidth: 0
Flags: W
LayerCount: 2
Back
Fore
SplineSet
423.661 -43 m 257
 448.594 -43 l 257
 470.334 -111.712 516.548 -142.25 593.336 -142.25 c 256
 697.583 -142.25 772.154 -72.085 772.154 51 c 256
 772.154 72 771.689 66.0068 770.75 74 c 257
 797 78.75 l 257
 797.004 58.4795 797.25 75.667 797.25 39 c 256
 797.25 -108.6 709.976 -204.25 605 -204.25 c 256
 499.809 -204.25 443.283 -144.604 423.661 -43 c 257
421 169 m 256
 421 274 494 317 613 317 c 258
 733 317 l 257
 723.276 363.186 694 396 650 396 c 256
 631 396 615.049 383.911 606.5 366 c 256
 596 344 579.802 336 565 336 c 256
 540 336 527 351 527 372 c 256
 527 408.283 567 433 622 433 c 256
 707.739 433 750.904 389.003 769 294 c 257
 632 294 l 258
 544 294 498 257 498 173 c 256
 498 89 568 27 651 27 c 256
 697.077 27 741.052 50.043 774 92 c 257
 797 78.75 l 257
 757.4 33.3633 718.458 -1 624 -1 c 256
 493 -1 421 69 421 169 c 256
27 221 m 256
 27 352.7 99.7562 433 239 433 c 256
 248 433 301 433 324 431.5 c 257
 320 431.5 231 406 231 406 c 257
 97 406 56 312.399 56 218 c 256
 56 137.333 83 75.333 135 30 c 257
 135 0 l 257
 68.5828 33.2086 27 120.07 27 221 c 256
134 207 m 256
 134 330 209 431.5 320 431.5 c 256
 323.953 431.5 328.954 431.25 333 431 c 257
 333 408 l 257
 329.645 408.284 325.311 408.45 322 408.45 c 256
 236 408.45 169 332 169 230 c 256
 169 147 217.31 71 306 71 c 256
 365 71 418 98.6416 418 158 c 256
 418 196 398.453 217 367 217 c 256
 359.667 217 349 214 344 210 c 257
 343 204 342 195.333 342 192 c 257
 315 192 l 257
 328.678 352.298 406.221 438 560 438 c 256
 591 438 640.988 436.425 674 426 c 257
 553 409.25 l 257
 547.395 409.405 543.217 409.5 537.5 409.5 c 256
 430.521 409.5 369.281 339.916 347 236 c 257
 355 240 363.333 241 370 241 c 256
 418 241 452 202 452 136 c 256
 452 56 395 -2 308 -2 c 256
 197 -2 134 96 134 207 c 256
EndSplineSet
EndChar

StartChar: si_JnyU
Encoding: 189 -1 159
GlifName: si_J_nyU_
Width: 842
VWidth: 0
Flags: W
LayerCount: 2
Back
Fore
SplineSet
422.75 -142.5 m 256
 422.75 -90.4912 469.043 -50.5 524.25 -50.5 c 256
 566.156 -50.5 603.5 -74.1416 618.25 -110 c 257
 588.25 -121.5 l 257
 581.232 -101.896 557.25 -80 524.25 -80 c 256
 487.546 -80 456.25 -106.714 456.25 -142.5 c 256
 456.25 -171.663 479.634 -199 545.25 -199 c 258
 763.75 -199 l 257
 763.75 69 l 257
 796.75 78.75 l 257
 796.75 -235 l 257
 528.25 -235 l 258
 459.09 -235 422.75 -186.092 422.75 -142.5 c 256
421 169 m 256
 421 274 494 317 613 317 c 258
 733 317 l 257
 723.276 363.186 694 396 650 396 c 256
 631 396 615.049 383.911 606.5 366 c 256
 596 344 579.802 336 565 336 c 256
 540 336 527 351 527 372 c 256
 527 408.283 567 433 622 433 c 256
 707.739 433 750.904 389.003 769 294 c 257
 632 294 l 258
 544 294 498 257 498 173 c 256
 498 89 568 27 651 27 c 256
 697.077 27 741.052 50.043 774 92 c 257
 797 78.75 l 257
 757.4 33.3633 718.458 -1 624 -1 c 256
 493 -1 421 69 421 169 c 256
27 221 m 256
 27 352.7 99.7562 433 239 433 c 256
 248 433 301 433 324 431.5 c 257
 320 431.5 231 406 231 406 c 257
 97 406 56 312.399 56 218 c 256
 56 137.333 83 75.333 135 30 c 257
 135 0 l 257
 68.5828 33.2086 27 120.07 27 221 c 256
134 207 m 256
 134 330 209 431.5 320 431.5 c 256
 323.953 431.5 328.954 431.25 333 431 c 257
 333 408 l 257
 329.645 408.284 325.311 408.45 322 408.45 c 256
 236 408.45 169 332 169 230 c 256
 169 147 217.31 71 306 71 c 256
 365 71 418 98.6416 418 158 c 256
 418 196 398.453 217 367 217 c 256
 359.667 217 349 214 344 210 c 257
 343 204 342 195.333 342 192 c 257
 315 192 l 257
 328.678 352.298 406.221 438 560 438 c 256
 591 438 640.988 436.425 674 426 c 257
 553 409.25 l 257
 547.395 409.405 543.217 409.5 537.5 409.5 c 256
 430.521 409.5 369.281 339.916 347 236 c 257
 355 240 363.333 241 370 241 c 256
 418 241 452 202 452 136 c 256
 452 56 395 -2 308 -2 c 256
 197 -2 134 96 134 207 c 256
EndSplineSet
EndChar

StartChar: si_JnyUu
Encoding: 190 -1 160
GlifName: si_J_nyU_u
Width: 842
VWidth: 0
Flags: W
LayerCount: 2
Back
Fore
SplineSet
422.75 -138.75 m 256
 422.75 -80.75 471.75 -40.75 524.75 -40.75 c 256
 566.75 -40.75 599.083 -55.75 621.75 -91.75 c 257
 591.75 -102.75 l 257
 579.75 -83.75 558.75 -68.75 529.75 -68.75 c 256
 490.75 -68.75 458.75 -92.75 458.75 -129.75 c 256
 458.75 -167.116 486.75 -191.75 529.75 -191.75 c 256
 584.962 -191.75 612.425 -127.5 690 -127.5 c 256
 715.479 -127.5 744.534 -136.224 764 -159.75 c 257
 764 72 l 257
 797 78.75 l 257
 797 -231.75 l 257
 774 -231.75 l 257
 760.064 -193.978 740.303 -154.5 695.75 -154.5 c 256
 618.297 -154.5 598.529 -237.75 522.5 -237.75 c 256
 474.534 -237.75 422.75 -206.75 422.75 -138.75 c 256
421 169 m 256
 421 274 494 317 613 317 c 258
 733 317 l 257
 723.276 363.186 694 396 650 396 c 256
 631 396 615.049 383.911 606.5 366 c 256
 596 344 579.802 336 565 336 c 256
 540 336 527 351 527 372 c 256
 527 408.283 567 433 622 433 c 256
 707.739 433 750.904 389.003 769 294 c 257
 632 294 l 258
 544 294 498 257 498 173 c 256
 498 89 568 27 651 27 c 256
 697.077 27 741.052 50.043 774 92 c 257
 797 78.75 l 257
 757.4 33.3633 718.458 -1 624 -1 c 256
 493 -1 421 69 421 169 c 256
27 221 m 256
 27 352.7 99.7562 433 239 433 c 256
 248 433 301 433 324 431.5 c 257
 320 431.5 231 406 231 406 c 257
 97 406 56 312.399 56 218 c 256
 56 137.333 83 75.333 135 30 c 257
 135 0 l 257
 68.5828 33.2086 27 120.07 27 221 c 256
134 207 m 256
 134 330 209 431.5 320 431.5 c 256
 323.953 431.5 328.954 431.25 333 431 c 257
 333 408 l 257
 329.645 408.284 325.311 408.45 322 408.45 c 256
 236 408.45 169 332 169 230 c 256
 169 147 217.31 71 306 71 c 256
 365 71 418 98.6416 418 158 c 256
 418 196 398.453 217 367 217 c 256
 359.667 217 349 214 344 210 c 257
 343 204 342 195.333 342 192 c 257
 315 192 l 257
 328.678 352.298 406.221 438 560 438 c 256
 591 438 640.988 436.425 674 426 c 257
 553 409.25 l 257
 547.395 409.405 543.217 409.5 537.5 409.5 c 256
 430.521 409.5 369.281 339.916 347 236 c 257
 355 240 363.333 241 370 241 c 256
 418 241 452 202 452 136 c 256
 452 56 395 -2 308 -2 c 256
 197 -2 134 96 134 207 c 256
EndSplineSet
EndChar

StartChar: si_K.halant
Encoding: 90 -1 161
GlifName: si_K_.halant
Width: 746
VWidth: 0
Flags: W
LayerCount: 2
Back
Fore
SplineSet
551 347 m 257
 551 680 l 257
 605 638 701 633 701 541 c 256
 701 497 666.191 467 623 467 c 256
 608.333 467 593.333 470.333 578 477 c 257
 578 330 l 257
 551 347 l 257
578 502 m 257
 586.667 497.333 597.667 495 611 495 c 256
 649 495 664 520 664 544 c 256
 664 586 625 606 578 637 c 257
 578 502 l 257
EndSplineSet
Refer: 439 3482 N 1 0 0 1 0 0 2
EndChar

StartChar: si_KI
Encoding: 91 -1 162
GlifName: si_K_I_
Width: 746
VWidth: 0
Flags: W
LayerCount: 2
Back
Fore
SplineSet
218 421 m 256
 218 590 330 671 473 671 c 256
 603 671 688 610 688 505 c 256
 688 444 658 402 610 383 c 257
 578 403 l 257
 618 405 656 440 656 486 c 256
 656 574 555 598 473 598 c 256
 336 598 244 527.637 244 404 c 256
 244 389.333 245.667 376.333 249 365 c 257
 225 343 l 257
 220.903 360.752 218 389.837 218 421 c 256
EndSplineSet
Refer: 439 3482 N 1 0 0 1 0 0 2
EndChar

StartChar: si_KIi
Encoding: 92 -1 163
GlifName: si_K_I_i
Width: 746
VWidth: 0
Flags: W
LayerCount: 2
Back
Fore
SplineSet
531.11 476 m 256
 531.11 444.07 558.429 417.29 591 417.29 c 256
 623.571 417.29 650.89 444.07 650.89 476 c 256
 650.89 507.93 623.571 534.71 591 534.71 c 256
 558.429 534.71 531.11 507.93 531.11 476 c 256
218 421 m 256
 218 590 330 671 473 671 c 256
 603 671 689 600 689 495 c 256
 689 444 651 388 593 388 c 256
 535 388 500 433 500 477 c 256
 500 539.223 556.516 578.315 620 561.896 c 257
 581 590 519.945 598 473 598 c 256
 336 598 244 527.637 244 404 c 256
 244 389.333 245.667 376.333 249 365 c 257
 225 343 l 257
 220.903 360.752 218 389.837 218 421 c 256
EndSplineSet
Refer: 439 3482 N 1 0 0 1 0 0 2
EndChar

StartChar: si_KRI
Encoding: 98 -1 164
GlifName: si_K_R_I_
Width: 746
VWidth: 0
Flags: W
LayerCount: 2
Back
Fore
SplineSet
114 -44 m 257
 141 -44 l 257
 176.333 -119.333 263.667 -157 369 -157 c 256
 512 -157 660 -90 660 50 c 256
 660 71 655 93 648 102 c 257
 659 133 l 257
 677 106.333 686 74.667 686 38 c 256
 686 -123.729 536 -219 385 -219 c 256
 244 -219 151.333 -153.333 114 -44 c 257
EndSplineSet
Refer: 162 -1 N 1 0 0 1 0 0 2
EndChar

StartChar: si_KRIi
Encoding: 99 -1 165
GlifName: si_K_R_I_i
Width: 746
VWidth: 0
Flags: W
LayerCount: 2
Back
Fore
SplineSet
114 -44 m 257
 141 -44 l 257
 176.333 -119.333 263.667 -157 369 -157 c 256
 512 -157 660 -90 660 50 c 256
 660 71 655 93 648 102 c 257
 659 133 l 257
 677 106.333 686 74.667 686 38 c 256
 686 -123.729 536 -219 385 -219 c 256
 244 -219 151.333 -153.333 114 -44 c 257
EndSplineSet
Refer: 163 -1 N 1 0 0 1 0 0 2
EndChar

StartChar: si_KRa
Encoding: 97 -1 166
GlifName: si_K_R_a
Width: 746
VWidth: 0
Flags: W
LayerCount: 2
Back
Fore
SplineSet
114 -44 m 257
 141 -44 l 257
 176.333 -119.333 263.667 -157 369 -157 c 256
 512 -157 660 -90 660 50 c 256
 660 71 655 93 648 102 c 257
 659 133 l 257
 677 106.333 686 74.667 686 38 c 256
 686 -123.729 536 -219 385 -219 c 256
 244 -219 151.333 -153.333 114 -44 c 257
EndSplineSet
Refer: 439 3482 N 1 0 0 1 0 0 2
EndChar

StartChar: si_KSs.halant
Encoding: 440 -1 167
GlifName: si_K_S_s.halant
Width: 1069
VWidth: 0
Flags: W
LayerCount: 2
Back
Fore
SplineSet
870.244 412.75 m 257
 870.244 680 l 257
 924.244 638 1020.24 633 1020.24 541 c 256
 1020.24 497 985.436 467 942.244 467 c 256
 927.577 467 912.577 470.333 897.244 477 c 257
 897.244 410 l 257
 870.244 412.75 l 257
897.244 502 m 257
 905.911 497.333 916.911 495 930.244 495 c 256
 968.244 495 983.244 520 983.244 544 c 256
 983.244 586 944.244 606 897.244 637 c 257
 897.244 502 l 257
EndSplineSet
Refer: 172 -1 N 1 0 0 1 0 0 2
EndChar

StartChar: si_KSsI
Encoding: 441 -1 168
GlifName: si_K_S_sI_
Width: 1069
VWidth: 0
Flags: W
LayerCount: 2
Back
Fore
SplineSet
515.244 518 m 256
 515.244 626.291 627.865 671 747.244 671 c 256
 866.623 671 979.244 626.291 979.244 518 c 256
 979.244 443.457 913.102 408.074 836.244 405 c 257
 836.244 426 l 257
 889.92 428.825 945.244 454 945.244 509 c 256
 945.244 580.089 836.152 598 747.244 598 c 256
 658.336 598 549.244 580.089 549.244 509 c 256
 549.244 454 604.568 428.825 658.244 426 c 257
 658.244 405 l 257
 581.387 408.074 515.244 443.457 515.244 518 c 256
EndSplineSet
Refer: 172 -1 N 1 0 0 1 0 0 2
EndChar

StartChar: si_KSsIi
Encoding: 442 -1 169
GlifName: si_K_S_sI_i
Width: 1069
VWidth: 0
Flags: W
LayerCount: 2
Back
Fore
SplineSet
832.744 514 m 256
 832.744 483 862.744 458 898.744 458 c 256
 934.744 458 964.744 483 964.744 514 c 256
 964.744 545 934.744 570 898.744 570 c 256
 862.744 570 832.744 545 832.744 514 c 256
495.744 517 m 256
 495.744 624.211 619.69 671 746.744 671 c 256
 863.458 671 999.744 627.399 999.744 524 c 256
 999.744 468.769 955.021 429 898.744 429 c 256
 840.744 429 800.744 470 800.744 515 c 256
 800.744 560 832.744 582 851.744 591 c 257
 840.744 594 801.744 600 747.744 600 c 256
 653.58 600 532.744 578 532.744 499 c 256
 532.744 460.333 554.744 435 592.744 426 c 257
 585.744 406 l 257
 532.499 410.733 495.744 456 495.744 517 c 256
EndSplineSet
Refer: 172 -1 N 1 0 0 1 0 0 2
EndChar

StartChar: si_KSsU
Encoding: 443 -1 170
GlifName: si_K_S_sU_
Width: 1069
VWidth: 0
Flags: W
LayerCount: 2
Back
Fore
SplineSet
492.494 -142.5 m 256
 492.494 -90.4912 538.787 -50.5 593.994 -50.5 c 256
 635.9 -50.5 673.244 -74.1416 687.994 -110 c 257
 657.994 -121.5 l 257
 650.977 -101.896 626.994 -80 593.994 -80 c 256
 557.29 -80 525.994 -106.714 525.994 -142.5 c 256
 525.994 -171.663 549.378 -199 614.994 -199 c 258
 982.244 -199 l 257
 982.244 128 l 257
 1015.24 198 l 257
 1015.24 -235 l 257
 597.994 -235 l 258
 528.834 -235 492.494 -186.092 492.494 -142.5 c 256
EndSplineSet
Refer: 172 -1 N 1 0 0 1 0 0 2
EndChar

StartChar: si_KSsUu
Encoding: 444 -1 171
GlifName: si_K_S_sU_u
Width: 1069
VWidth: 0
Flags: W
LayerCount: 2
Back
Fore
SplineSet
491 -138 m 256
 491 -80 540 -40 593 -40 c 256
 635 -40 667.333 -55 690 -91 c 257
 660 -102 l 257
 648 -83 627 -68 598 -68 c 256
 559 -68 527 -92 527 -129 c 256
 527 -166.366 558 -191 601 -191 c 256
 685 -191 760.5 -117 855.5 -117 c 256
 905.541 -117 955 -136 982 -168 c 257
 982 152 l 257
 1015 212 l 257
 1015 -231 l 257
 992 -231 l 257
 972.468 -192.516 929.934 -145 858.5 -145 c 256
 767.5 -145 700 -237 602 -237 c 256
 547 -237 491 -206 491 -138 c 256
EndSplineSet
Refer: 172 -1 N 1 0 0 1 0 0 2
EndChar

StartChar: si_KSsa
Encoding: 429 -1 172
GlifName: si_K_S_sa
Width: 1069
VWidth: 0
Flags: W
LayerCount: 2
Back
Fore
SplineSet
70 95 m 257
 76 98.333 82.333 100 89 100 c 256
 118 100 142 71 199 71 c 256
 250.183 71 281 101.864 281 162 c 256
 281 164.209 281.041 161.305 281 163 c 257
 307 163 l 257
 306.964 161.664 307 163.33 307 162 c 256
 307 96.9268 334 71 392 71 c 256
 454.089 71 474 123 474 159 c 256
 474 242 400.879 291 298 291 c 256
 241.333 291 203 282 182 273 c 257
 164.667 258.333 144.986 234.677 129 212 c 256
 100.333 171.333 80.667 131.667 70 95 c 257
21 22 m 257
 28.6963 91.2695 74.4524 184.165 109 232 c 256
 135 268 150 282 168 301 c 257
 180 314 193 330 193 352 c 256
 193 374 183.408 392 158 392 c 256
 144 392 122.479 384.287 116 363 c 256
 109 340 112.654 340.109 106 323 c 256
 99 305 84 297 69 297 c 256
 35 297 29 328 29 340 c 256
 29 394.099 79.3633 433 136 433 c 256
 185.712 433 220.079 402 220.079 356 c 256
 220.079 351.468 219.724 345.795 219 341 c 257
 300.039 401.483 418.56 436.051 555 436 c 256
 590.22 435.987 624 433 624 433 c 257
 541 405 l 257
 541 405 529.343 406 524 406 c 256
 378.118 406 273.411 350.054 219 308 c 257
 243 314 274.667 316 302 316 c 256
 422 316 515 251 515 126 c 256
 515 67.8477 482 -1 397 -1 c 256
 351 -1 317.333 20.333 296 63 c 257
 278.667 21.667 246.021 -1 204 -1 c 256
 117 -1 120 73 87 73 c 256
 64.6748 73 50 51 47 11 c 257
 21 22 l 257
478.575 183.555 m 256
 478.575 274.624 546.474 326.928 654.244 326.928 c 256
 667.244 326.928 678.452 326.289 691.244 325 c 257
 691.705 328.824 691.926 332.491 691.926 336 c 256
 691.926 375 666.367 395.274 635.244 395.274 c 256
 603.214 395.274 590.805 378.803 585.897 360 c 256
 582.244 346 569.59 328.073 541.244 328.073 c 256
 522.244 328.073 502.569 340 502.569 365 c 256
 502.569 409 550.244 433.626 605.434 433.626 c 256
 677.792 433.626 722.113 401 722.113 334 c 256
 722.113 322.637 720.876 311.304 718.244 298 c 257
 700.425 300.376 665.475 301.718 664.244 301.718 c 256
 586.965 301.718 516.244 275.738 516.244 201 c 256
 516.244 106.584 640.244 71 754.244 71 c 256
 860.795 71 987.244 110 987.244 205 c 256
 987.244 277.999 919.244 303.612 841.244 303.612 c 256
 818.063 303.612 794.171 301.169 771.244 297 c 257
 769.316 307.924 768.388 318.267 768.388 328 c 256
 768.388 397 813.201 433.118 886.089 433.118 c 256
 952.244 433.118 988.263 392.966 988.263 354 c 256
 988.263 291.661 896.275 249.762 846.244 240 c 257
 865.577 231.333 879.244 216.333 879.244 197 c 256
 879.244 152 822.244 135 743.244 135 c 256
 687.57 135 619.244 149 619.244 198 c 256
 619.244 226 639.244 254 735.244 254 c 256
 758.244 254 805.337 255.452 836.244 261 c 256
 886.597 270.038 952.723 306.338 952.723 351 c 256
 952.723 380 926.244 404.638 879.244 404.638 c 256
 836.021 404.638 800.429 381 800.429 336 c 256
 800.429 332.228 800.707 328.864 801.244 325 c 257
 818.199 327.055 834.589 328.098 850.244 328.098 c 256
 941.598 328.098 1021.25 293.413 1021.25 186.451 c 256
 1021.25 55.5615 894.889 0 754.244 0 c 256
 605.834 0 478.575 45.9199 478.575 183.555 c 256
649.244 198 m 256
 649.244 175 681.577 161 746.244 161 c 256
 814.244 161 849.244 175 849.244 197 c 256
 849.244 221.676 815.244 232 745.244 232 c 256
 680.244 232 649.244 220 649.244 198 c 256
EndSplineSet
EndChar

StartChar: si_KU
Encoding: 93 -1 173
GlifName: si_K_U_
Width: 746
VWidth: 0
Flags: W
LayerCount: 2
Back
Fore
SplineSet
443.065 -80 m 256
 443.065 -29.6539 471.569 8.02106 515.565 21 c 257
 522 -5.5 l 257
 501.48 -13.1343 481.065 -33.3157 481.065 -63.25 c 256
 481.065 -107.306 527.758 -132 583.565 -132 c 256
 636.002 -132 690.758 -99.4656 690.758 -45 c 256
 690.758 -42.0391 690.484 -39.0381 690.065 -36 c 257
 720.065 -36 l 257
 722.42 -45.416 722.5 -60.29 722.5 -69.5 c 256
 722.5 -122.146 676.978 -191.5 582.065 -191.5 c 256
 512.32 -191.5 443.065 -149.233 443.065 -80 c 256
21 22 m 257
 28.6966 91.2697 74.4525 184.165 109 232 c 256
 135 268 150 282 168 301 c 257
 180 314 193 330 193 352 c 256
 193 374 183.408 392 158 392 c 256
 144 392 122.479 384.287 116 363 c 256
 109 340 112.654 340.109 106 323 c 256
 99 305 84 297 69 297 c 256
 35 297 29 328 29 340 c 256
 29 394.099 79.3632 433 136 433 c 256
 185.712 433 220.079 402 220.079 356 c 256
 220.079 351.468 219.724 345.795 219 341 c 257
 281 401 366 434 453 434 c 256
 603 434 701 328 701 192 c 256
 701 112 656 0 565 0 c 256
 547 0 530 -3 520 -7 c 257
 512 19 l 257
 521 24 545 27 556 27 c 256
 607 27 649 74 649 153 c 256
 649 285 534.342 368 400 368 c 256
 326.667 368 266 348 219 308 c 257
 243 314 274.667 316 302 316 c 256
 422 316 515 251 515 126 c 256
 515 67.8472 482 -1 397 -1 c 256
 351 -1 317.333 20.3333 296 63 c 257
 278.667 21.6667 246.021 -1 204 -1 c 256
 117 -1 120 73 87 73 c 256
 64.6748 73 50 51 47 11 c 257
 21 22 l 257
70 95 m 257
 76 98.3333 82.3333 100 89 100 c 256
 118 100 142 71 199 71 c 256
 250.183 71 281 101.864 281 162 c 256
 281 164.209 281.041 161.305 281 163 c 257
 307 163 l 257
 306.964 161.664 307 163.33 307 162 c 256
 307 96.9263 334 71 392 71 c 256
 454.089 71 474 123 474 159 c 256
 474 242 400.879 291 298 291 c 256
 241.333 291 203 282 182 273 c 257
 164.667 258.333 145 234.667 129 212 c 256
 100.333 171.333 80.6667 131.667 70 95 c 257
EndSplineSet
EndChar

StartChar: si_KUu
Encoding: 94 -1 175
GlifName: si_K_U_u
Width: 746
VWidth: 0
Flags: W
LayerCount: 2
Back
Fore
SplineSet
446 -129 m 256
 446 -93.3486 477.344 -71.125 510 -67 c 257
 455 -39 l 257
 542 -14 l 257
 506 0 l 257
 506 21 l 257
 600.5 -14.5 l 257
 514 -43 l 257
 574 -75.5 l 257
 546 -82.5 486 -84.5747 486 -115 c 256
 486 -146 527.924 -155 570 -155 c 256
 624 -155 669.729 -131 669.729 -82 c 256
 669.729 -77 669.193 -69.3867 664 -59 c 257
 697 -59 l 257
 700.591 -71.1182 701.304 -82.833 701.304 -94 c 256
 701.304 -161 650 -205 568 -205 c 256
 510 -205 446 -187.466 446 -129 c 256
EndSplineSet
Refer: 439 3482 N 1 0 0 1 0 0 2
EndChar

StartChar: si_KV.halant
Encoding: 445 -1 176
GlifName: si_K_V_.halant
Width: 1061
VWidth: 0
Flags: W
LayerCount: 2
Back
Fore
SplineSet
21 22 m 257
 28.6963 91.2695 74.4521 184.165 109 232 c 256
 135 268 150 282 168 301 c 257
 180 314 193 330 193 352 c 256
 193 374 183.408 392 158 392 c 256
 144 392 122.479 384.287 116 363 c 256
 109 340 112.653 340.109 106 323 c 256
 99 305 84 297 69 297 c 256
 35 297 29 328 29 340 c 256
 29 394.099 79.3633 433 136 433 c 256
 185.712 433 220.079 402 220.079 356 c 256
 220.079 351.468 219.724 345.795 219 341 c 257
 247.357 360.268 284.339 384.201 355 406 c 256
 425.91 429.896 483.2 436 564.25 436 c 256
 586.952 436 645.071 433.389 682.5 421.25 c 257
 600.25 407.5 l 257
 589.28 408.815 568.462 409 558.25 409 c 256
 508.816 409 471.183 404.734 439 399 c 256
 355.979 385.125 294.011 361.216 219 308 c 257
 243 314 274.667 316 302 316 c 256
 422 316 515 251 515 126 c 256
 515 67.8477 482 -1 397 -1 c 256
 351 -1 317.333 20.333 296 63 c 257
 278.667 21.667 246.021 -1 204 -1 c 256
 117 -1 120 73 87 73 c 256
 64.6748 73 50 51 47 11 c 257
 21 22 l 257
70 95 m 257
 76 98.3333 82.3333 100 89 100 c 256
 118 100 142 71 199 71 c 256
 250.183 71 281 101.864 281 162 c 256
 281 164.209 281.041 161.305 281 163 c 257
 307 163 l 257
 306.964 161.664 307 163.33 307 162 c 256
 307 96.9263 334 71 392 71 c 256
 454.089 71 474 123 474 159 c 256
 474 242 400.879 291 298 291 c 256
 241.333 291 203 282 182 273 c 257
 164.667 258.333 145 234.667 129 212 c 256
 100.333 171.333 80.6667 131.667 70 95 c 257
497 165 m 256
 497 250 562 304 663 304 c 258
 724 304 l 258
 724.082 306.041 724.086 306.041 724.086 308 c 256
 724.086 362 690 395 653 395 c 256
 608 395 600 371 594.5 355 c 256
 587.951 335.948 578.371 323 556.5 323 c 256
 540.5 323 519.75 333.618 519.75 359.25 c 256
 519.75 404.581 570 431.5 625 431.5 c 256
 713 431.5 756.146 376 756.146 290 c 256
 756.146 286.722 756.101 283.388 756 280 c 258
 666 280 l 258
 592 280 532 245.216 532 180 c 256
 532 94 644 71 734 71 c 256
 880.59 71 977.914 153.967 977.964 292 c 256
 978.01 419.968 871.218 493.75 728.5 493.75 c 256
 652.5 493.75 583.23 476.844 503.25 452 c 257
 503.25 484 l 257
 535.25 491 585.5 499 585.5 508 c 256
 585.5 520 557.5 524 557.5 546 c 256
 557.5 583 620.5 629 735.5 629 c 256
 930.102 629 992.25 490 1004.25 356 c 256
 1009.3 331.829 1011.66 305.024 1012 274 c 257
 1012 112.779 913.362 0 731 0 c 256
 610 0 497 46 497 165 c 256
598.5 543 m 256
 598.5 531 622.5 526 622.5 515 c 256
 622.5 513 621.5 510 619.5 508 c 257
 652.5 514 690.175 519 736.5 519 c 256
 825.48 519 914.079 486.84 962.25 422 c 257
 929.25 537 847.414 590 741.5 590 c 256
 669.5 590 598.5 567 598.5 543 c 256
EndSplineSet
EndChar

StartChar: si_KVI
Encoding: 446 -1 177
GlifName: si_K_V_I_
Width: 1061
VWidth: 0
Flags: W
LayerCount: 2
Back
Fore
SplineSet
21 22 m 257
 28.6963 91.2695 74.4521 184.165 109 232 c 256
 135 268 150 282 168 301 c 257
 180 314 193 330 193 352 c 256
 193 374 183.408 392 158 392 c 256
 144 392 122.479 384.287 116 363 c 256
 109 340 112.653 340.109 106 323 c 256
 99 305 84 297 69 297 c 256
 35 297 29 328 29 340 c 256
 29 394.099 79.3633 433 136 433 c 256
 185.712 433 220.079 402 220.079 356 c 256
 220.079 351.468 219.724 345.795 219 341 c 257
 247.357 360.268 284.339 384.201 355 406 c 256
 425.91 429.896 483.2 436 564.25 436 c 256
 586.952 436 645.071 433.389 682.5 421.25 c 257
 600.25 407.5 l 257
 589.28 408.815 568.462 409 558.25 409 c 256
 508.816 409 471.183 404.734 439 399 c 256
 355.979 385.125 294.011 361.216 219 308 c 257
 243 314 274.667 316 302 316 c 256
 422 316 515 251 515 126 c 256
 515 67.8477 482 -1 397 -1 c 256
 351 -1 317.333 20.333 296 63 c 257
 278.667 21.667 246.021 -1 204 -1 c 256
 117 -1 120 73 87 73 c 256
 64.6748 73 50 51 47 11 c 257
 21 22 l 257
70 95 m 257
 76 98.3333 82.3333 100 89 100 c 256
 118 100 142 71 199 71 c 256
 250.183 71 281 101.864 281 162 c 256
 281 164.209 281.041 161.305 281 163 c 257
 307 163 l 257
 306.964 161.664 307 163.33 307 162 c 256
 307 96.9263 334 71 392 71 c 256
 454.089 71 474 123 474 159 c 256
 474 242 400.879 291 298 291 c 256
 241.333 291 203 282 182 273 c 257
 164.667 258.333 145 234.667 129 212 c 256
 100.333 171.333 80.6667 131.667 70 95 c 257
EndSplineSet
Refer: 397 -1 N 1 0 0 1 465 0 2
EndChar

StartChar: si_KVIi
Encoding: 447 -1 178
GlifName: si_K_V_I_i
Width: 1061
VWidth: 0
Flags: W
LayerCount: 2
Back
Fore
SplineSet
21 22 m 257
 28.6963 91.2695 74.4521 184.165 109 232 c 256
 135 268 150 282 168 301 c 257
 180 314 193 330 193 352 c 256
 193 374 183.408 392 158 392 c 256
 144 392 122.479 384.287 116 363 c 256
 109 340 112.653 340.109 106 323 c 256
 99 305 84 297 69 297 c 256
 35 297 29 328 29 340 c 256
 29 394.099 79.3633 433 136 433 c 256
 185.712 433 220.079 402 220.079 356 c 256
 220.079 351.468 219.724 345.795 219 341 c 257
 247.357 360.268 284.339 384.201 355 406 c 256
 425.91 429.896 483.2 436 564.25 436 c 256
 586.952 436 645.071 433.389 682.5 421.25 c 257
 600.25 407.5 l 257
 589.28 408.815 568.462 409 558.25 409 c 256
 508.816 409 471.183 404.734 439 399 c 256
 355.979 385.125 294.011 361.216 219 308 c 257
 243 314 274.667 316 302 316 c 256
 422 316 515 251 515 126 c 256
 515 67.8477 482 -1 397 -1 c 256
 351 -1 317.333 20.333 296 63 c 257
 278.667 21.667 246.021 -1 204 -1 c 256
 117 -1 120 73 87 73 c 256
 64.6748 73 50 51 47 11 c 257
 21 22 l 257
70 95 m 257
 76 98.3333 82.3333 100 89 100 c 256
 118 100 142 71 199 71 c 256
 250.183 71 281 101.864 281 162 c 256
 281 164.209 281.041 161.305 281 163 c 257
 307 163 l 257
 306.964 161.664 307 163.33 307 162 c 256
 307 96.9263 334 71 392 71 c 256
 454.089 71 474 123 474 159 c 256
 474 242 400.879 291 298 291 c 256
 241.333 291 203 282 182 273 c 257
 164.667 258.333 145 234.667 129 212 c 256
 100.333 171.333 80.6667 131.667 70 95 c 257
EndSplineSet
Refer: 398 -1 N 1 0 0 1 464 0 2
EndChar

StartChar: si_KVU
Encoding: 448 -1 179
GlifName: si_K_V_U_
Width: 1061
VWidth: 0
Flags: W
LayerCount: 2
Back
Fore
SplineSet
508.75 -142.5 m 256
 508.75 -90.4912 555.043 -50.5 610.25 -50.5 c 256
 652.156 -50.5 689.5 -74.1416 704.25 -110 c 257
 674.25 -121.5 l 257
 667.232 -101.896 643.25 -80 610.25 -80 c 256
 573.546 -80 542.25 -106.714 542.25 -142.5 c 256
 542.25 -171.663 565.634 -199 631.25 -199 c 258
 969.75 -199 l 257
 969.75 128 l 257
 1002.75 219 l 257
 1002.75 -235 l 257
 614.25 -235 l 258
 545.09 -235 508.75 -186.092 508.75 -142.5 c 256
EndSplineSet
Refer: 181 -1 N 1 0 0 1 0 0 2
EndChar

StartChar: si_KVUu
Encoding: 449 -1 180
GlifName: si_K_V_U_u
Width: 1061
VWidth: 0
Flags: W
LayerCount: 2
Back
Fore
SplineSet
510.75 -138 m 256
 510.75 -80 559.75 -40 612.75 -40 c 256
 654.75 -40 687.083 -55 709.75 -91 c 257
 679.75 -102 l 257
 667.75 -83 646.75 -68 617.75 -68 c 256
 578.75 -68 546.75 -92 546.75 -129 c 256
 546.75 -166.366 577.75 -191 620.75 -191 c 256
 704.75 -191 771.5 -117 866.5 -117 c 256
 914.094 -117 945.544 -133.538 969.75 -159.75 c 257
 969.75 152 l 257
 1002.75 212 l 257
 1002.75 -231 l 257
 979.75 -231 l 257
 964.75 -195 934.375 -144 869.5 -144 c 256
 778.5 -144 719.75 -237 621.75 -237 c 256
 566.75 -237 510.75 -206 510.75 -138 c 256
EndSplineSet
Refer: 181 -1 N 1 0 0 1 0 0 2
EndChar

StartChar: si_KVa
Encoding: 430 -1 181
GlifName: si_K_V_a
Width: 1061
VWidth: 0
Flags: W
LayerCount: 2
Back
Fore
SplineSet
21 22 m 257
 28.6963 91.2695 74.4521 184.165 109 232 c 256
 135 268 150 282 168 301 c 257
 180 314 193 330 193 352 c 256
 193 374 183.408 392 158 392 c 256
 144 392 122.479 384.287 116 363 c 256
 109 340 112.653 340.109 106 323 c 256
 99 305 84 297 69 297 c 256
 35 297 29 328 29 340 c 256
 29 394.099 79.3633 433 136 433 c 256
 185.712 433 220.079 402 220.079 356 c 256
 220.079 351.468 219.724 345.795 219 341 c 257
 247.357 360.268 284.339 384.201 355 406 c 256
 425.91 429.896 483.2 436 564.25 436 c 256
 586.952 436 645.071 433.389 682.5 421.25 c 257
 600.25 407.5 l 257
 589.28 408.815 568.462 409 558.25 409 c 256
 508.816 409 471.183 404.734 439 399 c 256
 355.979 385.125 294.011 361.216 219 308 c 257
 243 314 274.667 316 302 316 c 256
 422 316 515 251 515 126 c 256
 515 67.8477 482 -1 397 -1 c 256
 351 -1 317.333 20.333 296 63 c 257
 278.667 21.667 246.021 -1 204 -1 c 256
 117 -1 120 73 87 73 c 256
 64.6748 73 50 51 47 11 c 257
 21 22 l 257
497.75 165 m 256
 497.75 250 562.75 304 663.75 304 c 258
 724.75 304 l 257
 724.832 306.041 724.836 306.041 724.836 308 c 256
 724.836 362 690.75 395 653.75 395 c 256
 608.75 395 600.75 371 595.25 355 c 256
 588.701 335.948 579.371 323 557.5 323 c 256
 541.5 323 520.5 333.034 520.5 359.75 c 256
 520.5 403.174 570.75 431.5 625.75 431.5 c 256
 713.75 431.5 756.896 376 756.896 290 c 256
 756.896 286.722 756.851 283.388 756.75 280 c 257
 666.75 280 l 258
 592.75 280 532.75 245.216 532.75 180 c 256
 532.75 94 644.75 71 734.75 71 c 256
 887.75 71 978.75 158 978.75 300 c 256
 978.75 442 875.248 553 740.75 553 c 256
 661.417 553 598.417 524.667 553.75 470 c 257
 521.75 470 l 257
 570.417 540 642.75 577 740.75 577 c 256
 900.901 577 1012.75 443 1012.75 274 c 256
 1012.75 114 914.75 0 731.75 0 c 256
 610.75 0 497.75 46 497.75 165 c 256
70 95 m 257
 76 98.3333 82.3333 100 89 100 c 256
 118 100 142 71 199 71 c 256
 250.183 71 281 101.864 281 162 c 256
 281 164.209 281.041 161.305 281 163 c 257
 307 163 l 257
 306.964 161.664 307 163.33 307 162 c 256
 307 96.9263 334 71 392 71 c 256
 454.089 71 474 123 474 159 c 256
 474 242 400.879 291 298 291 c 256
 241.333 291 203 282 182 273 c 257
 164.667 258.333 145 234.667 129 212 c 256
 100.333 171.333 80.6667 131.667 70 95 c 257
EndSplineSet
EndChar

StartChar: si_Kh.halant
Encoding: 100 -1 183
GlifName: si_K_h.halant
Width: 630
VWidth: 0
Flags: W
LayerCount: 2
Back
Fore
SplineSet
139 543 m 256
 139 531 163 526 163 515 c 256
 163 513 162 510 160 508 c 257
 193 514 232.675 519 279 519 c 256
 387 519 469 490 527 422 c 257
 494 537 400 590 284 590 c 256
 212 590 139 567 139 543 c 256
42 442 m 257
 42 473 l 257
 74 485 126 499 126 508 c 256
 126 520 98 524 98 546 c 256
 98 583 163 629 278 629 c 256
 486 629 557 490 569 356 c 257
 575 338 582 301 582 267 c 257
 543 275 l 257
 543 403.204 452.794 493.75 276 493.75 c 256
 200 493.75 123 480 42 442 c 257
92.7402 72 m 256
 92.7402 48.3096 112.31 28.7402 136 28.7402 c 256
 159.69 28.7402 179.26 48.3096 179.26 72 c 256
 179.26 95.6904 159.69 115.26 136 115.26 c 256
 112.31 115.26 92.7402 95.6904 92.7402 72 c 256
32 183 m 256
 32 322 123.839 396 240 396 c 256
 333 396 413 343.145 413 258 c 256
 413 201 385 153 346 115 c 257
 349.333 115.667 352.333 116 355 116 c 256
 384 116 387 71 431 71 c 256
 483 71 543 187 543 280 c 257
 582 272 l 257
 582 139 516 0 416 0 c 256
 352 0 348 54 321 54 c 256
 308 54 282 34 240 -21 c 257
 204 -18 l 257
 217.333 -4.66699 246.086 34.0254 288 84 c 256
 340 146 367 194 367 232 c 256
 367 286 328 320 236 320 c 256
 155.868 320 63 272 63 156 c 256
 63 144 66 118 72 101 c 257
 80 129 108 145 135 145 c 256
 180.809 145 210 116 210 72 c 256
 210 37 180 -1 141 -1 c 256
 56 -1 32 108 32 183 c 256
EndSplineSet
EndChar

StartChar: si_KhI
Encoding: 101 -1 184
GlifName: si_K_hI_
Width: 630
VWidth: 0
Flags: W
LayerCount: 2
Back
Fore
SplineSet
75 562 m 256
 75 652 206 670 306 670 c 256
 442 670 552 639 552 554 c 256
 552 502 498 480 464 474 c 257
 414 490 l 257
 450 491 505 506 505 544 c 256
 505 600.273 414 611 306 611 c 256
 230.344 611 117 605.886 117 554 c 256
 117 508 182 508 284 504 c 256
 348.869 501.456 443 499 498 459 c 256
 547.146 423.257 583 356 583 274 c 257
 544 286 l 257
 544 334 532.813 383.563 505 414 c 256
 452 472 386.019 472.325 285 478 c 256
 196 483 75 476 75 562 c 256
92.7402 72 m 256
 92.7402 48.3096 112.31 28.7402 136 28.7402 c 256
 159.69 28.7402 179.26 48.3096 179.26 72 c 256
 179.26 95.6904 159.69 115.26 136 115.26 c 256
 112.31 115.26 92.7402 95.6904 92.7402 72 c 256
32 183 m 256
 32 322 123.839 396 240 396 c 256
 333 396 413 343.145 413 258 c 256
 413 201 385 153 346 115 c 257
 349.333 115.667 352.333 116 355 116 c 256
 384 116 390 71 434 71 c 256
 493 71 544 188 544 291 c 257
 583 276 l 257
 583 143 524 0 416 0 c 256
 352 0 348 54 321 54 c 256
 308 54 282 34 240 -21 c 257
 204 -18 l 257
 217.333 -4.66699 246.086 34.0256 288 84 c 256
 340 146 367 194 367 232 c 256
 367 286 328 320 236 320 c 256
 155.868 320 63 272 63 156 c 256
 63 144 66 118 72 101 c 257
 80 129 108 145 135 145 c 256
 180.808 145 210 116 210 72 c 256
 210 37 180 -1 141 -1 c 256
 56 -1 32 108 32 183 c 256
EndSplineSet
EndChar

StartChar: si_KhIi
Encoding: 102 -1 185
GlifName: si_K_hI_i
Width: 630
VWidth: 0
Flags: W
LayerCount: 2
Back
Fore
SplineSet
399.697 555 m 256
 399.697 524.818 426.867 500.543 460 500.543 c 256
 493.133 500.543 520.303 524.818 520.303 555 c 256
 520.303 585.182 493.133 609.457 460 609.457 c 256
 426.867 609.457 399.697 585.182 399.697 555 c 256
75 562 m 256
 75 652 206 670 306 670 c 256
 442 670 552 639 552 558 c 256
 552 505 504 474 460 474 c 256
 416 474 368 505 368 558 c 256
 368 583 381 600 387 608 c 257
 380 609 348.212 611 306 611 c 256
 230.344 611 117 605.886 117 554 c 256
 117 508 182 508 284 504 c 256
 348.869 501.456 443 499 498 459 c 256
 547.146 423.257 583 356 583 274 c 257
 544 286 l 257
 544 334 532.813 383.563 505 414 c 256
 452 472 386.019 472.325 285 478 c 256
 196 483 75 476 75 562 c 256
92.7402 72 m 256
 92.7402 48.3096 112.31 28.7402 136 28.7402 c 256
 159.69 28.7402 179.26 48.3096 179.26 72 c 256
 179.26 95.6904 159.69 115.26 136 115.26 c 256
 112.31 115.26 92.7402 95.6904 92.7402 72 c 256
32 183 m 256
 32 322 123.839 396 240 396 c 256
 333 396 413 343.145 413 258 c 256
 413 201 385 153 346 115 c 257
 349.333 115.667 352.333 116 355 116 c 256
 384 116 390 71 434 71 c 256
 493 71 544 188 544 291 c 257
 583 276 l 257
 583 143 524 0 416 0 c 256
 352 0 348 54 321 54 c 256
 308 54 282 34 240 -21 c 257
 204 -18 l 257
 217.333 -4.66699 246.086 34.0256 288 84 c 256
 340 146 367 194 367 232 c 256
 367 286 328 320 236 320 c 256
 155.868 320 63 272 63 156 c 256
 63 144 66 118 72 101 c 257
 80 129 108 145 135 145 c 256
 180.808 145 210 116 210 72 c 256
 210 37 180 -1 141 -1 c 256
 56 -1 32 108 32 183 c 256
EndSplineSet
EndChar

StartChar: si_KhR.halant
Encoding: 106 -1 186
GlifName: si_K_hR_.halant
Width: 630
VWidth: 0
Flags: W
LayerCount: 2
Back
Fore
SplineSet
139 543 m 256
 139 531 163 526 163 515 c 256
 163 513 162 510 160 508 c 257
 193 514 232.675 519 279 519 c 256
 387 519 469 490 527 422 c 257
 494 537 400 590 284 590 c 256
 212 590 139 567 139 543 c 256
42 442 m 257
 42 473 l 257
 74 485 126 499 126 508 c 256
 126 520 98 524 98 546 c 256
 98 583 163 629 278 629 c 256
 486 629 557 490 569 356 c 257
 575 338 582 301 582 267 c 257
 543 275 l 257
 543 283 542.826 279 542.826 283 c 256
 542.826 409 445 493.75 276 493.75 c 256
 200 493.75 123 480 42 442 c 257
92.7402 72 m 256
 92.7402 48.3096 112.31 28.7402 136 28.7402 c 256
 159.69 28.7402 179.26 48.3096 179.26 72 c 256
 179.26 95.6904 159.69 115.26 136 115.26 c 256
 112.31 115.26 92.7402 95.6904 92.7402 72 c 256
32 183 m 256
 32 322 123.839 396 240 396 c 256
 333 396 413 343.145 413 258 c 256
 413 201 385 153 346 115 c 257
 349.333 115.667 352.333 116 355 116 c 256
 384 116 387 71 431 71 c 256
 483 71 543 187 543 280 c 257
 582 272 l 257
 582 139 516 0 416 0 c 256
 352 0 348 54 321 54 c 256
 308 54 282 34 240 -21 c 257
 204 -18 l 257
 217.333 -4.66699 246.086 34.0254 288 84 c 256
 340 146 367 194 367 232 c 256
 367 286 328 320 236 320 c 256
 155.868 320 63 272 63 156 c 256
 63 144 66 118 72 101 c 257
 80 129 108 145 135 145 c 256
 180.809 145 210 116 210 72 c 256
 210 37 180 -1 141 -1 c 256
 56 -1 32 108 32 183 c 256
56 -44 m 257
 83 -44 l 257
 118.333 -119.333 187.667 -157 293 -157 c 256
 436 -157 554 -90 554 50 c 256
 554 71 549 93 542 102 c 257
 555 133 l 257
 573 106.333 582 74.667 582 38 c 256
 582 -123.729 453 -219 309 -219 c 256
 176 -219 93.333 -153.333 56 -44 c 257
EndSplineSet
EndChar

StartChar: si_KhRI
Encoding: 107 -1 187
GlifName: si_K_hR_I_
Width: 630
VWidth: 0
Flags: W
LayerCount: 2
Back
Fore
SplineSet
56 -44 m 257
 83 -44 l 257
 118.333 -119.333 187.667 -157 293 -157 c 256
 436 -157 554 -90 554 50 c 256
 554 71 549 93 542 102 c 257
 555 133 l 257
 573 106.333 582 74.667 582 38 c 256
 582 -123.729 453 -219 309 -219 c 256
 176 -219 93.333 -153.333 56 -44 c 257
75 562 m 256
 75 652 206 670 306 670 c 256
 442 670 552 639 552 554 c 256
 552 502 498 480 464 474 c 257
 414 490 l 257
 450 491 505 506 505 544 c 256
 505 600.273 414 611 306 611 c 256
 230.344 611 117 605.886 117 554 c 256
 117 508 182 508 284 504 c 256
 348.869 501.456 443 499 498 459 c 256
 547.146 423.257 583 356 583 274 c 257
 544 286 l 257
 544 334 532.813 383.563 505 414 c 256
 452 472 386.019 472.325 285 478 c 256
 196 483 75 476 75 562 c 256
92.7402 72 m 256
 92.7402 48.3096 112.31 28.7402 136 28.7402 c 256
 159.69 28.7402 179.26 48.3096 179.26 72 c 256
 179.26 95.6904 159.69 115.26 136 115.26 c 256
 112.31 115.26 92.7402 95.6904 92.7402 72 c 256
32 183 m 256
 32 322 123.839 396 240 396 c 256
 333 396 413 343.145 413 258 c 256
 413 201 385 153 346 115 c 257
 349.333 115.667 352.333 116 355 116 c 256
 384 116 390 71 434 71 c 256
 493 71 544 188 544 291 c 257
 583 276 l 257
 583 143 524 0 416 0 c 256
 352 0 348 54 321 54 c 256
 308 54 282 34 240 -21 c 257
 204 -18 l 257
 217.333 -4.66699 246.086 34.0256 288 84 c 256
 340 146 367 194 367 232 c 256
 367 286 328 320 236 320 c 256
 155.868 320 63 272 63 156 c 256
 63 144 66 118 72 101 c 257
 80 129 108 145 135 145 c 256
 180.808 145 210 116 210 72 c 256
 210 37 180 -1 141 -1 c 256
 56 -1 32 108 32 183 c 256
EndSplineSet
EndChar

StartChar: si_KhRIi
Encoding: 108 -1 188
GlifName: si_K_hR_I_i
Width: 630
VWidth: 0
Flags: W
LayerCount: 2
Back
Fore
SplineSet
399.697 555 m 256
 399.697 524.818 426.867 500.543 460 500.543 c 256
 493.133 500.543 520.303 524.818 520.303 555 c 256
 520.303 585.182 493.133 609.457 460 609.457 c 256
 426.867 609.457 399.697 585.182 399.697 555 c 256
75 562 m 256
 75 652 206 670 306 670 c 256
 442 670 552 639 552 558 c 256
 552 505 504 474 460 474 c 256
 416 474 368 505 368 558 c 256
 368 583 381 600 387 608 c 257
 380 609 348.212 611 306 611 c 256
 230.344 611 117 605.886 117 554 c 256
 117 508 182 508 284 504 c 256
 348.869 501.456 443 499 498 459 c 256
 547.146 423.257 583 356 583 274 c 257
 544 286 l 257
 544 334 532.813 383.563 505 414 c 256
 452 472 386.019 472.325 285 478 c 256
 196 483 75 476 75 562 c 256
92.7402 72 m 256
 92.7402 48.3096 112.31 28.7402 136 28.7402 c 256
 159.69 28.7402 179.26 48.3096 179.26 72 c 256
 179.26 95.6904 159.69 115.26 136 115.26 c 256
 112.31 115.26 92.7402 95.6904 92.7402 72 c 256
32 183 m 256
 32 322 123.839 396 240 396 c 256
 333 396 413 343.145 413 258 c 256
 413 201 385 153 346 115 c 257
 349.333 115.667 352.333 116 355 116 c 256
 384 116 390 71 434 71 c 256
 493 71 544 188 544 291 c 257
 583 276 l 257
 583 143 524 0 416 0 c 256
 352 0 348 54 321 54 c 256
 308 54 282 34 240 -21 c 257
 204 -18 l 257
 217.333 -4.66699 246.086 34.0256 288 84 c 256
 340 146 367 194 367 232 c 256
 367 286 328 320 236 320 c 256
 155.868 320 63 272 63 156 c 256
 63 144 66 118 72 101 c 257
 80 129 108 145 135 145 c 256
 180.808 145 210 116 210 72 c 256
 210 37 180 -1 141 -1 c 256
 56 -1 32 108 32 183 c 256
56 -44 m 257
 83 -44 l 257
 118.333 -119.333 187.667 -157 293 -157 c 256
 436 -157 554 -90 554 50 c 256
 554 71 549 93 542 102 c 257
 555 133 l 257
 573 106.333 582 74.667 582 38 c 256
 582 -123.729 453 -219 309 -219 c 256
 176 -219 93.333 -153.333 56 -44 c 257
EndSplineSet
EndChar

